<?xml version="1.0" standalone="no"?>
<!DOCTYPE svg PUBLIC "-//W3C//DTD SVG 1.1//EN" "http://www.w3.org/Graphics/SVG/1.1/DTD/svg11.dtd" >
<svg xmlns="http://www.w3.org/2000/svg">
<metadata>
Created by FontPrep 20130207 at Thu Jun 26 17:35:34 2014
 By Thomas Degry
Copyright (c) 2004-7 by Kris Sowersby. All rights reserved.
</metadata>
<defs>
<font id="53ef13fcba8b7063c01909ad9d8801e8" horiz-adv-x='1024' >
  <font-face 
    font-family="National-BookItalic"
    font-weight="450"
    font-style="italic"
    font-stretch="normal"
    units-per-em="2048"
    panose-1="2 0 5 3 0 0 0 2 0 4"
    ascent="1638"
    descent="-410"
    x-height="946"
    cap-height="1206"
    bbox="-348 -526 2427 1898"
    underline-thickness="116"
    underline-position="57"
    unicode-range="U+0020-F778"
  />
<missing-glyph horiz-adv-x="1245" 
 />
    <glyph glyph-name="f_b" unicode="fb" horiz-adv-x="1626" 
d="M-20 -432q-104 0 -164 53l37 123q57 -51 107 -51t74 20t34 76l184 1032h-146l25 125h141l21 113q61 324 362 323q57 0 124 -15t93 -32l162 33l-106 -604q98 205 307 205q149 -1 229 -101t80 -288q0 -260 -128 -432t-341 -173q-104 -1 -176 51t-88 130l-61 -156h-111
l211 1210q-84 55 -186 56q-182 0 -220 -209l-18 -111h197l-23 -125h-197l-182 -1034q-23 -127 -80 -173t-161 -46zM1063 86q145 0 232 140t87 347q0 127 -51 199t-152 72t-184 -84t-106 -219l-33 -189q-16 -98 39 -182t168 -84z" />
    <glyph glyph-name="f_f_b" unicode="ffb" horiz-adv-x="2158" 
d="M-20 -432q-104 0 -164 53l37 123q57 -51 107 -51t74 20t34 76l184 1032h-146l25 125h141l27 146q53 276 283 276q106 0 188 -59l-63 -129q-68 57 -125 57t-87 -36t-44 -116l-25 -139h379l20 113q61 324 363 323q57 0 124 -15t93 -32l162 33l-107 -604q98 205 307 205
q150 -1 230 -101t80 -288q0 -260 -128 -432t-341 -173q-104 -1 -176 51t-89 130l-61 -156h-111l211 1210q-84 55 -186 56q-182 0 -219 -209l-19 -111h193l-23 -125h-192l-178 -1007q-23 -127 -80 -173q-57 -47 -162 -47t-164 54l37 123q57 -51 107 -51t74 20t34 76l180 1005
h-381l-182 -1034q-23 -127 -80 -173t-161 -46zM1595 86q145 0 233 140q87 140 87 347q0 127 -51 199q-50 72 -152 72t-185 -84t-106 -219l-32 -189q-15 -98 39 -182t167 -84z" />
    <glyph glyph-name="f_f_h" unicode="ffh" horiz-adv-x="2121" 
d="M-20 -432q-104 0 -164 53l37 123q57 -51 107 -51t74 20t34 76l184 1032h-146l25 125h141l27 146q53 276 283 276q106 0 188 -59l-63 -129q-68 57 -125 57t-87 -36t-44 -116l-25 -139h379l20 113q61 324 363 323q57 0 124 -15t93 -32l162 33l-111 -614q104 215 305 215
q113 1 177 -57t65 -167q0 -47 -8 -94l-78 -448q-16 -92 53 -92q27 0 60 8l-21 -113q-45 -16 -98 -16q-186 0 -150 205l82 458q33 184 -129 185q-94 0 -182 -76t-117 -244l-90 -518h-156l213 1210q-84 55 -186 56q-182 0 -219 -209l-19 -111h193l-23 -125h-192l-178 -1007
q-23 -127 -80 -173q-57 -47 -162 -47t-164 54l37 123q57 -51 107 -51t74 20t34 76l180 1005h-381l-182 -1034q-23 -127 -80 -173t-161 -46z" />
    <glyph glyph-name="f_f_j" unicode="ffj" horiz-adv-x="1544" 
d="M-20 -432q-104 0 -164 53l37 123q57 -51 107 -51t74 20t34 76l184 1032h-146l25 125h141l27 146q53 276 283 276q106 0 188 -59l-63 -129q-68 57 -125 57t-87 -36t-44 -116l-25 -139h379l20 113q59 324 353 323q119 0 217 -59l-64 -129q-82 57 -160 57q-77 0 -125 -45
t-69 -157l-19 -103h535l-199 -1132q-23 -127 -82 -173q-60 -47 -164 -47t-163 54l37 123q57 -51 107 -51t74 20t34 76l180 1005h-381l-178 -1007q-23 -127 -80 -173q-57 -47 -162 -47t-164 54l37 123q57 -51 107 -51t74 20t34 76l180 1005h-381l-182 -1034
q-23 -127 -80 -173t-161 -46z" />
    <glyph glyph-name="f_f_k" unicode="ffk" horiz-adv-x="1982" 
d="M-20 -432q-104 0 -164 53l37 123q57 -51 107 -51t74 20t34 76l184 1032h-146l25 125h141l27 146q53 276 283 276q106 0 188 -59l-63 -129q-68 57 -125 57t-87 -36t-44 -116l-25 -139h379l20 113q61 324 363 323q57 0 124 -15t93 -32l162 33l-140 -788h46l350 366h190
l-416 -414l166 -348q29 -57 67 -68t103 7l-22 -117q-49 -16 -109 -16q-102 0 -151 100l-187 377h-57l-82 -467h-156l213 1210q-84 55 -186 56q-182 0 -219 -209l-19 -111h193l-23 -125h-192l-178 -1007q-23 -127 -80 -173q-57 -47 -162 -47t-164 54l37 123q57 -51 107 -51
t74 20t34 76l180 1005h-381l-182 -1034q-23 -127 -80 -173t-161 -46z" />
    <glyph glyph-name="f_h" unicode="fh" horiz-adv-x="1589" 
d="M-20 -432q-104 0 -164 53l37 123q57 -51 107 -51t74 20t34 76l184 1032h-146l25 125h141l21 113q61 324 362 323q57 0 124 -15t93 -32l162 33l-110 -614q104 215 305 215q113 1 177 -57t64 -167q0 -47 -8 -94l-78 -448q-16 -92 54 -92q27 0 59 8l-20 -113
q-45 -16 -99 -16q-186 0 -149 205l82 458q33 184 -129 185q-94 0 -182 -76t-117 -244l-90 -518h-156l213 1210q-84 55 -186 56q-182 0 -220 -209l-18 -111h197l-23 -125h-197l-182 -1034q-23 -127 -80 -173t-161 -46z" />
    <glyph glyph-name="f_j" unicode="fj" horiz-adv-x="1011" 
d="M-20 -432q-104 0 -164 53l37 123q57 -51 107 -51t74 20t34 76l184 1032h-146l25 125h141l21 113q59 324 352 323q119 0 217 -59l-63 -129q-82 57 -160 57t-126 -45t-69 -157l-18 -103h535l-199 -1132q-23 -127 -82 -173q-59 -47 -164 -47t-164 54l37 123q57 -51 107 -51
t74 20t34 76l180 1005h-381l-182 -1034q-23 -127 -80 -173t-161 -46z" />
    <glyph glyph-name="f_k" unicode="fk" horiz-adv-x="1449" 
d="M-20 -432q-104 0 -164 53l37 123q57 -51 107 -51t74 20t34 76l184 1032h-146l25 125h141l21 113q61 324 362 323q57 0 124 -15t93 -32l162 33l-139 -788h45l350 366h191l-416 -414l166 -348q29 -57 67 -68t103 7l-23 -117q-49 -16 -108 -16q-102 0 -152 100l-186 377h-58
l-81 -467h-156l213 1210q-84 55 -186 56q-182 0 -220 -209l-18 -111h192l-22 -125h-193l-182 -1034q-23 -127 -80 -173t-161 -46z" />
    <glyph glyph-name="ff" unicode="ff" horiz-adv-x="1118" 
d="M-20 -432q-104 0 -164 53l37 123q57 -51 107 -51t74 20t34 76l184 1032h-146l25 125h141l27 146q53 276 283 276q106 0 188 -59l-63 -129q-68 57 -125 57t-87 -36t-44 -116l-25 -139h379l24 131q31 164 112 235q81 70 203 70t220 -59l-64 -129q-82 57 -152 57t-110 -40
q-41 -40 -57 -134l-23 -131h238l-22 -125h-238l-178 -1007q-23 -127 -80 -173q-57 -47 -162 -47t-164 54l37 123q57 -51 107 -51t74 20t34 76l180 1005h-381l-182 -1034q-23 -127 -80 -173t-161 -46z" />
    <glyph glyph-name="ffi" unicode="ffi" horiz-adv-x="1595" 
d="M1415 111q27 0 60 8l-21 -113q-45 -16 -98 -16q-186 0 -150 205l109 626h-379l-178 -1007q-23 -127 -80 -173q-57 -47 -162 -47t-164 54l37 123q57 -51 107 -51t74 20t34 76l180 1005h-381l-182 -1034q-23 -127 -80 -173t-161 -46t-164 53l37 123q57 -51 107 -51t74 20
t34 76l184 1032h-146l25 125h141l27 146q53 276 283 276q106 0 188 -59l-63 -129q-68 57 -125 57t-87 -36t-44 -116l-25 -139h379l20 113q59 324 353 323q119 0 217 -59l-64 -129q-82 57 -160 57q-77 0 -125 -45t-69 -157l-19 -103h535l-131 -743q-16 -92 53 -92z" />
    <glyph glyph-name="ffl" unicode="ffl" horiz-adv-x="1587" 
d="M-20 -432q-104 0 -164 53l37 123q57 -51 107 -51t74 20t34 76l184 1032h-146l25 125h141l27 146q53 276 283 276q106 0 188 -59l-63 -129q-68 57 -125 57t-87 -36t-44 -116l-25 -139h379l20 113q61 324 363 323q57 0 124 -15t93 -32l162 33l-205 -1165q-16 -92 53 -92
q27 0 60 8l-21 -113q-45 -16 -98 -16q-186 0 -150 205l176 1015q-84 55 -186 56q-182 0 -219 -209l-19 -111h197l-22 -125h-197l-178 -1007q-23 -127 -80 -173q-57 -47 -162 -47t-164 54l37 123q57 -51 107 -51t74 20t34 76l180 1005h-381l-182 -1034q-23 -127 -80 -173
t-161 -46z" />
    <glyph glyph-name="fi" unicode="fi" horiz-adv-x="1062" 
d="M883 111q27 0 59 8l-20 -113q-45 -16 -99 -16q-186 0 -149 205l108 626h-379l-182 -1034q-23 -127 -80 -173t-161 -46t-164 53l37 123q57 -51 107 -51t74 20t34 76l184 1032h-146l25 125h141l21 113q59 324 352 323q119 0 217 -59l-63 -129q-82 57 -160 57t-126 -45
t-69 -157l-18 -103h535l-132 -743q-16 -92 54 -92z" />
    <glyph glyph-name="fl" unicode="fl" horiz-adv-x="1054" 
d="M-20 -432q-104 0 -164 53l37 123q57 -51 107 -51t74 20t34 76l184 1032h-146l25 125h141l21 113q61 324 362 323q57 0 124 -15t93 -32l162 33l-205 -1165q-16 -92 54 -92q27 0 59 8l-20 -113q-45 -16 -99 -16q-186 0 -149 205l176 1015q-84 55 -186 56q-182 0 -220 -209
l-18 -111h197l-23 -125h-197l-182 -1034q-23 -127 -80 -173t-161 -46z" />
    <glyph glyph-name=".notdef" horiz-adv-x="1245" 
 />
    <glyph glyph-name=".null" horiz-adv-x="0" 
 />
    <glyph glyph-name="nonmarkingreturn" horiz-adv-x="681" 
 />
    <glyph glyph-name="space" unicode=" " horiz-adv-x="460" 
 />
    <glyph glyph-name="exclam" unicode="!" horiz-adv-x="436" 
d="M53 104q0 49 34 83t83 34t83 -34t34 -83q0 -48 -34 -82t-83 -34t-83 34t-34 82zM252 1206h205l-201 -866h-106z" />
    <glyph glyph-name="quotedbl" unicode="&#x22;" horiz-adv-x="575" 
d="M438 844l92 524h179l-172 -524h-99zM154 844l92 524h178l-172 -524h-98z" />
    <glyph glyph-name="numbersign" unicode="#" horiz-adv-x="1290" 
d="M592 616l-88 -186h203l88 186h-203zM1112 309h-319l-146 -309h-143l145 309h-203l-145 -309h-143l145 309h-221l22 121h256l89 186h-271l21 121h307l117 248h145l-119 -248h203l117 248h145l-119 -248h234l-21 -121h-270l-88 -186h285z" />
    <glyph glyph-name="dollar" unicode="$" horiz-adv-x="911" 
d="M311 741q0 -51 28 -83t93 -62l53 297q-174 -17 -174 -152zM623 254q0 59 -26 94t-95 68l-58 -330q179 18 179 168zM168 719q0 139 93 212t245 79l29 166h102l-31 -170q264 -31 264 -258l-141 -25q4 133 -143 166l-60 -334h4q134 -53 186 -118t52 -165q0 -139 -93 -213
t-251 -82l-33 -194h-102l35 197q-133 14 -213 86t-80 184l135 31q-2 -78 49 -128t127 -65l66 365q-240 78 -240 266z" />
    <glyph glyph-name="percent" unicode="%" horiz-adv-x="1738" 
d="M1403 627q-51 0 -91 -37q-66 -61 -92 -211q-25 -150 27 -237q33 -54 97 -54t111 67q77 112 77 279q0 193 -129 193zM1327 -14q-119 0 -181 80t-62 204t34 225q35 101 113 173q79 72 189 72t174 -84q64 -82 65 -240q0 -158 -87 -294t-245 -136zM389 0l840 1208h121
l-838 -1208h-123zM399 1110q-51 0 -91 -37q-63 -58 -90 -210q-27 -151 26 -237q34 -54 98 -54t110 66q76 111 76 291q0 181 -129 181zM324 469q-119 0 -182 80q-62 80 -62 204q0 261 147 398q78 72 189 72q112 0 176 -83t64 -241t-88 -294q-86 -136 -244 -136z" />
    <glyph glyph-name="ampersand" unicode="&#x26;" horiz-adv-x="1132" 
d="M584 1120q-78 0 -129 -46t-53 -118t53 -143l71 -96q113 53 164 111t51 141q1 151 -157 151zM389 94q195 0 344 135l-268 334q-48 -23 -76 -41l-60 -38q-32 -19 -41 -27q-9 -7 -32 -27t-29 -34q-5 -14 -21 -41q-16 -26 -16 -95q0 -68 54 -117t145 -49zM383 -25
q-166 0 -254 73t-88 210t90 228t268 167l-45 56q-96 119 -96 241t100 202q100 79 242 79t215 -71q72 -71 72 -189q0 -213 -287 -346l219 -275q55 78 90 240l142 -31q-61 -207 -150 -311l143 -170l-118 -92l-121 149q-178 -160 -422 -160z" />
    <glyph glyph-name="quotesingle" unicode="'" horiz-adv-x="290" 
d="M154 844l92 524h178l-172 -524h-98z" />
    <glyph glyph-name="parenleft" unicode="(" horiz-adv-x="675" 
d="M297 301q0 -190 53 -358t174 -357h-164q-217 336 -217 713q0 309 143 598q142 289 371 471h183q-250 -217 -396 -474t-147 -593z" />
    <glyph glyph-name="parenright" unicode=")" horiz-adv-x="675" 
d="M399 653q0 191 -53 359t-174 356h164q217 -336 217 -713q0 -309 -142 -598t-372 -471h-182q250 217 396 474t146 593z" />
    <glyph glyph-name="asterisk" unicode="*" horiz-adv-x="722" 
d="M563 1180l-76 -191l197 37l8 -133l-205 20l95 -188l-127 -45l-47 201l-144 -150l-80 109l176 108l-186 90l76 109l151 -133l31 203z" />
    <glyph glyph-name="plus" unicode="+" horiz-adv-x="1015" 
d="M98 555h363l63 356h103l-64 -356h371l-16 -94h-371l-68 -385h-102l67 385h-362z" />
    <glyph glyph-name="comma" unicode="," horiz-adv-x="581" 
d="M379 55q0 -131 -92 -201t-236 -81v80q84 12 145 50q60 38 60 99q-59 -12 -97 18t-38 85q0 54 34 85t91 31t95 -45t38 -121z" />
    <glyph glyph-name="hyphen" unicode="-" horiz-adv-x="768" 
d="M143 459l23 131h459l-23 -131h-459z" />
    <glyph glyph-name="period" unicode="." horiz-adv-x="581" 
d="M102 115q0 53 37 90t90 37t90 -37t37 -90t-37 -90t-90 -37t-90 37t-37 90z" />
    <glyph glyph-name="slash" unicode="/" horiz-adv-x="741" 
d="M-174 -416l868 1786h150l-873 -1786h-145z" />
    <glyph glyph-name="zero" unicode="0" horiz-adv-x="1185" 
d="M262 454q0 -170 75 -260t225 -90t256 127t106 297t-77 258q-77 90 -227 90t-254 -126t-104 -296zM545 -25q-225 0 -334 131t-109 330q0 258 157 416t382 158t334 -131t108 -330q-1 -256 -157 -415t-381 -159z" />
    <glyph glyph-name="one" unicode="1" horiz-adv-x="724" 
d="M406 0h-160l145 831l-299 -55l25 131l465 94z" />
    <glyph glyph-name="two" unicode="2" horiz-adv-x="919" 
d="M817 709q0 -105 -57 -205q-58 -100 -150 -171q-187 -143 -383 -194v-8h539l-23 -131h-723l21 123q309 150 461 284t151 298q0 83 -46 127t-131 44t-141 -50q-56 -52 -56 -164l-146 30q17 206 182 280q80 36 179 38q154 0 238 -77t85 -224z" />
    <glyph glyph-name="three" unicode="3" horiz-adv-x="905" 
d="M727 82q0 -180 -121 -272t-297 -92t-268 78q-92 79 -92 208l149 31q0 -97 58 -147t166 -50t177 60t69 168t-69 173t-249 83l18 124q209 20 302 88t94 187q0 78 -50 120t-133 42q-176 0 -213 -193l-145 33q27 133 118 210t245 77t246 -70q91 -70 91 -220q1 -150 -111 -242
q-112 -91 -300 -93v-6q315 -27 315 -297z" />
    <glyph glyph-name="four" unicode="4" horiz-adv-x="1085" 
d="M387 236h236l55 319q28 161 47 219l6 27h-8q-55 -76 -174 -211l-195 -219q-86 -95 -116 -121l-17 -12v-9q35 7 166 7zM535 -268l67 379h-582l19 102l711 772h163l-131 -749h201l-22 -125h-199l-68 -379h-159z" />
    <glyph glyph-name="five" unicode="5" horiz-adv-x="919" 
d="M471 481q143 0 223 -93t78 -230q-2 -209 -129 -325t-307 -116t-268 78t-88 209l149 33q0 -199 213 -199q111 0 192 75t80 222q0 105 -54 169t-144 64t-148 -40h-125l140 657h596l-23 -133h-457l-94 -426q61 55 166 55z" />
    <glyph glyph-name="six" unicode="6" horiz-adv-x="1052" 
d="M791 416q0 102 -61 162q-60 60 -176 59q-116 0 -200 -82t-84 -207t60 -187q60 -63 178 -63q117 0 200 86t83 232zM687 1108q-163 0 -284 -153t-157 -418h8q45 117 140 173t208 56q162 0 253 -90t91 -242q0 -207 -122 -333t-330 -126q-391 0 -392 465q0 188 64 364
t202 302q140 125 324 125q289 0 340 -244l-147 -55q-35 176 -198 176z" />
    <glyph glyph-name="seven" unicode="7" horiz-adv-x="970" 
d="M612 850h-350l-29 -154h-149l51 289h805l-18 -104l-684 -1149h-166l579 975q67 111 105 145v8q-42 -10 -144 -10z" />
    <glyph glyph-name="eight" unicode="8" horiz-adv-x="999" 
d="M496 547q-110 0 -189 -71q-80 -71 -80 -174q1 -104 61 -156t172 -52t189 68q78 68 78 174q-1 211 -231 211zM791 915q-1 191 -205 191q-104 0 -172 -69q-70 -69 -70 -175q0 -184 205 -184q101 0 171 71t71 166zM885 340q1 -182 -129 -274t-310 -91q-180 0 -282 80
t-103 213q0 133 75 222t204 120l2 11q-78 20 -121 85t-43 146q0 176 127 277t295 101t263 -80q95 -81 95 -208t-76 -214t-188 -114l-2 -10q90 -29 142 -98q51 -70 51 -166z" />
    <glyph glyph-name="nine" unicode="9" horiz-adv-x="1050" 
d="M262 591q0 -121 60 -185t176 -64t199 83t83 210t-62 189t-178 62t-197 -86q-81 -87 -81 -209zM459 213q-162 0 -257 95t-96 255q0 199 122 323t320 124t298 -120q102 -120 102 -348q0 -490 -256 -710q-133 -115 -319 -115q-289 0 -363 244l131 66q68 -186 242 -187
q342 0 422 604h-8q-45 -119 -137 -175t-201 -56z" />
    <glyph glyph-name="colon" unicode=":" horiz-adv-x="581" 
d="M233 856q0 53 37 90t90 37q52 0 90 -37t38 -90t-38 -90q-36 -37 -90 -37t-90 37q-37 37 -37 90zM102 115q0 53 37 90t90 37t90 -37t37 -90t-37 -90t-90 -37t-90 37t-37 90z" />
    <glyph glyph-name="semicolon" unicode=";" horiz-adv-x="581" 
d="M250 856q0 53 37 90t90 37t90 -37t37 -90t-37 -90t-90 -37t-90 37t-37 90zM379 55q0 -131 -92 -201t-236 -81v80q84 12 145 50q60 38 60 99q-59 -12 -97 18t-38 85q0 54 34 85t91 31t95 -45t38 -121z" />
    <glyph glyph-name="less" unicode="&#x3c;" horiz-adv-x="841" 
d="M780 852l-491 -358l354 -349l-80 -77l-440 438l594 434z" />
    <glyph glyph-name="equal" unicode="=" horiz-adv-x="1060" 
d="M963 586h-836l16 94h836zM918 328h-836l16 94h836z" />
    <glyph glyph-name="greater" unicode="&#x3e;" horiz-adv-x="841" 
d="M61 156l492 358l-354 348l80 78l440 -438l-594 -434z" />
    <glyph glyph-name="question" unicode="?" horiz-adv-x="835" 
d="M193 104q0 49 33 83q34 34 83 34t83 -34t34 -83q0 -48 -34 -82t-83 -34t-83 34t-33 82zM856 907q0 -191 -127 -297t-285 -106l-32 -182h-144l51 276h46q143 0 236 73t93 222q0 99 -52 153t-148 54q-169 0 -226 -195l-125 53q88 272 375 273q164 0 251 -85t87 -239z" />
    <glyph glyph-name="at" unicode="@" horiz-adv-x="1794" 
d="M1252 -25q-212 0 -214 189q-59 -188 -264 -189q-131 -1 -204 91t-72 260q0 227 112 367q113 140 277 141q90 0 153 -43t76 -132l64 162h116l-114 -590q-12 -75 10 -109t86 -34q127 0 206 124t79 315q-1 191 -93 325q-174 254 -548 254q-272 0 -473 -168
q-97 -82 -155 -217t-58 -312t60 -315t166 -221q211 -164 519 -164q213 0 369 60l28 -117q-184 -62 -360 -62t-299 25t-240 85t-201 152t-135 236q-51 143 -51 324q0 358 227 583t611 226q188 1 339 -55q279 -103 385 -362q48 -120 48 -253q0 -264 -119 -420t-331 -156z
M909 719q-113 -1 -185 -107t-73 -286q0 -227 156 -228q90 0 164 72t92 203l14 86q18 113 -34 187t-134 73z" />
    <glyph glyph-name="A" unicode="A" horiz-adv-x="1181" 
d="M705 1110h-9q-45 -121 -143 -307l-168 -316h414q-64 307 -80 465t-14 158zM887 0l-64 356h-506l-186 -356h-172l651 1206h217l226 -1206h-166z" />
    <glyph glyph-name="B" unicode="B" horiz-adv-x="1036" 
d="M489 133q281 0 281 234q0 172 -211 172h-219l-72 -406h221zM549 670q260 0 260 241q0 86 -48 124t-153 38h-174l-72 -403h187zM471 0h-389l211 1206h354q328 0 328 -270q0 -142 -78 -226t-195 -96v-8q109 -8 168 -65t60 -160q0 -195 -124 -288t-335 -93z" />
    <glyph glyph-name="C" unicode="C" horiz-adv-x="1128" 
d="M575 -25q-217 -1 -339 135t-123 355q0 352 177 559t437 207q322 0 391 -285l-160 -65q-18 106 -86 160t-161 55q-199 0 -316 -182t-116 -437q-1 -170 81 -268t234 -98q110 0 180 39t133 145l125 -70q-141 -250 -457 -250z" />
    <glyph glyph-name="D" unicode="D" horiz-adv-x="1193" 
d="M471 0h-389l211 1206h328q253 0 377 -119t124 -327q0 -561 -416 -718q-112 -42 -235 -42zM463 133q213 0 350 150t137 454q0 336 -354 336h-162l-166 -940h195z" />
    <glyph glyph-name="E" unicode="E" horiz-adv-x="983" 
d="M825 139l-22 -139h-721l211 1206h721l-25 -139h-557l-70 -395h494l-25 -140h-493l-70 -393h557z" />
    <glyph glyph-name="F" unicode="F" horiz-adv-x="925" 
d="M246 0h-164l211 1206h684l-25 -139h-520l-70 -395h457l-24 -140h-457z" />
    <glyph glyph-name="G" unicode="G" horiz-adv-x="1212" 
d="M113 465q0 352 178 559t438 207q322 0 391 -285l-159 -65q-19 106 -87 160t-161 55q-199 0 -317 -182t-117 -437q-1 -170 79 -268t236 -98q274 0 324 282l14 78h-307l24 143h467l-106 -614h-127l-2 154q-83 -178 -303 -178t-342 134q-122 136 -123 355z" />
    <glyph glyph-name="H" unicode="H" horiz-adv-x="1257" 
d="M246 0h-164l211 1206h164l-92 -524h606l92 524h164l-211 -1206h-164l94 543h-606z" />
    <glyph glyph-name="I" unicode="I" horiz-adv-x="487" 
d="M293 1206h164l-211 -1206h-164z" />
    <glyph glyph-name="J" unicode="J" horiz-adv-x="858" 
d="M314 -25q-154 0 -237 68t-108 180l131 84q45 -203 205 -203q105 0 149 54t66 188l154 860h164l-158 -889q-33 -184 -122 -263q-90 -79 -244 -79z" />
    <glyph glyph-name="K" unicode="K" horiz-adv-x="1040" 
d="M940 0h-182l-301 543h-117l-94 -543h-164l211 1206h164l-92 -528h96l467 528h194l-534 -585z" />
    <glyph glyph-name="L" unicode="L" horiz-adv-x="937" 
d="M293 1206h164l-189 -1067h557l-22 -139h-721z" />
    <glyph glyph-name="M" unicode="M" horiz-adv-x="1413" 
d="M748 301h-123l-158 449q-42 112 -49 202l-2 27h-8q-4 -76 -29 -221l-133 -758h-164l211 1206h192l187 -579q28 -91 37 -170h8q16 63 84 164l389 585h192l-211 -1206h-163l133 758q22 148 43 198l6 23h-8q-33 -78 -127 -219z" />
    <glyph glyph-name="N" unicode="N" horiz-adv-x="1255" 
d="M463 1206l325 -712q60 -130 91 -236l10 -37h8q16 145 43 297l121 688h164l-211 -1206h-166l-334 709q-48 101 -92 233l-12 39h-9q-8 -141 -34 -293l-121 -688h-164l211 1206h170z" />
    <glyph glyph-name="O" unicode="O" horiz-adv-x="1261" 
d="M711 1094q-199 0 -316 -180t-116 -437q-1 -170 81 -268t234 -98q198 0 314 180t116 436q0 163 -76 265t-237 102zM575 -25q-217 -1 -339 135t-123 355q0 352 177 559t437 207q217 0 340 -136t123 -356q0 -352 -178 -558t-437 -206z" />
    <glyph glyph-name="P" unicode="P" horiz-adv-x="983" 
d="M629 1206q188 0 276 -74t88 -227q0 -213 -131 -329t-342 -115h-194l-80 -461h-164l211 1206h336zM528 592q141 0 220 79q78 79 77 222q0 92 -51 136t-164 44h-176l-86 -481h180z" />
    <glyph glyph-name="Q" unicode="Q" horiz-adv-x="1271" 
d="M721 1094q-199 0 -315 -180t-117 -437q0 -170 82 -268t233 -98q197 0 314 180t116 436q0 163 -76 265t-237 102zM1200 739q0 -343 -168 -547t-420 -215q52 -89 142 -111t213 -11l-54 -148q-193 -4 -317 71t-150 216q-156 39 -240 165t-83 306q0 352 177 559t437 207
q217 -1 340 -137t123 -355z" />
    <glyph glyph-name="R" unicode="R" horiz-adv-x="1095" 
d="M590 643q276 0 276 256q0 90 -47 132t-153 42h-232l-76 -430h232zM506 512h-170l-90 -512h-164l211 1206h399q186 0 264 -72t78 -226q0 -152 -102 -241t-232 -96v-8q84 -10 125 -53t60 -143l43 -242q12 -70 51 -125h-174q-29 35 -41 109l-37 219q-19 112 -67 148t-154 36
z" />
    <glyph glyph-name="S" unicode="S" horiz-adv-x="980" 
d="M680 307q0 99 -47 151t-179 103t-201 118t-69 197t68 213q116 142 334 142q182 0 273 -74t91 -244l-153 -24q5 107 -53 163t-168 56t-175 -54t-65 -146t47 -130q47 -39 185 -96t206 -132t68 -214q0 -178 -122 -269t-308 -92q-371 1 -371 320l147 27q-4 -222 240 -224
q120 0 186 54t66 155z" />
    <glyph glyph-name="T" unicode="T" horiz-adv-x="968" 
d="M479 0h-164l187 1067h-359l25 139h883l-25 -139h-360z" />
    <glyph glyph-name="U" unicode="U" horiz-adv-x="1191" 
d="M1018 1206h164l-146 -827q-70 -403 -506 -404q-206 0 -320 116t-71 360l131 755h164l-135 -774q-29 -166 41 -245t208 -79t220 70t111 234z" />
    <glyph glyph-name="V" unicode="V" horiz-adv-x="1083" 
d="M330 1206l112 -800q25 -175 25 -267l2 -35h8q37 111 129 299l398 803h172l-611 -1206h-217l-184 1206h166z" />
    <glyph glyph-name="W" unicode="W" horiz-adv-x="1683" 
d="M1137 135v-37h8q33 127 110 320l322 788h168l-514 -1206h-225l-68 750q-13 164 -2 278l4 39h-8q-29 -125 -113 -317l-325 -750h-226l-63 1206h160l32 -782l6 -326h9q27 133 112 324l344 784h181l71 -786q17 -183 17 -285z" />
    <glyph glyph-name="X" unicode="X" horiz-adv-x="1097" 
d="M801 0l-185 354q-49 96 -57 148h-8q-8 -31 -107 -150l-292 -352h-193l526 616l-295 590h179l157 -323q50 -103 58 -156h6q6 27 108 154l263 325h188l-494 -585l314 -621h-168z" />
    <glyph glyph-name="Y" unicode="Y" horiz-adv-x="1011" 
d="M342 1206l139 -413q40 -127 45 -187l2 -22h9q25 78 106 207l266 415h174l-487 -731l-82 -475h-164l82 475l-258 731h168z" />
    <glyph glyph-name="Z" unicode="Z" horiz-adv-x="1040" 
d="M678 1067h-463l25 139h831l-20 -104l-689 -819q-90 -106 -141 -136l-16 -12v-8q68 12 196 12h486l-23 -139h-864l14 84l703 840q75 89 139 137l18 10v8q-68 -12 -196 -12z" />
    <glyph glyph-name="bracketleft" unicode="[" horiz-adv-x="649" 
d="M479 1253l-272 -1552h293l-21 -117h-438l313 1786h439l-21 -117h-293z" />
    <glyph glyph-name="backslash" unicode="\" horiz-adv-x="690" 
d="M338 1370l250 -1786h-133l-250 1786h133z" />
    <glyph glyph-name="bracketright" unicode="]" horiz-adv-x="649" 
d="M170 -299l272 1552h-292l20 117h438l-313 -1786h-438l20 117h293z" />
    <glyph glyph-name="asciicircum" unicode="^" horiz-adv-x="1021" 
d="M737 1257h-8q-16 -66 -139 -239l-254 -361h-160l514 711h123l262 -711h-164l-120 359q-51 147 -54 221v20z" />
    <glyph glyph-name="underscore" unicode="_" horiz-adv-x="987" 
d="M0 -170l23 125h780l-23 -125h-780z" />
    <glyph glyph-name="grave" unicode="`" horiz-adv-x="696" 
d="M532 1085h-133l-235 293h215z" />
    <glyph glyph-name="a" unicode="a" horiz-adv-x="1075" 
d="M895 111q27 0 59 8l-20 -113q-44 -16 -110 -16t-104 43t-32 125q-82 -182 -289 -183q-141 1 -229 103t-88 284q0 250 131 428t337 179q206 0 243 -183l51 160h129l-131 -743q-16 -92 53 -92zM561 846q-141 0 -234 -131t-94 -334q1 -125 55 -201t157 -76t178 78
q73 78 96 213l29 160q20 115 -29 203t-158 88z" />
    <glyph glyph-name="b" unicode="b" horiz-adv-x="1069" 
d="M678 969q150 -1 230 -101t79 -288q0 -260 -128 -432t-341 -173q-104 -1 -176 51t-88 130l-61 -156h-111l240 1368h155l-106 -604q98 205 307 205zM506 104q147 0 234 136t87 340q0 124 -51 194q-52 70 -154 70t-184 -83t-106 -214l-33 -182q-16 -97 39 -179t168 -82z" />
    <glyph glyph-name="c" unicode="c" horiz-adv-x="901" 
d="M436 -25q-160 -1 -257 105t-97 278q0 352 216 523q112 88 261 88q301 0 301 -297l-145 -25q-4 193 -174 193q-141 0 -225 -136t-83 -296q1 -158 59 -235t165 -77q167 0 233 193l144 -33q-104 -281 -398 -281z" />
    <glyph glyph-name="d" unicode="d" horiz-adv-x="1067" 
d="M895 111q27 0 59 8l-20 -113q-44 -16 -110 -16t-104 43t-32 125q-68 -182 -289 -183q-141 1 -229 103t-88 284q0 250 131 428t336 179q205 0 242 -183l102 582h154l-205 -1165q-16 -92 53 -92zM561 844q-143 0 -236 -131t-94 -334q1 -123 55 -199t158 -76t179 77
q73 77 96 212l31 162q20 115 -30 202t-159 87z" />
    <glyph glyph-name="e" unicode="e" horiz-adv-x="940" 
d="M729 635q0 90 -50 150q-51 61 -153 61t-176 -80t-104 -203h473q10 29 10 72zM457 96q100 0 152 40t81 122l141 -35q-49 -137 -145 -192t-254 -55t-254 108q-96 109 -96 293q0 272 138 432t316 160q178 1 260 -97q83 -98 83 -222t-41 -212h-611q-13 -138 45 -240t185 -102
z" />
    <glyph glyph-name="f" unicode="f" horiz-adv-x="585" 
d="M616 1251q-70 0 -110 -40q-41 -40 -57 -134l-23 -131h238l-23 -125h-238l-182 -1034q-23 -127 -80 -173t-161 -46t-164 53l37 123q57 -51 107 -51q50 1 74 21t34 75l184 1032h-146l25 125h141l25 131q31 164 112 235q81 70 203 70t219 -59l-63 -129q-82 57 -152 57z" />
    <glyph glyph-name="g" unicode="g" horiz-adv-x="1024" 
d="M356 -432q-190 0 -276 73t-100 189l139 47q6 -84 68 -139t177 -55q227 0 279 280l37 191q-78 -176 -277 -177q-143 1 -232 103t-89 285q0 248 133 426t337 178t241 -183l51 160h129l-172 -977q-37 -207 -146 -304t-299 -97zM565 846q-145 0 -238 -132t-94 -335
q1 -125 53 -200t158 -75t180 75q72 75 95 210l31 166q20 115 -28 203t-157 88z" />
    <glyph glyph-name="h" unicode="h" horiz-adv-x="1034" 
d="M883 111q27 0 59 8l-20 -113q-45 -16 -99 -16q-186 0 -149 205l82 458q33 184 -129 185q-95 0 -183 -76t-116 -244l-90 -518h-156l237 1368h160l-110 -614q104 215 305 215q114 1 178 -57t63 -167q0 -47 -8 -94l-78 -448q-16 -92 54 -92z" />
    <glyph glyph-name="i" unicode="i" horiz-adv-x="497" 
d="M366 1366q46 0 78 -33t33 -79q0 -46 -34 -78q-35 -32 -79 -33q-44 1 -76 33t-32 78t32 79t78 33zM317 111q27 0 60 8l-21 -113q-45 -16 -98 -16q-186 0 -149 205l131 751h155l-131 -743q-16 -92 53 -92z" />
    <glyph glyph-name="j" unicode="j" horiz-adv-x="446" 
d="M366 1366q46 0 78 -33t33 -79q0 -46 -34 -78q-35 -32 -79 -33q-44 1 -76 33t-32 78t32 79t78 33zM-94 -307q111 0 139 160l195 1093h155l-192 -1089q-27 -160 -106 -225q-79 -64 -198 -64t-186 53l54 123q68 -51 139 -51z" />
    <glyph glyph-name="k" unicode="k" horiz-adv-x="894" 
d="M715 -10q-105 0 -154 100l-186 377h-56l-81 -467h-156l240 1368h157l-139 -788h45l350 366h191l-416 -414l166 -348q28 -57 66 -68t104 7l-23 -117q-49 -16 -108 -16z" />
    <glyph glyph-name="l" unicode="l" horiz-adv-x="489" 
d="M317 111q27 0 60 8l-21 -113q-45 -16 -98 -16q-186 0 -149 205l204 1173h156l-205 -1165q-16 -92 53 -92z" />
    <glyph glyph-name="m" unicode="m" horiz-adv-x="1546" 
d="M1427 745q0 -47 -8 -94l-78 -448q-16 -92 54 -92q27 0 59 8l-20 -113q-45 -16 -99 -16q-186 0 -149 205l82 458q33 184 -129 185q-84 0 -166 -77t-111 -243l-92 -518h-154l117 653q33 184 -129 185q-84 0 -166 -77t-110 -243l-90 -518h-156l166 946h135l-14 -192
q53 110 119 162t172 52t169 -60t64 -169q51 115 124 172t179 57t168 -58t63 -165z" />
    <glyph glyph-name="n" unicode="n" horiz-adv-x="1034" 
d="M883 111q27 0 59 8l-20 -113q-45 -16 -99 -16q-186 0 -149 205l82 458q33 184 -129 185q-95 0 -183 -76t-116 -244l-90 -518h-156l166 946h135l-14 -192q104 215 305 215q114 1 178 -57t63 -167q0 -47 -8 -94l-78 -448q-16 -92 54 -92z" />
    <glyph glyph-name="o" unicode="o" horiz-adv-x="1005" 
d="M543 840q-139 0 -225 -131t-85 -294t61 -241t167 -78q139 0 223 136t84 296t-59 236q-60 76 -166 76zM567 969q168 0 262 -109t95 -297q0 -248 -130 -418t-354 -170q-162 -1 -260 105t-98 297q0 248 130 420t355 172z" />
    <glyph glyph-name="p" unicode="p" horiz-adv-x="1071" 
d="M680 969q150 -1 230 -101t79 -288q0 -260 -128 -432t-341 -173q-102 -1 -171 51t-85 130l-100 -572h-154l240 1362h135l-16 -182q98 205 311 205zM508 104q145 0 232 136t87 340q0 122 -51 192t-152 70t-185 -82t-107 -213l-33 -185q-20 -94 38 -176t171 -82z" />
    <glyph glyph-name="q" unicode="q" horiz-adv-x="1013" 
d="M82 362q0 250 131 428t337 179q206 0 243 -183l51 160h129l-240 -1362h-155l100 568q-78 -176 -279 -177q-141 1 -229 103t-88 284zM561 844q-141 0 -234 -132t-94 -335q1 -123 55 -199t157 -76t178 77q73 77 96 212l29 164q20 115 -29 202t-158 87z" />
    <glyph glyph-name="r" unicode="r" horiz-adv-x="679" 
d="M721 965l-41 -183q-113 23 -218 -42t-128 -193l-96 -547h-156l166 946h135l-18 -215q49 115 148 183t208 51z" />
    <glyph glyph-name="s" unicode="s" horiz-adv-x="817" 
d="M369 88q176 0 176 148q0 72 -38 112q-39 40 -143 80q-104 39 -158 102t-54 179t90 188t231 72q283 0 283 -248l-146 -16q0 147 -151 147q-76 0 -121 -37t-45 -98t36 -99q37 -38 151 -86q114 -46 163 -113t49 -187t-88 -188q-88 -69 -242 -69t-238 74t-83 203l141 29
q0 -97 50 -145t137 -48z" />
    <glyph glyph-name="t" unicode="t" horiz-adv-x="618" 
d="M510 154v-131q-82 -47 -186 -48q-262 0 -209 287l98 559h-131l22 125h134l34 199l158 22l-39 -221h248l-23 -125h-245l-103 -575q-12 -70 12 -105t68 -35q78 1 162 48z" />
    <glyph glyph-name="u" unicode="u" 
d="M350 -25q-146 1 -206 93t-31 264l106 614h156l-113 -643q-16 -99 19 -155t123 -56t167 76q80 76 103 203l100 575h156l-131 -743q-16 -92 53 -92q27 0 59 8l-20 -113q-45 -16 -98 -16q-173 0 -146 188q-80 -203 -297 -203z" />
    <glyph glyph-name="v" unicode="v" horiz-adv-x="843" 
d="M332 96h8q29 111 123 299l274 551h168l-502 -946h-178l-143 946h160l67 -549q14 -118 23 -266v-35z" />
    <glyph glyph-name="w" unicode="w" horiz-adv-x="1361" 
d="M836 946l51 -530q17 -181 12 -273l-2 -34h8q23 115 105 307l231 530h162l-426 -946h-186l-56 485q-17 180 -12 265l2 32h-8q-29 -106 -115 -297l-213 -485h-186l-101 946h160l45 -528q12 -126 12 -275l-2 -34h9q27 121 110 309l240 528h160z" />
    <glyph glyph-name="x" unicode="x" horiz-adv-x="864" 
d="M430 371v10h-8q-4 -25 -105 -148l-194 -233h-174l401 477l-219 469h166l94 -219q51 -112 51 -137l2 -10h9q6 25 100 145l174 221h178l-383 -465l232 -481h-162l-113 236q-49 104 -49 135z" />
    <glyph glyph-name="y" unicode="y" horiz-adv-x="856" 
d="M342 131v-33h8q29 113 123 297l279 551h166l-560 -1061q-100 -189 -187 -253t-185 -64t-160 35l33 116q146 -79 254 26q59 58 131 200l-152 1001h164l63 -549q23 -157 23 -266z" />
    <glyph glyph-name="z" unicode="z" horiz-adv-x="847" 
d="M471 811h-303l22 135h678l-20 -106l-506 -566q-92 -105 -141 -135l-17 -12v-8q68 12 197 12h326l-21 -131h-706l18 84l512 584q107 121 154 149v8q-63 -14 -193 -14z" />
    <glyph glyph-name="braceleft" unicode="{" horiz-adv-x="780" 
d="M442 -315q64 0 136 30l8 -114q-94 -31 -208 -31q-222 0 -171 274l72 414q18 96 -15 127t-98 31h-84l20 119h84q147 0 174 157l68 414q25 133 92 204q68 71 199 70q90 0 174 -30l-47 -115q-57 31 -123 31q-67 0 -101 -41t-49 -127l-73 -418q-18 -106 -66 -148t-131 -53v-8
q76 -10 109 -54t14 -147l-72 -417q-16 -86 4 -127t84 -41z" />
    <glyph glyph-name="bar" unicode="|" horiz-adv-x="460" 
d="M147 -416h-137l314 1786h137z" />
    <glyph glyph-name="braceright" unicode="}" horiz-adv-x="780" 
d="M328 1266q-64 0 -135 -31l-9 115q94 31 191 30q131 0 172 -70t16 -204l-71 -414q-18 -96 14 -127t98 -30h84l-20 -119h-84q-147 0 -174 -158l-68 -414q-24 -134 -92 -204t-199 -70q-90 0 -174 31l47 114q57 -31 123 -31q67 0 101 42q34 41 49 127l73 417q18 106 66 148
t131 53v8q-76 11 -109 55t-14 146l72 418q16 86 -4 127t-84 41z" />
    <glyph glyph-name="asciitilde" unicode="~" horiz-adv-x="720" 
d="M72 522q0 62 45 100q87 75 217 7l98 -56q31 -18 70 -18q66 0 71 92l70 -31q4 -14 2 -60t-45 -90q-42 -42 -102 -42t-121 31l-96 51q-41 23 -66 22q-63 0 -76 -84l-61 29q-6 27 -6 49z" />
    <glyph glyph-name="nbspace" unicode="&#xa0;" horiz-adv-x="313" 
 />
    <glyph glyph-name="exclamdown" unicode="&#xa1;" horiz-adv-x="436" 
d="M385 842q0 -49 -34 -83t-83 -34t-83 34t-33 83q0 49 33 83q34 33 83 33t83 -34t34 -82zM186 -260h-204l200 866h107z" />
    <glyph glyph-name="cent" unicode="&#xa2;" horiz-adv-x="999" 
d="M262 412q0 -240 170 -297l133 762q-135 -19 -219 -151t-84 -314zM102 391q0 256 129 427t357 190l30 168h103l-31 -168q229 -20 289 -234l-152 -74q-27 147 -159 174l-138 -774q167 5 269 181l114 -84q-72 -113 -168 -165t-237 -57l-33 -192h-102l35 201
q-141 27 -224 134q-82 108 -82 273z" />
    <glyph glyph-name="sterling" unicode="&#xa3;" horiz-adv-x="997" 
d="M440 385q0 -94 -43 -163t-108 -89h370q127 0 168 100l109 -61q-72 -172 -283 -172h-633l23 139h100q55 -1 105 55t51 122q0 66 -12 112h-199l16 102h160q-10 61 -10 146q0 170 108 252q110 82 254 82t224 -69t80 -204l-150 -24q-4 172 -174 172q-193 0 -193 -207
q0 -72 15 -148h311l-16 -102h-275q2 -14 2 -43z" />
    <glyph glyph-name="currency" unicode="&#xa4;" horiz-adv-x="964" 
d="M324 562q0 -193 160 -193q80 0 138 84q56 84 56 198q0 174 -158 174q-82 0 -139 -81t-57 -182zM199 539q0 154 80 260l-115 139l78 66l108 -136q84 62 201 62t182 -70l172 148l60 -72l-181 -154q23 -57 23 -125q0 -145 -76 -251l117 -138l-78 -65l-108 131
q-82 -64 -204 -64t-190 74l-168 -143l-59 71l176 152q-18 49 -18 115z" />
    <glyph glyph-name="yen" unicode="&#xa5;" horiz-adv-x="999" 
d="M866 496h-215l-73 -103h278l-8 -102h-313l-50 -291h-159l49 291h-293l8 102h277l-37 103h-230l9 102h184l-141 387h167l111 -332q40 -128 47 -194h8q25 66 111 192l227 334h176l-276 -387h151z" />
    <glyph glyph-name="brokenbar" unicode="&#xa6;" horiz-adv-x="460" 
d="M147 -416h-137l142 801h137zM322 569h-138l140 801h137z" />
    <glyph glyph-name="section" unicode="&#xa7;" horiz-adv-x="808" 
d="M590 476q0 64 -36 104t-148 98q-4 2 -12 5t-11 5q-88 -14 -136 -62t-48 -110q-1 -62 35 -100q36 -36 155 -97q12 -8 19 -10q74 4 128 53q54 50 54 114zM53 500q-1 104 63 168q64 66 165 88q-93 74 -93 202t98 196q98 69 230 69q283 0 283 -248l-146 -17q2 72 -40 109
q-41 37 -113 37t-119 -37t-47 -97t36 -96t152 -96t165 -122q50 -62 50 -154q0 -209 -229 -258q94 -82 94 -209t-98 -195t-252 -67q-303 0 -303 245l133 21q2 -156 180 -156q84 0 138 36t54 100q0 63 -35 103q-36 40 -151 101t-165 117t-50 160z" />
    <glyph glyph-name="dieresis" unicode="&#xa8;" horiz-adv-x="935" 
d="M551 1217q0 45 33 77t79 33q45 0 77 -33q32 -34 32 -78t-33 -77t-77 -33t-78 33q-33 33 -33 78zM164 1219q0 45 33 77t77 33q44 0 78 -32q33 -31 33 -77t-33 -79t-78 -33q-46 0 -78 33t-32 78z" />
    <glyph glyph-name="copyright" unicode="&#xa9;" horiz-adv-x="1429" 
d="M176 602q0 -246 164 -406t402 -161q238 0 401 161q164 160 164 406t-164 408t-402 162q-237 0 -401 -162t-164 -408zM113 602q0 270 182 450t444 179q261 0 445 -179q184 -180 184 -450t-183 -448t-445 -178t-445 178q-182 178 -182 448zM694 205q-137 0 -221 86t-84 233
q0 207 110 341t302 134q215 0 268 -184l-127 -59q-23 137 -160 137q-114 0 -188 -101t-74 -229q0 -127 52 -191t143 -65q127 1 207 142l96 -70q-106 -174 -324 -174z" />
    <glyph glyph-name="ordfeminine" unicode="&#xaa;" horiz-adv-x="808" 
d="M670 680q18 0 53 8l-16 -94q-39 -12 -85 -12t-78 26t-38 64q-78 -100 -194 -100t-184 68q-68 69 -67 191q1 166 99 283t254 117q127 0 176 -111l35 94h112l-98 -485q-8 -49 31 -49zM340 664q72 0 123 49t67 137l21 102q14 72 -20 127q-35 55 -121 55t-152 -82
q-66 -83 -65 -214q-1 -78 37 -126t110 -48z" />
    <glyph glyph-name="guillemotleft" unicode="&#xab;" horiz-adv-x="1019" 
d="M199 477v-8q18 -4 86 -100l174 -248l-103 -80l-295 436l449 436l76 -82l-246 -245q-69 -69 -123 -99zM571 477v-8q18 -4 86 -100l174 -248l-102 -80l-295 436l449 436l75 -82l-245 -245q-69 -69 -123 -99z" />
    <glyph glyph-name="logicalnot" unicode="&#xac;" horiz-adv-x="1015" 
d="M803 551h-721l16 94h836l-68 -385h-114z" />
    <glyph glyph-name="uni00AD" unicode="&#xad;" horiz-adv-x="768" 
d="M143 459l23 131h459l-23 -131h-459z" />
    <glyph glyph-name="registered" unicode="&#xae;" horiz-adv-x="1429" 
d="M176 602q0 -246 164 -406t402 -161q238 0 401 161q164 160 164 406t-164 408t-402 162q-237 0 -401 -162t-164 -408zM113 602q0 270 182 450t444 179q261 0 445 -179q184 -180 184 -450t-183 -448t-445 -178t-445 178q-182 178 -182 448zM758 633q174 0 174 151
q0 98 -117 99h-158l-43 -250h144zM729 535h-131l-51 -291h-129l131 741h285q229 0 229 -190q1 -103 -63 -157t-158 -58v-5q63 -3 96 -31t35 -87l8 -121q4 -59 31 -92h-140q-18 27 -22 82l-6 104q-4 57 -28 81t-87 24z" />
    <glyph glyph-name="macron" unicode="&#xaf;" horiz-adv-x="864" 
d="M678 1155h-514l22 125h514z" />
    <glyph glyph-name="degree" unicode="&#xb0;" horiz-adv-x="567" 
d="M350 1153q-62 0 -104 -47q-42 -48 -41 -112q0 -64 36 -101t97 -37t103 46t42 110t-36 103q-35 38 -97 38zM330 776q-104 0 -160 58t-57 156q0 97 70 169q71 72 175 72q104 1 161 -59q59 -60 59 -156t-72 -168t-176 -72z" />
    <glyph glyph-name="plusminus" unicode="&#xb1;" horiz-adv-x="1101" 
d="M907 100h-835l16 95h836zM174 682h363l51 283h102l-51 -283h371l-17 -94h-370l-56 -312h-102l55 312h-362z" />
    <glyph glyph-name="twosuperior" unicode="&#xb2;" horiz-adv-x="653" 
d="M459 991q0 123 -125 123t-150 -149l-98 51q16 94 89 150t183 56t171 -54q63 -56 63 -145q1 -166 -152 -278q-126 -93 -264 -151v-8h377l-18 -103h-535l18 99q215 121 328 218t113 191z" />
    <glyph glyph-name="threesuperior" unicode="&#xb3;" horiz-adv-x="628" 
d="M537 686q0 -106 -82 -162t-202 -55q-120 0 -178 55t-65 140l115 26q12 -127 129 -127q68 0 111 31t43 91t-43 91t-160 33l16 90q225 10 225 133q0 41 -28 65q-29 24 -78 23q-102 0 -133 -110l-105 41q59 172 250 172q98 0 162 -44t64 -126q0 -81 -54 -131t-151 -60v-6
q164 -18 164 -170z" />
    <glyph glyph-name="acute" unicode="&#xb4;" horiz-adv-x="696" 
d="M297 1085h-133l153 293h215z" />
    <glyph glyph-name="mu" unicode="&#xb5;" 
d="M404 92q88 0 167 76q80 76 103 203l100 575h156l-131 -743q-16 -92 53 -92q27 0 59 8l-20 -113q-45 -16 -98 -16q-173 0 -146 188q-43 -110 -111 -156t-176 -47q-53 0 -97 22t-50 52l-82 -465h-145l233 1362h156l-113 -643q-16 -99 19 -155t123 -56z" />
    <glyph glyph-name="paragraph" unicode="&#xb6;" horiz-adv-x="1044" 
d="M455 -334q-113 0 -203 55l74 144q59 -61 147 -62q121 0 141 121l76 432h-98q-228 0 -330 102t-65 310q76 438 632 438h334l-20 -123h-162l-201 -1132q-49 -285 -325 -285z" />
    <glyph glyph-name="periodcentered" unicode="&#xb7;" horiz-adv-x="581" 
d="M164 545q0 53 37 90t90 37t90 -37t37 -90t-37 -90t-90 -37t-90 37t-37 90z" />
    <glyph glyph-name="periodcentered" unicode="&#x22c5;" horiz-adv-x="581" 
d="M164 545q0 53 37 90t90 37t90 -37t37 -90t-37 -90t-90 -37t-90 37t-37 90z" />
    <glyph glyph-name="cedilla" unicode="&#xb8;" horiz-adv-x="714" 
d="M551 -264q-1 -78 -61 -123t-164 -45t-162 78l47 98q51 -76 131 -76t80 74q0 90 -141 90l67 178h84l-41 -96q82 -18 121 -59t39 -119z" />
    <glyph glyph-name="onesuperior" unicode="&#xb9;" horiz-adv-x="587" 
d="M518 483h-498l19 103h184l86 493l-223 -22l18 104l361 47l-111 -622h183z" />
    <glyph glyph-name="ordmasculine" unicode="&#xba;" horiz-adv-x="731" 
d="M383 1126q-82 0 -139 -80q-58 -80 -58 -182q-1 -194 150 -194q92 0 148 84t57 198q0 174 -158 174zM412 1231q122 0 190 -74q68 -75 68 -219t-93 -256t-253 -111q-119 0 -191 71q-72 70 -72 216q1 146 95 260t256 113z" />
    <glyph glyph-name="guillemotright" unicode="&#xbb;" horiz-adv-x="1019" 
d="M821 477v8q-18 4 -86 101l-174 248l103 79l294 -436l-448 -436l-76 82l246 246q67 67 123 98zM449 477v8q-18 4 -87 101l-174 248l103 79l295 -436l-449 -436l-76 82l246 246q67 67 123 98z" />
    <glyph glyph-name="onequarter" unicode="&#xbc;" horiz-adv-x="1738" 
d="M1413 285l33 186l35 143h-8q-33 -53 -101 -127l-110 -108q-55 -51 -115 -94l-2 -9q29 8 117 9h151zM1358 0l33 188h-369l18 101l437 434h137l-76 -436h123l-19 -99h-122l-33 -188h-129zM389 0l840 1208h121l-838 -1208h-123zM578 483h-498l18 103h185l86 493l-224 -22
l19 104l360 47l-110 -622h182z" />
    <glyph glyph-name="onehalf" unicode="&#xbd;" horiz-adv-x="1738" 
d="M1341 631q-131 0 -155 -150l-99 51q15 94 89 150t184 57q110 0 171 -55q62 -54 62 -144q0 -165 -151 -278q-126 -93 -264 -151v-9h376l-18 -102h-535l19 98q215 121 328 218t112 192q0 123 -119 123zM389 0l840 1208h121l-838 -1208h-123zM578 483h-498l18 103h185
l86 493l-224 -22l19 104l360 47l-110 -622h182z" />
    <glyph glyph-name="threequarters" unicode="&#xbe;" horiz-adv-x="1738" 
d="M1413 285l33 186l35 143h-8q-33 -53 -101 -127l-110 -108q-55 -51 -115 -94l-2 -9q29 8 117 9h151zM1358 0l33 188h-369l18 101l437 434h137l-76 -436h123l-19 -99h-122l-33 -188h-129zM389 0l840 1208h121l-838 -1208h-123zM590 686q0 -106 -82 -162t-202 -55
q-120 0 -178 55t-65 140l115 26q12 -127 129 -127q68 0 111 31t43 91t-43 91t-160 33l16 90q225 10 226 133q0 41 -29 65t-78 23q-102 0 -133 -110l-104 41q59 172 250 172q98 0 161 -44t63 -126q0 -81 -52 -131q-54 -50 -152 -60v-6q164 -18 164 -170z" />
    <glyph glyph-name="questiondown" unicode="&#xbf;" horiz-adv-x="835" 
d="M705 842q0 -49 -34 -83t-83 -34t-83 34t-34 83t34 83q34 33 83 33t83 -34t34 -82zM41 39q0 191 127 297t285 106l32 183h144l-51 -277h-46q-143 0 -236 -73t-93 -222q0 -100 52 -153t148 -54q169 0 226 195l125 -53q-88 -272 -375 -273q-164 0 -251 85t-87 239z" />
    <glyph glyph-name="Agrave" unicode="&#xc0;" horiz-adv-x="1181" 
d="M705 1110h-9q-45 -121 -143 -307l-168 -316h414q-64 307 -80 465t-14 158zM809 1341h-141l-199 238h213zM887 0l-64 356h-506l-186 -356h-172l651 1206h217l226 -1206h-166z" />
    <glyph glyph-name="Aacute" unicode="&#xc1;" horiz-adv-x="1181" 
d="M705 1110h-9q-45 -121 -143 -307l-168 -316h414q-64 307 -80 465t-14 158zM793 1341h-142l127 238h213zM887 0l-64 356h-506l-186 -356h-172l651 1206h217l226 -1206h-166z" />
    <glyph glyph-name="Acircumflex" unicode="&#xc2;" horiz-adv-x="1181" 
d="M713 1595h94l203 -254h-174l-54 70q-19 25 -37 72h-4q7 -7 -50 -62q-56 -55 -89 -80h-182zM705 1110h-9q-45 -121 -143 -307l-168 -316h414q-64 307 -80 465t-14 158zM887 0l-64 356h-506l-186 -356h-172l651 1206h217l226 -1206h-166z" />
    <glyph glyph-name="Atilde" unicode="&#xc3;" horiz-adv-x="1181" 
d="M705 1110h-9q-45 -121 -143 -307l-168 -316h414q-64 307 -80 465t-14 158zM868 1341q-82 1 -164 53t-112 52q-74 0 -80 -100h-98q-16 94 37 162t132 69q79 0 138 -39q32 -19 45 -30t35 -22t28 -12q5 0 13 -2t16 -2q63 0 76 107h104q12 -102 -38 -169t-132 -67zM887 0
l-64 356h-506l-186 -356h-172l651 1206h217l226 -1206h-166z" />
    <glyph glyph-name="Adieresis" unicode="&#xc4;" horiz-adv-x="1181" 
d="M705 1110h-9q-45 -121 -143 -307l-168 -316h414q-64 307 -80 465t-14 158zM438 1454q0 45 33 78t78 33t78 -33t33 -78t-34 -78q-32 -33 -77 -33t-78 33t-33 78zM825 1452q0 45 33 78t79 33t78 -32t32 -78t-33 -79t-78 -33t-78 33t-33 78zM887 0l-64 356h-506l-186 -356
h-172l651 1206h217l226 -1206h-166z" />
    <glyph glyph-name="Aring" unicode="&#xc5;" horiz-adv-x="1181" 
d="M771 1614q-48 0 -82 -37t-34 -87t28 -79t76 -29t81 37t32 86q0 49 -26 79q-27 30 -75 30zM705 1110h-9q-45 -121 -143 -307l-168 -316h414q-64 307 -80 465t-14 158zM567 1487q-1 82 59 142q60 61 147 61t136 -50t49 -132q0 -80 -58 -140t-148 -61q-90 0 -138 49
q-47 49 -47 131zM887 0l-64 356h-506l-186 -356h-172l651 1206h217l226 -1206h-166z" />
    <glyph glyph-name="AE" unicode="&#xc6;" horiz-adv-x="1712" 
d="M1006 1104l-484 -617h373l70 394q31 181 49 223h-8zM811 0l61 356h-452l-279 -356h-182l944 1206h840l-25 -139h-557l-69 -395h493l-24 -140h-494l-70 -393h557l-22 -139h-721z" />
    <glyph glyph-name="Ccedilla" unicode="&#xc7;" horiz-adv-x="1128" 
d="M666 -264q0 -78 -60 -123t-166 -45q-104 0 -161 78l47 98q51 -76 131 -76t80 74q0 90 -142 90l60 156q-162 35 -252 163t-90 314q0 352 177 559t437 207q322 0 391 -285l-160 -65q-18 106 -86 160t-161 55q-199 0 -316 -182t-116 -437q-1 -170 81 -268t234 -98
q110 0 180 39t133 145l125 -70q-141 -250 -457 -250q-29 0 -43 2l-26 -63q82 -18 121 -59t39 -119z" />
    <glyph glyph-name="Egrave" unicode="&#xc8;" horiz-adv-x="983" 
d="M725 1341h-141l-199 238h213zM825 139l-22 -139h-721l211 1206h721l-25 -139h-557l-70 -395h494l-25 -140h-493l-70 -393h557z" />
    <glyph glyph-name="Eacute" unicode="&#xc9;" horiz-adv-x="983" 
d="M709 1341h-142l127 238h213zM825 139l-22 -139h-721l211 1206h721l-25 -139h-557l-70 -395h494l-25 -140h-493l-70 -393h557z" />
    <glyph glyph-name="Ecircumflex" unicode="&#xca;" horiz-adv-x="983" 
d="M629 1595h94l203 -254h-174l-54 70q-27 34 -36 72h-5q-14 -29 -61 -72l-78 -70h-182zM825 139l-22 -139h-721l211 1206h721l-25 -139h-557l-70 -395h494l-25 -140h-493l-70 -393h557z" />
    <glyph glyph-name="Edieresis" unicode="&#xcb;" horiz-adv-x="983" 
d="M741 1452q0 45 33 78t78 33t78 -32t33 -78t-33 -79t-78 -33t-78 33t-33 78zM354 1454q0 45 33 78t79 33t78 -33t32 -78t-34 -78q-32 -33 -77 -33t-78 33t-33 78zM825 139l-22 -139h-721l211 1206h721l-25 -139h-557l-70 -395h494l-25 -140h-493l-70 -393h557z" />
    <glyph glyph-name="Igrave" unicode="&#xcc;" horiz-adv-x="487" 
d="M473 1341h-141l-199 238h213zM293 1206h164l-211 -1206h-164z" />
    <glyph glyph-name="Iacute" unicode="&#xcd;" horiz-adv-x="487" 
d="M457 1341h-142l127 238h213zM293 1206h164l-211 -1206h-164z" />
    <glyph glyph-name="Icircumflex" unicode="&#xce;" horiz-adv-x="487" 
d="M379 1595h94l203 -254h-174l-53 70q-28 36 -37 72h-4q-14 -29 -62 -72l-78 -70h-182zM293 1206h164l-211 -1206h-164z" />
    <glyph glyph-name="Idieresis" unicode="&#xcf;" horiz-adv-x="487" 
d="M489 1452q0 45 33 78t79 33t78 -32t32 -78t-33 -79t-78 -33t-78 33t-33 78zM102 1454q0 45 33 78t78 33t78 -33t33 -78t-33 -78t-78 -33t-78 33t-33 78zM293 1206h164l-211 -1206h-164z" />
    <glyph glyph-name="Eth" unicode="&#xd0;" horiz-adv-x="1204" 
d="M463 133q213 0 350 150t137 454q0 336 -354 336h-162l-72 -401h259l-25 -140h-258l-70 -399h195zM471 0h-389l92 532h-133l25 140h133l94 534h328q253 0 377 -119t124 -327q0 -561 -416 -718q-112 -42 -235 -42z" />
    <glyph glyph-name="Ntilde" unicode="&#xd1;" horiz-adv-x="1255" 
d="M881 1341q-58 0 -105 27q-6 4 -21 13l-23 13q-8 4 -24 17q-16 12 -24 15l-24 12t-42 8q-74 0 -79 -100h-99q-16 94 37 162t146 69q14 0 27 -2q12 -2 22 -3t22 -6t18 -7q6 -3 18 -11q13 -8 16 -9q2 -1 18 -11t18 -12q68 -45 103 -46q63 0 76 107h104q12 -102 -38 -169
t-146 -67zM463 1206l325 -712q60 -130 91 -236l10 -37h8q16 145 43 297l121 688h164l-211 -1206h-166l-334 709q-48 101 -92 233l-12 39h-9q-8 -141 -34 -293l-121 -688h-164l211 1206h170z" />
    <glyph glyph-name="Ograve" unicode="&#xd2;" horiz-adv-x="1261" 
d="M836 1341h-142l-198 238h213zM711 1094q-199 0 -316 -180t-116 -437q-1 -170 81 -268t234 -98q198 0 314 180t116 436q0 163 -76 265t-237 102zM575 -25q-217 -1 -339 135t-123 355q0 352 177 559t437 207q217 0 340 -136t123 -356q0 -352 -178 -558t-437 -206z" />
    <glyph glyph-name="Oacute" unicode="&#xd3;" horiz-adv-x="1261" 
d="M819 1341h-141l127 238h213zM711 1094q-199 0 -316 -180t-116 -437q-1 -170 81 -268t234 -98q198 0 314 180t116 436q0 163 -76 265t-237 102zM575 -25q-217 -1 -339 135t-123 355q0 352 177 559t437 207q217 0 340 -136t123 -356q0 -352 -178 -558t-437 -206z" />
    <glyph glyph-name="Ocircumflex" unicode="&#xd4;" horiz-adv-x="1261" 
d="M741 1595h95l202 -254h-174l-53 70q-28 36 -37 72h-4q-14 -29 -61 -72l-78 -70h-182zM711 1094q-199 0 -316 -180t-116 -437q-1 -170 81 -268t234 -98q198 0 314 180t116 436q0 163 -76 265t-237 102zM575 -25q-217 -1 -339 135t-123 355q0 352 177 559t437 207
q217 0 340 -136t123 -356q0 -352 -178 -558t-437 -206z" />
    <glyph glyph-name="Otilde" unicode="&#xd5;" horiz-adv-x="1261" 
d="M883 1341q-58 0 -105 27q-6 4 -21 13l-23 13q-8 4 -24 17q-16 12 -24 15l-24 12t-41 8q-74 0 -80 -100h-99q-16 94 37 162t146 69q14 0 27 -2q12 -2 22 -3t22 -6t18 -7q6 -3 18 -11t16 -9t19 -11t17 -12q68 -45 103 -46q63 0 76 107h104q12 -102 -38 -169t-146 -67z
M711 1094q-199 0 -316 -180t-116 -437q-1 -170 81 -268t234 -98q198 0 314 180t116 436q0 163 -76 265t-237 102zM575 -25q-217 -1 -339 135t-123 355q0 352 177 559t437 207q217 0 340 -136t123 -356q0 -352 -178 -558t-437 -206z" />
    <glyph glyph-name="Odieresis" unicode="&#xd6;" horiz-adv-x="1261" 
d="M852 1452q0 45 33 78t78 33t77 -32t33 -78q0 -46 -33 -79q-34 -33 -78 -33t-77 33t-33 78zM465 1454q0 45 33 78q32 33 78 33t78 -33t32 -78t-33 -78t-78 -33t-77 33t-33 78zM711 1094q-199 0 -316 -180t-116 -437q-1 -170 81 -268t234 -98q198 0 314 180t116 436
q0 163 -76 265t-237 102zM575 -25q-217 -1 -339 135t-123 355q0 352 177 559t437 207q217 0 340 -136t123 -356q0 -352 -178 -558t-437 -206z" />
    <glyph glyph-name="multiply" unicode="&#xd7;" horiz-adv-x="972" 
d="M76 227l334 285l-222 274l78 68l223 -274l342 288l64 -75l-342 -291l244 -289l-78 -68l-242 289l-338 -284z" />
    <glyph glyph-name="Oslash" unicode="&#xd8;" horiz-adv-x="1261" 
d="M711 1094q-199 0 -316 -180t-116 -437q0 -88 20 -151l647 665q-81 103 -235 103zM1024 727q0 84 -20 147l-648 -663q84 -100 238 -100q198 0 314 180t116 436zM113 465q0 352 177 559t437 207q203 0 328 -125l123 125l92 -84l-140 -143q59 -115 60 -265q0 -352 -177 -558
t-438 -206q-203 0 -329 123l-125 -127l-86 82l139 144q-61 111 -61 268z" />
    <glyph glyph-name="Ugrave" unicode="&#xd9;" horiz-adv-x="1191" 
d="M815 1341h-141l-199 238h213zM1018 1206h164l-146 -827q-70 -403 -506 -404q-206 0 -320 116t-71 360l131 755h164l-135 -774q-29 -166 41 -245t208 -79t220 70t111 234z" />
    <glyph glyph-name="Uacute" unicode="&#xda;" horiz-adv-x="1191" 
d="M801 1341h-142l127 238h213zM1018 1206h164l-146 -827q-70 -403 -506 -404q-206 0 -320 116t-71 360l131 755h164l-135 -774q-29 -166 41 -245t208 -79t220 70t111 234z" />
    <glyph glyph-name="Ucircumflex" unicode="&#xdb;" horiz-adv-x="1191" 
d="M721 1595h94l203 -254h-174l-53 70q-28 36 -37 72h-4q-14 -29 -62 -72l-78 -70h-182zM1018 1206h164l-146 -827q-70 -403 -506 -404q-206 0 -320 116t-71 360l131 755h164l-135 -774q-29 -166 41 -245t208 -79t220 70t111 234z" />
    <glyph glyph-name="Udieresis" unicode="&#xdc;" horiz-adv-x="1191" 
d="M831 1452q0 45 33 78t78 33t78 -32t33 -78t-33 -79t-78 -33t-78 33t-33 78zM444 1454q0 45 33 78t79 33t78 -33t32 -78t-33 -78t-78 -33t-78 33t-33 78zM1018 1206h164l-146 -827q-70 -403 -506 -404q-206 0 -320 116t-71 360l131 755h164l-135 -774q-29 -166 41 -245
t208 -79t220 70t111 234z" />
    <glyph glyph-name="Yacute" unicode="&#xdd;" horiz-adv-x="1011" 
d="M717 1341h-142l127 238h213zM342 1206l139 -413q40 -127 45 -187l2 -22h9q25 78 106 207l266 415h174l-487 -731l-82 -475h-164l82 475l-258 731h168z" />
    <glyph glyph-name="Thorn" unicode="&#xde;" horiz-adv-x="999" 
d="M590 979q188 0 278 -74t90 -227q0 -212 -129 -318t-344 -106h-194l-45 -254h-164l211 1206h164l-41 -227h174zM494 385q297 0 297 281q-1 92 -53 136t-167 44h-178l-80 -461h181z" />
    <glyph glyph-name="germandbls" unicode="&#xdf;" horiz-adv-x="1071" 
d="M701 1382q169 0 249 -78t80 -213q0 -134 -84 -213t-209 -98v-8q125 -16 190 -101t64 -222q0 -223 -114 -349q-115 -125 -291 -125q-205 0 -254 148l108 96q29 -125 152 -125q100 0 170 86t69 260q0 274 -262 275h-84l23 125h72q137 0 216 62t78 179q0 82 -43 131
q-43 50 -143 50t-176 -68q-74 -68 -104 -244l-203 -1163q-23 -127 -82 -173t-164 -46t-164 53l37 123q58 -51 108 -51q50 1 74 21t33 75l207 1172q39 217 158 319t289 102z" />
    <glyph glyph-name="agrave" unicode="&#xe0;" horiz-adv-x="1075" 
d="M688 1085h-133l-236 293h216zM895 111q27 0 59 8l-20 -113q-44 -16 -110 -16t-104 43t-32 125q-82 -182 -289 -183q-141 1 -229 103t-88 284q0 250 131 428t337 179q206 0 243 -183l51 160h129l-131 -743q-16 -92 53 -92zM561 846q-141 0 -234 -131t-94 -334
q1 -125 55 -201t157 -76t178 78q73 78 96 213l29 160q20 115 -29 203t-158 88z" />
    <glyph glyph-name="aacute" unicode="&#xe1;" horiz-adv-x="1075" 
d="M655 1085h-133l154 293h215zM895 111q27 0 59 8l-20 -113q-44 -16 -110 -16t-104 43t-32 125q-82 -182 -289 -183q-141 1 -229 103t-88 284q0 250 131 428t337 179q206 0 243 -183l51 160h129l-131 -743q-16 -92 53 -92zM561 846q-141 0 -234 -131t-94 -334
q1 -125 55 -201t157 -76t178 78q73 78 96 213l29 160q20 115 -29 203t-158 88z" />
    <glyph glyph-name="acircumflex" unicode="&#xe2;" horiz-adv-x="1075" 
d="M594 1378h86l199 -293h-162l-58 91q-23 38 -34 81h-9q-16 -33 -63 -81l-90 -91h-170zM895 111q27 0 59 8l-20 -113q-44 -16 -110 -16t-104 43t-32 125q-82 -182 -289 -183q-141 1 -229 103t-88 284q0 250 131 428t337 179q206 0 243 -183l51 160h129l-131 -743
q-16 -92 53 -92zM561 846q-141 0 -234 -131t-94 -334q1 -125 55 -201t157 -76t178 78q73 78 96 213l29 160q20 115 -29 203t-158 88z" />
    <glyph glyph-name="atilde" unicode="&#xe3;" horiz-adv-x="1075" 
d="M748 1087q-58 0 -105 27q-6 4 -21 13l-22 13q-8 4 -26 17q-18 12 -24 15q-7 4 -23 12t-42 8q-74 0 -79 -100h-99q-16 94 37 162t145 69q13 0 27 -2t24 -3t21 -6t17 -7q6 -3 19 -11t16 -9t19 -11t17 -12q68 -45 103 -45q63 0 75 106h105q12 -102 -38 -169t-146 -67z
M895 111q27 0 59 8l-20 -113q-44 -16 -110 -16t-104 43t-32 125q-82 -182 -289 -183q-141 1 -229 103t-88 284q0 250 131 428t337 179q206 0 243 -183l51 160h129l-131 -743q-16 -92 53 -92zM561 846q-141 0 -234 -131t-94 -334q1 -125 55 -201t157 -76t178 78q73 78 96 213
l29 160q20 115 -29 203t-158 88z" />
    <glyph glyph-name="adieresis" unicode="&#xe4;" horiz-adv-x="1075" 
d="M705 1217q1 45 33 77t77 33q45 0 78 -33q33 -34 33 -78t-33 -77t-78 -33t-78 33q-32 33 -32 78zM317 1219q0 45 33 77t79 33q46 0 78 -32q32 -31 32 -77t-33 -79t-78 -33t-78 33t-33 78zM895 111q27 0 59 8l-20 -113q-44 -16 -110 -16t-104 43t-32 125
q-82 -182 -289 -183q-141 1 -229 103t-88 284q0 250 131 428t337 179q206 0 243 -183l51 160h129l-131 -743q-16 -92 53 -92zM561 846q-141 0 -234 -131t-94 -334q1 -125 55 -201t157 -76t178 78q73 78 96 213l29 160q20 115 -29 203t-158 88z" />
    <glyph glyph-name="aring" unicode="&#xe5;" horiz-adv-x="1075" 
d="M640 1384q-48 0 -82 -36t-34 -87q0 -50 28 -79t76 -29t81 37t32 86q0 49 -26 79q-27 29 -75 29zM436 1257q0 83 60 143t146 60q87 0 136 -50t49 -131t-58 -141q-59 -60 -149 -60t-137 48q-47 49 -47 131zM895 111q27 0 59 8l-20 -113q-44 -16 -110 -16t-104 43t-32 125
q-82 -182 -289 -183q-141 1 -229 103t-88 284q0 250 131 428t337 179q206 0 243 -183l51 160h129l-131 -743q-16 -92 53 -92zM561 846q-141 0 -234 -131t-94 -334q1 -125 55 -201t157 -76t178 78q73 78 96 213l29 160q20 115 -29 203t-158 88z" />
    <glyph glyph-name="ae" unicode="&#xe6;" horiz-adv-x="1503" 
d="M1292 635q0 90 -50 150q-50 61 -152 61t-176 -83t-105 -206h473q10 29 10 78zM645 358q0 56 2 74q-422 -4 -422 -205q0 -135 152 -135q186 0 282 154q-14 56 -14 112zM1006 96q114 0 166 40t81 122l142 -35q-49 -137 -145 -192t-244 -56q-209 0 -304 160
q-104 -160 -346 -160q-141 0 -213 65t-71 179q0 334 592 338q12 47 28 94q16 96 -28 145q-45 48 -134 48q-174 0 -215 -160l-143 21q35 139 141 201t240 63q209 0 266 -121q125 121 291 121q166 1 249 -97t83 -225t-41 -215h-610q-12 -136 45 -236q56 -100 170 -100z" />
    <glyph glyph-name="ccedilla" unicode="&#xe7;" horiz-adv-x="901" 
d="M545 -264q-1 -78 -61 -123t-164 -45t-162 78l47 98q51 -76 131 -76t80 74q0 90 -142 90l60 158q-116 31 -184 130t-68 254q0 335 216 507q112 88 261 88q301 0 301 -297l-145 -25q-4 193 -174 193q-141 0 -225 -136t-83 -296q1 -158 59 -235t165 -77q168 0 233 193
l144 -33q-104 -281 -398 -281l-24 2l-27 -63q82 -18 121 -59t39 -119z" />
    <glyph glyph-name="egrave" unicode="&#xe8;" horiz-adv-x="940" 
d="M629 1085h-133l-236 293h215zM729 635q0 90 -50 150q-51 61 -153 61t-176 -80t-104 -203h473q10 29 10 72zM457 96q100 0 152 40t81 122l141 -35q-49 -137 -145 -192t-254 -55t-254 108q-96 109 -96 293q0 272 138 432t316 160q178 1 260 -97q83 -98 83 -222t-41 -212
h-611q-13 -138 45 -240t185 -102z" />
    <glyph glyph-name="eacute" unicode="&#xe9;" horiz-adv-x="940" 
d="M596 1085h-133l153 293h215zM729 635q0 90 -50 150q-51 61 -153 61t-176 -80t-104 -203h473q10 29 10 72zM457 96q100 0 152 40t81 122l141 -35q-49 -137 -145 -192t-254 -55t-254 108q-96 109 -96 293q0 272 138 432t316 160q178 1 260 -97q83 -98 83 -222t-41 -212
h-611q-13 -138 45 -240t185 -102z" />
    <glyph glyph-name="ecircumflex" unicode="&#xea;" horiz-adv-x="940" 
d="M535 1378h86l198 -293h-162l-57 91q-25 41 -35 81h-8q-16 -33 -63 -81l-91 -91h-170zM729 635q0 90 -50 150q-51 61 -153 61t-176 -80t-104 -203h473q10 29 10 72zM457 96q100 0 152 40t81 122l141 -35q-49 -137 -145 -192t-254 -55t-254 108q-96 109 -96 293
q0 272 138 432t316 160q178 1 260 -97q83 -98 83 -222t-41 -212h-611q-13 -138 45 -240t185 -102z" />
    <glyph glyph-name="edieresis" unicode="&#xeb;" horiz-adv-x="940" 
d="M645 1217q0 45 33 77t79 33q46 0 78 -33q31 -34 31 -78t-32 -77t-78 -33q-45 0 -78 33t-33 78zM258 1219q0 45 33 77t78 33q45 0 77 -32q32 -31 33 -77q0 -46 -33 -79q-34 -33 -78 -33t-77 33t-33 78zM729 635q0 90 -50 150q-51 61 -153 61t-176 -80t-104 -203h473
q10 29 10 72zM457 96q100 0 152 40t81 122l141 -35q-49 -137 -145 -192t-254 -55t-254 108q-96 109 -96 293q0 272 138 432t316 160q178 1 260 -97q83 -98 83 -222t-41 -212h-611q-13 -138 45 -240t185 -102z" />
    <glyph glyph-name="igrave" unicode="&#xec;" horiz-adv-x="497" 
d="M317 111q27 0 60 8l-21 -113q-45 -16 -98 -16q-186 0 -149 205l131 751h155l-131 -743q-16 -92 53 -92zM434 1085h-133l-235 293h215z" />
    <glyph glyph-name="iacute" unicode="&#xed;" horiz-adv-x="497" 
d="M317 111q27 0 60 8l-21 -113q-45 -16 -98 -16q-186 0 -149 205l131 751h155l-131 -743q-16 -92 53 -92zM399 1085h-133l154 293h215z" />
    <glyph glyph-name="icircumflex" unicode="&#xee;" horiz-adv-x="497" 
d="M340 1378h86l199 -293h-162l-57 91q-25 41 -35 81h-9q-16 -33 -63 -81l-90 -91h-170zM317 111q27 0 60 8l-21 -113q-45 -16 -98 -16q-186 0 -149 205l131 751h155l-131 -743q-16 -92 53 -92z" />
    <glyph glyph-name="idieresis" unicode="&#xef;" horiz-adv-x="497" 
d="M317 111q27 0 60 8l-21 -113q-45 -16 -98 -16q-186 0 -149 205l131 751h155l-131 -743q-16 -92 53 -92zM451 1217q1 45 33 77t77 33q45 0 78 -33q33 -34 33 -78t-33 -77t-78 -33t-78 33q-32 33 -32 78zM63 1219q0 45 33 77t79 33q46 0 78 -32q32 -31 32 -77t-33 -79
t-78 -33t-78 33t-33 78z" />
    <glyph glyph-name="eth" unicode="&#xf0;" horiz-adv-x="999" 
d="M541 819q-137 0 -223 -128q-86 -129 -85 -287t61 -234t167 -76q137 0 221 133t84 314q0 278 -225 278zM918 586q0 -272 -126 -442t-352 -169q-162 -1 -260 103t-98 291q0 241 125 409t332 168q72 0 134 -34t89 -101h8q-47 174 -160 287l-338 -86l-20 82l278 71
q-129 90 -301 127l111 84q211 -51 344 -170l176 47l23 -84l-131 -34q166 -201 166 -549z" />
    <glyph glyph-name="ntilde" unicode="&#xf1;" horiz-adv-x="1034" 
d="M752 1087q-58 0 -105 27q-6 4 -21 13l-22 13q-8 4 -25 17q-17 12 -25 15q-8 4 -23 12q-16 8 -42 8q-74 0 -79 -100h-99q-16 94 37 162t146 69q14 0 27 -2t23 -3t21 -6t17 -7q6 -3 19 -11t16 -9t19 -11t17 -12q68 -45 103 -45q63 0 75 106h105q12 -102 -38 -169t-146 -67z
M883 111q27 0 59 8l-20 -113q-45 -16 -99 -16q-186 0 -149 205l82 458q33 184 -129 185q-95 0 -183 -76t-116 -244l-90 -518h-156l166 946h135l-14 -192q104 215 305 215q114 1 178 -57t63 -167q0 -47 -8 -94l-78 -448q-16 -92 54 -92z" />
    <glyph glyph-name="ograve" unicode="&#xf2;" horiz-adv-x="1005" 
d="M664 1085h-134l-235 293h215zM543 840q-139 0 -225 -131t-85 -294t61 -241t167 -78q139 0 223 136t84 296t-59 236q-60 76 -166 76zM567 969q168 0 262 -109t95 -297q0 -248 -130 -418t-354 -170q-162 -1 -260 105t-98 297q0 248 130 420t355 172z" />
    <glyph glyph-name="oacute" unicode="&#xf3;" horiz-adv-x="1005" 
d="M631 1085h-133l153 293h215zM543 840q-139 0 -225 -131t-85 -294t61 -241t167 -78q139 0 223 136t84 296t-59 236q-60 76 -166 76zM567 969q168 0 262 -109t95 -297q0 -248 -130 -418t-354 -170q-162 -1 -260 105t-98 297q0 248 130 420t355 172z" />
    <glyph glyph-name="ocircumflex" unicode="&#xf4;" horiz-adv-x="1005" 
d="M569 1378h86l199 -293h-162l-57 91q-25 41 -35 81h-8q-16 -33 -64 -81l-90 -91h-170zM543 840q-139 0 -225 -131t-85 -294t61 -241t167 -78q139 0 223 136t84 296t-59 236q-60 76 -166 76zM567 969q168 0 262 -109t95 -297q0 -248 -130 -418t-354 -170q-162 -1 -260 105
t-98 297q0 248 130 420t355 172z" />
    <glyph glyph-name="otilde" unicode="&#xf5;" horiz-adv-x="1005" 
d="M723 1087q-58 0 -105 27q-6 4 -21 13l-23 13q-8 4 -24 17q-16 12 -24 15l-24 12t-41 8q-74 0 -80 -100h-98q-15 94 37 162t145 69q13 0 27 -2t23 -3t27 -8q18 -8 30 -16t16 -9t19 -11l18 -12q68 -45 102 -45q63 0 76 106h104q12 -102 -38 -169t-146 -67zM543 840
q-139 0 -225 -131t-85 -294t61 -241t167 -78q139 0 223 136t84 296t-59 236q-60 76 -166 76zM567 969q168 0 262 -109t95 -297q0 -248 -130 -418t-354 -170q-162 -1 -260 105t-98 297q0 248 130 420t355 172z" />
    <glyph glyph-name="odieresis" unicode="&#xf6;" horiz-adv-x="1005" 
d="M680 1217q0 45 33 77t78 33q45 0 77 -33q32 -34 33 -78q0 -44 -33 -77q-34 -33 -78 -33t-77 33t-33 78zM293 1219q0 45 33 77q32 32 78 33q46 0 78 -32q32 -31 32 -77t-33 -79t-78 -33t-77 33t-33 78zM543 840q-139 0 -225 -131t-85 -294t61 -241t167 -78q139 0 223 136
t84 296t-59 236q-60 76 -166 76zM567 969q168 0 262 -109t95 -297q0 -248 -130 -418t-354 -170q-162 -1 -260 105t-98 297q0 248 130 420t355 172z" />
    <glyph glyph-name="divide" unicode="&#xf7;" horiz-adv-x="1015" 
d="M666 859q0 -35 -27 -61t-63 -26t-61 26q-26 26 -26 61q0 36 26 63q26 26 62 26q37 0 63 -26t26 -63zM510 144q0 -36 -27 -62t-63 -25q-36 -1 -60 25q-26 26 -26 62t25 62q26 26 62 26q37 0 63 -26t26 -62zM918 461h-836l16 94h836z" />
    <glyph glyph-name="oslash" unicode="&#xf8;" horiz-adv-x="1005" 
d="M461 96q139 0 223 136t84 321q0 23 -4 68l-465 -455q58 -70 162 -70zM533 840q-129 0 -215 -131t-85 -314q0 -66 13 -114l475 467q-59 92 -188 92zM567 969q170 0 264 -113l113 111l84 -88l-135 -131q31 -80 31 -185q0 -248 -130 -418t-354 -170q-150 0 -243 88l-97 -92
l-86 82l111 109q-43 88 -43 215q0 248 130 420t355 172z" />
    <glyph glyph-name="ugrave" unicode="&#xf9;" 
d="M676 1085h-133l-236 293h215zM350 -25q-146 1 -206 93t-31 264l106 614h156l-113 -643q-16 -99 19 -155t123 -56t167 76q80 76 103 203l100 575h156l-131 -743q-16 -92 53 -92q27 0 59 8l-20 -113q-45 -16 -98 -16q-173 0 -146 188q-80 -203 -297 -203z" />
    <glyph glyph-name="uacute" unicode="&#xfa;" 
d="M643 1085h-133l154 293h215zM350 -25q-146 1 -206 93t-31 264l106 614h156l-113 -643q-16 -99 19 -155t123 -56t167 76q80 76 103 203l100 575h156l-131 -743q-16 -92 53 -92q27 0 59 8l-20 -113q-45 -16 -98 -16q-173 0 -146 188q-80 -203 -297 -203z" />
    <glyph glyph-name="ucircumflex" unicode="&#xfb;" 
d="M582 1378h86l198 -293h-161l-58 91q-25 41 -35 81h-8q-16 -33 -63 -81l-90 -91h-170zM350 -25q-146 1 -206 93t-31 264l106 614h156l-113 -643q-16 -99 19 -155t123 -56t167 76q80 76 103 203l100 575h156l-131 -743q-16 -92 53 -92q27 0 59 8l-20 -113q-45 -16 -98 -16
q-173 0 -146 188q-80 -203 -297 -203z" />
    <glyph glyph-name="udieresis" unicode="&#xfc;" 
d="M692 1217q0 45 33 77t78 33q45 0 78 -33q33 -34 33 -78t-34 -77q-32 -33 -77 -33t-78 33t-33 78zM305 1219q0 45 33 77t79 33q46 0 78 -32q31 -31 31 -77t-32 -79t-78 -33q-45 0 -78 33t-33 78zM350 -25q-146 1 -206 93t-31 264l106 614h156l-113 -643q-16 -99 19 -155
t123 -56t167 76q80 76 103 203l100 575h156l-131 -743q-16 -92 53 -92q27 0 59 8l-20 -113q-45 -16 -98 -16q-173 0 -146 188q-80 -203 -297 -203z" />
    <glyph glyph-name="yacute" unicode="&#xfd;" horiz-adv-x="856" 
d="M547 1085h-133l153 293h215zM342 131v-33h8q29 113 123 297l279 551h166l-560 -1061q-100 -189 -187 -253t-185 -64t-160 35l33 116q146 -79 254 26q59 58 131 200l-152 1001h164l63 -549q23 -157 23 -266z" />
    <glyph glyph-name="thorn" unicode="&#xfe;" horiz-adv-x="1071" 
d="M680 969q150 -1 230 -101t79 -288q0 -260 -128 -432t-341 -173q-102 -1 -171 51t-85 130l-100 -572h-154l312 1784h151l-104 -604q98 205 311 205zM508 86q145 0 232 140t87 347q0 127 -51 199t-152 72t-185 -84t-107 -219l-33 -189q-20 -96 38 -181t171 -85z" />
    <glyph glyph-name="ydieresis" unicode="&#xff;" horiz-adv-x="856" 
d="M596 1217q0 45 33 77t79 33q46 0 78 -33q32 -34 31 -78q0 -44 -33 -77q-34 -33 -78 -33t-77 33t-33 78zM209 1219q0 45 33 77q34 32 78 33q44 0 77 -32q33 -31 33 -77t-33 -79t-78 -33t-77 33t-33 78zM342 131v-33h8q29 113 123 297l279 551h166l-560 -1061
q-100 -189 -187 -253t-185 -64t-160 35l33 116q146 -79 254 26q59 58 131 200l-152 1001h164l63 -549q23 -157 23 -266z" />
    <glyph glyph-name="Amacron" unicode="&#x100;" horiz-adv-x="1181" 
d="M705 1110h-9q-45 -121 -143 -307l-168 -316h414q-64 307 -80 465t-14 158zM999 1386h-514l21 121h514zM887 0l-64 356h-506l-186 -356h-172l651 1206h217l226 -1206h-166z" />
    <glyph glyph-name="amacron" unicode="&#x101;" horiz-adv-x="1075" 
d="M866 1155h-514l23 125h514zM895 111q27 0 59 8l-20 -113q-44 -16 -110 -16t-104 43t-32 125q-82 -182 -289 -183q-141 1 -229 103t-88 284q0 250 131 428t337 179q206 0 243 -183l51 160h129l-131 -743q-16 -92 53 -92zM561 846q-141 0 -234 -131t-94 -334
q1 -125 55 -201t157 -76t178 78q73 78 96 213l29 160q20 115 -29 203t-158 88z" />
    <glyph glyph-name="Abreve" unicode="&#x102;" horiz-adv-x="1181" 
d="M705 1110h-9q-45 -121 -143 -307l-168 -316h414q-64 307 -80 465t-14 158zM728 1335q-124 0 -183 70t-37 188h125q-5 -69 21 -105t96 -36q129 0 168 141h124q-22 -119 -106 -189t-208 -69zM887 0l-64 356h-506l-186 -356h-172l651 1206h217l226 -1206h-166z" />
    <glyph glyph-name="abreve" unicode="&#x103;" horiz-adv-x="1075" 
d="M580 1083q-125 0 -184 75q-58 75 -36 204h125q-6 -80 17 -120q22 -40 98 -40t114 40t58 120h125q-23 -129 -107 -204t-210 -75zM895 111q27 0 59 8l-20 -113q-44 -16 -110 -16t-104 43t-32 125q-82 -182 -289 -183q-141 1 -229 103t-88 284q0 250 131 428t337 179
q206 0 243 -183l51 160h129l-131 -743q-16 -92 53 -92zM561 846q-141 0 -234 -131t-94 -334q1 -125 55 -201t157 -76t178 78q73 78 96 213l29 160q20 115 -29 203t-158 88z" />
    <glyph glyph-name="Aogonek" unicode="&#x104;" horiz-adv-x="1181" 
d="M705 1110h-9q-45 -121 -143 -307l-168 -316h414q-64 307 -80 465t-14 158zM535 -242q0 133 107 224q108 90 228 106l-47 268h-506l-186 -356h-172l651 1206h217l226 -1206h-86q-117 0 -207 -62t-90 -163q0 -45 26 -73t70 -28q88 0 133 88l59 -71q-61 -123 -217 -123
q-100 0 -153 51t-53 139z" />
    <glyph glyph-name="aogonek" unicode="&#x105;" horiz-adv-x="1075" 
d="M561 846q-141 0 -234 -131t-94 -334q1 -125 55 -201t157 -76t178 78q73 78 96 213l29 160q20 115 -29 203t-158 88zM494 -237q0 93 67 166q68 73 158 106q-37 59 -31 123q-41 -86 -119 -134t-170 -49q-141 1 -229 103t-88 284q0 250 131 428t337 179q206 0 243 -183
l51 160h129l-131 -743q-16 -92 53 -92q27 0 59 8l-20 -113q-305 -43 -305 -231q1 -45 27 -73t69 -28q88 0 133 88l60 -71q-61 -123 -218 -123q-100 0 -153 51t-53 144z" />
    <glyph glyph-name="Cacute" unicode="&#x106;" horiz-adv-x="1128" 
d="M803 1341h-141l126 238h213zM575 -25q-217 -1 -339 135t-123 355q0 352 177 559t437 207q322 0 391 -285l-160 -65q-18 106 -86 160t-161 55q-199 0 -316 -182t-116 -437q-1 -170 81 -268t234 -98q110 0 180 39t133 145l125 -70q-141 -250 -457 -250z" />
    <glyph glyph-name="cacute" unicode="&#x107;" horiz-adv-x="901" 
d="M637 1085h-133l153 293h215zM436 -25q-160 -1 -257 105t-97 278q0 352 216 523q112 88 261 88q301 0 301 -297l-145 -25q-4 193 -174 193q-141 0 -225 -136t-83 -296q1 -158 59 -235t165 -77q167 0 233 193l144 -33q-104 -281 -398 -281z" />
    <glyph glyph-name="Ccircumflex" unicode="&#x108;" horiz-adv-x="1128" 
d="M725 1595h94l203 -254h-174l-53 70q-28 36 -37 72h-4q-14 -29 -62 -72l-78 -70h-182zM575 -25q-217 -1 -339 135t-123 355q0 352 177 559t437 207q322 0 391 -285l-160 -65q-18 106 -86 160t-161 55q-199 0 -316 -182t-116 -437q-1 -170 81 -268t234 -98q110 0 180 39
t133 145l125 -70q-141 -250 -457 -250z" />
    <glyph glyph-name="ccircumflex" unicode="&#x109;" horiz-adv-x="901" 
d="M575 1378h87l198 -293h-162l-57 91q-25 41 -35 81h-8q-16 -33 -63 -81l-91 -91h-170zM436 -25q-160 -1 -257 105t-97 278q0 352 216 523q112 88 261 88q301 0 301 -297l-145 -25q-4 193 -174 193q-141 0 -225 -136t-83 -296q1 -158 59 -235t165 -77q167 0 233 193
l144 -33q-104 -281 -398 -281z" />
    <glyph glyph-name="Cdotaccent" unicode="&#x10a;" horiz-adv-x="1128" 
d="M647 1486q0 46 32 79t78 33t79 -34q32 -32 32 -78t-32 -79t-79 -33q-46 0 -78 33t-32 79zM575 -25q-217 -1 -339 135t-123 355q0 352 177 559t437 207q322 0 391 -285l-160 -65q-18 106 -86 160t-161 55q-199 0 -316 -182t-116 -437q-1 -170 81 -268t234 -98
q110 0 180 39t133 145l125 -70q-141 -250 -457 -250z" />
    <glyph glyph-name="cdotaccent" unicode="&#x10b;" horiz-adv-x="901" 
d="M707 1254q0 -46 -33 -78t-79 -33q-46 1 -78 33t-32 78t32 79t78 33t79 -33t33 -79zM436 -25q-160 -1 -257 105t-97 278q0 352 216 523q112 88 261 88q301 0 301 -297l-145 -25q-4 193 -174 193q-141 0 -225 -136t-83 -296q1 -158 59 -235t165 -77q167 0 233 193l144 -33
q-104 -281 -398 -281z" />
    <glyph glyph-name="Ccaron" unicode="&#x10c;" horiz-adv-x="1128" 
d="M782 1341h-94l-203 254h174l54 -69q28 -36 37 -72h4q14 29 61 72l78 69h182zM575 -25q-217 -1 -339 135t-123 355q0 352 177 559t437 207q322 0 391 -285l-160 -65q-18 106 -86 160t-161 55q-199 0 -316 -182t-116 -437q-1 -170 81 -268t234 -98q110 0 180 39t133 145
l125 -70q-141 -250 -457 -250z" />
    <glyph glyph-name="ccaron" unicode="&#x10d;" horiz-adv-x="901" 
d="M621 1085h-86l-199 293h162l57 -90q29 -47 35 -82h8q16 33 64 82l90 90h170zM436 -25q-160 -1 -257 105t-97 278q0 352 216 523q112 88 261 88q301 0 301 -297l-145 -25q-4 193 -174 193q-141 0 -225 -136t-83 -296q1 -158 59 -235t165 -77q167 0 233 193l144 -33
q-104 -281 -398 -281z" />
    <glyph glyph-name="Dcaron" unicode="&#x10e;" horiz-adv-x="1204" 
d="M692 1341h-94l-203 254h174l54 -69q27 -34 36 -72h5q14 29 61 72l78 69h182zM471 0h-389l211 1206h328q253 0 377 -119t124 -327q0 -561 -416 -718q-112 -42 -235 -42zM463 133q213 0 350 150t137 454q0 336 -354 336h-162l-166 -940h195z" />
    <glyph glyph-name="dcaron" unicode="&#x10f;" horiz-adv-x="1067" 
d="M895 111q27 0 59 8l-20 -113q-44 -16 -110 -16t-104 43t-32 125q-68 -182 -289 -183q-141 1 -229 103t-88 284q0 250 131 428t336 179q205 0 242 -183l102 582h154l-205 -1165q-16 -92 53 -92zM561 844q-143 0 -236 -131t-94 -334q1 -123 55 -199t158 -76t179 77
q73 77 96 212l31 162q20 115 -30 202t-159 87zM1346 1368l-105 -358h-113l33 358h185z" />
    <glyph glyph-name="Dcroat" unicode="&#x110;" horiz-adv-x="1204" 
d="M463 133q213 0 350 150t137 454q0 336 -354 336h-162l-72 -401h259l-25 -140h-258l-70 -399h195zM471 0h-389l92 532h-133l25 140h133l94 534h328q253 0 377 -119t124 -327q0 -561 -416 -718q-112 -42 -235 -42z" />
    <glyph glyph-name="dcroat" unicode="&#x111;" horiz-adv-x="1067" 
d="M561 844q-143 0 -236 -131t-94 -334q1 -123 55 -199t158 -76t179 77q73 77 96 212l31 162q20 115 -30 202t-159 87zM895 111q27 0 59 8l-20 -113q-44 -16 -110 -16t-104 43t-32 125q-68 -182 -289 -183q-141 1 -229 103t-88 284q0 250 131 428t336 179q205 0 242 -183
l53 306h-289l23 120h286l29 156h154l-29 -156h151l-22 -120h-150l-155 -889q-16 -92 53 -92z" />
    <glyph glyph-name="Emacron" unicode="&#x112;" horiz-adv-x="983" 
d="M915 1386h-514l21 121h514zM825 139l-22 -139h-721l211 1206h721l-25 -139h-557l-70 -395h494l-25 -140h-493l-70 -393h557z" />
    <glyph glyph-name="emacron" unicode="&#x113;" horiz-adv-x="940" 
d="M807 1155h-514l22 125h514zM729 635q0 90 -50 150q-51 61 -153 61t-176 -80t-104 -203h473q10 29 10 72zM457 96q100 0 152 40t81 122l141 -35q-49 -137 -145 -192t-254 -55t-254 108q-96 109 -96 293q0 272 138 432t316 160q178 1 260 -97q83 -98 83 -222t-41 -212h-611
q-13 -138 45 -240t185 -102z" />
    <glyph glyph-name="Ebreve" unicode="&#x114;" horiz-adv-x="983" 
d="M644 1335q-124 0 -183 70t-37 188h125q-5 -69 21 -105t96 -36q129 0 168 141h124q-22 -119 -106 -189t-208 -69zM825 139l-22 -139h-721l211 1206h721l-25 -139h-557l-70 -395h494l-25 -140h-493l-70 -393h557z" />
    <glyph glyph-name="ebreve" unicode="&#x115;" horiz-adv-x="940" 
d="M520 1083q-125 0 -183 75t-36 204h125q-6 -80 16 -120t99 -40q75 0 113 40t59 120h125q-23 -129 -108 -204t-210 -75zM729 635q0 90 -50 150q-51 61 -153 61t-176 -80t-104 -203h473q10 29 10 72zM457 96q100 0 152 40t81 122l141 -35q-49 -137 -145 -192t-254 -55
t-254 108q-96 109 -96 293q0 272 138 432t316 160q178 1 260 -97q83 -98 83 -222t-41 -212h-611q-13 -138 45 -240t185 -102z" />
    <glyph glyph-name="Edotaccent" unicode="&#x116;" horiz-adv-x="983" 
d="M660 1374q-46 0 -78 33t-31 79q0 46 32 79q31 33 77 33t79 -34q33 -32 33 -78t-33 -79t-79 -33zM825 139l-22 -139h-721l211 1206h721l-25 -139h-557l-70 -395h494l-25 -140h-493l-70 -393h557z" />
    <glyph glyph-name="edotaccent" unicode="&#x117;" horiz-adv-x="940" 
d="M666 1254q0 -46 -33 -78t-79 -33q-46 1 -78 33t-32 78t32 79t78 33t79 -33t33 -79zM729 635q0 90 -50 150q-51 61 -153 61t-176 -80t-104 -203h473q10 29 10 72zM457 96q100 0 152 40t81 122l141 -35q-49 -137 -145 -192t-254 -55t-254 108q-96 109 -96 293
q0 272 138 432t316 160q178 1 260 -97q83 -98 83 -222t-41 -212h-611q-13 -138 45 -240t185 -102z" />
    <glyph glyph-name="Eogonek" unicode="&#x118;" horiz-adv-x="983" 
d="M332 -248q0 82 46 150t116 98h-412l211 1206h721l-25 -139h-557l-70 -395h494l-25 -140h-493l-70 -393h557l-22 -139h-51q-115 0 -200 -63t-85 -162q0 -45 27 -73t69 -28q88 0 133 88l60 -71q-61 -123 -217 -123q-100 0 -154 51q-53 51 -53 133z" />
    <glyph glyph-name="eogonek" unicode="&#x119;" horiz-adv-x="940" 
d="M729 635q0 90 -50 150q-51 61 -153 61t-176 -80t-104 -203h473q10 29 10 72zM289 -242q0 127 110 219q-149 15 -233 121t-84 279q0 272 138 432t316 160q178 1 260 -97q83 -98 83 -222t-41 -212h-611q-12 -139 45 -240q57 -102 171 -102t166 40t81 122l141 -35
q-37 -98 -98 -147t-145 -82q-164 -64 -164 -219q0 -45 27 -73t69 -28q88 0 133 88l60 -71q-61 -123 -217 -123q-100 0 -154 51q-53 51 -53 139z" />
    <glyph glyph-name="Ecaron" unicode="&#x11a;" horiz-adv-x="983" 
d="M686 1341h-94l-203 254h174l53 -69q28 -36 37 -72h4q14 29 62 72l78 69h182zM825 139l-22 -139h-721l211 1206h721l-25 -139h-557l-70 -395h494l-25 -140h-493l-70 -393h557z" />
    <glyph glyph-name="ecaron" unicode="&#x11b;" horiz-adv-x="940" 
d="M580 1085h-86l-199 293h162l57 -90q29 -47 35 -82h8q16 33 64 82l90 90h170zM729 635q0 90 -50 150q-51 61 -153 61t-176 -80t-104 -203h473q10 29 10 72zM457 96q100 0 152 40t81 122l141 -35q-49 -137 -145 -192t-254 -55t-254 108q-96 109 -96 293q0 272 138 432
t316 160q178 1 260 -97q83 -98 83 -222t-41 -212h-611q-13 -138 45 -240t185 -102z" />
    <glyph glyph-name="Gcircumflex" unicode="&#x11c;" horiz-adv-x="1212" 
d="M727 1595h94l203 -254h-174l-53 70q-28 36 -37 72h-4q-14 -29 -62 -72l-78 -70h-182zM113 465q0 352 178 559t438 207q322 0 391 -285l-159 -65q-19 106 -87 160t-161 55q-199 0 -317 -182t-117 -437q-1 -170 79 -268t236 -98q274 0 324 282l14 78h-307l24 143h467
l-106 -614h-127l-2 154q-83 -178 -303 -178t-342 134q-122 136 -123 355z" />
    <glyph glyph-name="gcircumflex" unicode="&#x11d;" horiz-adv-x="1024" 
d="M588 1378h86l198 -293h-161l-58 91q-26 43 -32 73l-3 8h-8q-16 -33 -63 -81l-90 -91h-170zM356 -432q-190 0 -276 73t-100 189l139 47q6 -84 68 -139t177 -55q227 0 279 280l37 191q-78 -176 -277 -177q-143 1 -232 103t-89 285q0 248 133 426t337 178t241 -183l51 160
h129l-172 -977q-37 -207 -146 -304t-299 -97zM565 846q-145 0 -238 -132t-94 -335q1 -125 53 -200t158 -75t180 75q72 75 95 210l31 166q20 115 -28 203t-157 88z" />
    <glyph glyph-name="Gbreve" unicode="&#x11e;" horiz-adv-x="1212" 
d="M740 1335q-124 0 -183 70t-37 188h125q-6 -69 21 -105t96 -36q129 0 168 141h125q-23 -119 -107 -189t-208 -69zM113 465q0 352 178 559t438 207q322 0 391 -285l-159 -65q-19 106 -87 160t-161 55q-199 0 -317 -182t-117 -437q-1 -170 79 -268t236 -98q274 0 324 282
l14 78h-307l24 143h467l-106 -614h-127l-2 154q-83 -178 -303 -178t-342 134q-122 136 -123 355z" />
    <glyph glyph-name="gbreve" unicode="&#x11f;" horiz-adv-x="1024" 
d="M573 1083q-125 0 -183 75t-36 204h125q-6 -80 17 -120q22 -40 98 -40t114 40t58 120h125q-23 -129 -108 -204t-210 -75zM356 -432q-190 0 -276 73t-100 189l139 47q6 -84 68 -139t177 -55q227 0 279 280l37 191q-78 -176 -277 -177q-143 1 -232 103t-89 285
q0 248 133 426t337 178t241 -183l51 160h129l-172 -977q-37 -207 -146 -304t-299 -97zM565 846q-145 0 -238 -132t-94 -335q1 -125 53 -200t158 -75t180 75q72 75 95 210l31 166q20 115 -28 203t-157 88z" />
    <glyph glyph-name="Gdotaccent" unicode="&#x120;" horiz-adv-x="1212" 
d="M649 1486q0 46 32 79t78 33t79 -34q32 -32 32 -78t-32 -79t-79 -33q-46 0 -78 33t-32 79zM113 465q0 352 178 559t438 207q322 0 391 -285l-159 -65q-19 106 -87 160t-161 55q-199 0 -317 -182t-117 -437q-1 -170 79 -268t236 -98q274 0 324 282l14 78h-307l24 143h467
l-106 -614h-127l-2 154q-83 -178 -303 -178t-342 134q-122 136 -123 355z" />
    <glyph glyph-name="gdotaccent" unicode="&#x121;" horiz-adv-x="1024" 
d="M719 1254q0 -46 -33 -78t-79 -33q-45 1 -77 33t-32 78t31 79q32 33 78 33t79 -33t33 -79zM356 -432q-190 0 -276 73t-100 189l139 47q6 -84 68 -139t177 -55q227 0 279 280l37 191q-78 -176 -277 -177q-143 1 -232 103t-89 285q0 248 133 426t337 178t241 -183l51 160
h129l-172 -977q-37 -207 -146 -304t-299 -97zM565 846q-145 0 -238 -132t-94 -335q1 -125 53 -200t158 -75t180 75q72 75 95 210l31 166q20 115 -28 203t-157 88z" />
    <glyph glyph-name="Gcommaaccent" unicode="&#x122;" horiz-adv-x="1212" 
d="M596 -287q0 -106 -72 -160t-190 -55v70q147 8 147 90q-53 -10 -85 16t-31 74q0 47 29 74q30 26 80 26t86 -34t36 -101zM113 465q0 352 178 559t438 207q322 0 391 -285l-159 -65q-19 106 -87 160t-161 55q-199 0 -317 -182t-117 -437q-1 -170 79 -268t236 -98
q274 0 324 282l14 78h-307l24 143h467l-106 -614h-127l-2 154q-83 -178 -303 -178t-342 134q-122 136 -123 355z" />
    <glyph glyph-name="gcommaaccent" unicode="&#x123;" horiz-adv-x="1024" 
d="M518 1231q0 107 72 161t190 54v-70q-147 -8 -147 -90q53 10 85 -16t32 -74q0 -47 -30 -74q-30 -26 -80 -26t-86 34t-36 101zM356 -432q-190 0 -276 73t-100 189l139 47q6 -84 68 -139t177 -55q227 0 279 280l37 191q-78 -176 -277 -177q-143 1 -232 103t-89 285
q0 248 133 426t337 178t241 -183l51 160h129l-172 -977q-37 -207 -146 -304t-299 -97zM565 846q-145 0 -238 -132t-94 -335q1 -125 53 -200t158 -75t180 75q72 75 95 210l31 166q20 115 -28 203t-157 88z" />
    <glyph glyph-name="Hcircumflex" unicode="&#x124;" horiz-adv-x="1257" 
d="M764 1595h94l203 -254h-174l-53 70q-28 36 -37 72h-4q-14 -29 -62 -72l-78 -70h-182zM246 0h-164l211 1206h164l-92 -524h606l92 524h164l-211 -1206h-164l94 543h-606z" />
    <glyph glyph-name="hcircumflex" unicode="&#x125;" horiz-adv-x="1034" 
d="M412 1681h94l203 -254h-174l-54 70q-28 36 -37 72h-4q-14 -29 -61 -72l-78 -70h-182zM883 111q27 0 59 8l-20 -113q-45 -16 -99 -16q-186 0 -149 205l82 458q33 184 -129 185q-95 0 -183 -76t-116 -244l-90 -518h-156l237 1368h160l-110 -614q104 215 305 215
q114 1 178 -57t63 -167q0 -47 -8 -94l-78 -448q-16 -92 54 -92z" />
    <glyph glyph-name="Hbar" unicode="&#x126;" horiz-adv-x="1306" 
d="M383 682h606l31 180h-606zM264 0h-164l150 862h-178l24 135h178l37 209h164l-37 -209h606l37 209h164l-37 -209h191l-25 -135h-190l-150 -862h-164l95 543h-607z" />
    <glyph glyph-name="hbar" unicode="&#x127;" horiz-adv-x="1034" 
d="M674 969q114 1 178 -57t63 -167q0 -47 -8 -94l-78 -448q-16 -92 54 -92q27 0 59 8l-20 -113q-45 -16 -99 -16q-186 0 -149 205l82 458q33 184 -129 185q-95 0 -183 -76t-116 -244l-90 -518h-156l188 1092h-155l22 120h156l26 156h160l-28 -156h278l-22 -120h-279
l-59 -338q104 215 305 215z" />
    <glyph glyph-name="Itilde" unicode="&#x128;" horiz-adv-x="487" 
d="M520 1341q-64 0 -104 27q-6 4 -23 14t-40 26q-23 15 -30 18q-7 4 -23 12t-42 8q-74 0 -80 -100h-98q-16 94 37 162t145 69q14 0 28 -2t22 -3q9 -1 26 -8q17 -8 31 -16t17 -9t18 -11l18 -12q68 -45 102 -46q63 0 76 107h105q11 -102 -39 -169t-146 -67zM293 1206h164
l-211 -1206h-164z" />
    <glyph glyph-name="itilde" unicode="&#x129;" horiz-adv-x="497" 
d="M317 111q27 0 60 8l-21 -113q-45 -16 -98 -16q-186 0 -149 205l131 751h155l-131 -743q-16 -92 53 -92zM492 1087q-58 0 -105 27q-6 4 -21 13l-22 13q-8 4 -26 17q-18 12 -24 15q-7 4 -23 12t-42 8q-74 0 -79 -100h-99q-16 94 37 162t145 69q13 0 27 -2t24 -3t21 -6
t17 -7q6 -3 19 -11t16 -9t19 -11t17 -12q68 -45 103 -45q63 0 75 106h105q12 -102 -38 -169t-146 -67z" />
    <glyph glyph-name="Imacron" unicode="&#x12a;" horiz-adv-x="487" 
d="M666 1386h-514l20 121h514zM293 1206h164l-211 -1206h-164z" />
    <glyph glyph-name="imacron" unicode="&#x12b;" horiz-adv-x="497" 
d="M317 111q27 0 60 8l-21 -113q-45 -16 -98 -16q-186 0 -149 205l131 751h155l-131 -743q-16 -92 53 -92zM612 1155h-514l23 125h514z" />
    <glyph glyph-name="Ibreve" unicode="&#x12c;" horiz-adv-x="487" 
d="M392 1335q-124 0 -183 70t-37 188h125q-5 -69 21 -105t96 -36q129 0 168 141h125q-23 -119 -107 -189t-208 -69zM293 1206h164l-211 -1206h-164z" />
    <glyph glyph-name="Iogonek" unicode="&#x12e;" horiz-adv-x="487" 
d="M20 -432q-206 0 -206 204q0 102 85 188q85 85 195 118l199 1128h164l-211 -1206q-117 0 -207 -62t-90 -163q1 -45 27 -73t69 -28q88 0 133 88l60 -71q-61 -123 -218 -123z" />
    <glyph glyph-name="iogonek" unicode="&#x12f;" horiz-adv-x="497" 
d="M366 1366q46 0 78 -33t33 -79q0 -46 -34 -78q-35 -32 -79 -33q-44 1 -76 33t-32 78t32 79t78 33zM-57 -235q0 91 51 165t135 107q-39 51 -20 158l131 751h155l-131 -743q-16 -92 53 -92q27 0 60 8l-21 -113q-279 -18 -278 -231q0 -45 26 -73t70 -28q88 0 133 88l60 -71
q-61 -123 -217 -123q-100 0 -154 52q-53 53 -53 145z" />
    <glyph glyph-name="Idotaccent" unicode="&#x130;" horiz-adv-x="487" 
d="M301 1486q0 46 32 79t78 33q47 0 79 -34q32 -32 32 -78t-33 -79t-79 -33t-77 33q-32 33 -32 79zM293 1206h164l-211 -1206h-164z" />
    <glyph glyph-name="dotlessi" unicode="&#x131;" horiz-adv-x="497" 
d="M317 111q27 0 60 8l-21 -113q-45 -16 -98 -16q-186 0 -149 205l131 751h155l-131 -743q-16 -92 53 -92z" />
    <glyph glyph-name="IJ" unicode="&#x132;" horiz-adv-x="1374" 
d="M830 -25q-154 0 -237 68t-108 180l131 84q45 -203 205 -203q105 0 149 54t66 188l154 860h164l-158 -889q-33 -184 -122 -263q-90 -79 -244 -79zM293 1206h164l-211 -1206h-164z" />
    <glyph glyph-name="ij" unicode="&#x133;" horiz-adv-x="944" 
d="M862 1143q-44 1 -76 33t-32 78t31 79q32 33 78 33t79 -33t33 -79t-34 -78t-79 -33zM403 -307q111 0 140 160l194 1093h156l-193 -1089q-28 -160 -106 -225q-78 -64 -197 -64t-186 53l53 123q68 -51 139 -51zM366 1366q46 0 78 -33t33 -79q0 -46 -34 -78q-35 -32 -79 -33
q-44 1 -76 33t-32 78t32 79t78 33zM317 111q27 0 60 8l-21 -113q-45 -16 -98 -16q-186 0 -149 205l131 751h155l-131 -743q-16 -92 53 -92z" />
    <glyph glyph-name="Jcircumflex" unicode="&#x134;" horiz-adv-x="858" 
d="M760 1595h94l203 -254h-174l-54 70q-27 34 -36 72h-5q-14 -29 -61 -72l-78 -70h-182zM314 -25q-154 0 -237 68t-108 180l131 84q45 -203 205 -203q105 0 149 54t66 188l154 860h164l-158 -889q-33 -184 -122 -263q-90 -79 -244 -79z" />
    <glyph glyph-name="jcircumflex" unicode="&#x135;" horiz-adv-x="446" 
d="M338 1378h86l199 -293h-162l-58 91q-23 38 -34 81h-9q-16 -33 -63 -81l-90 -91h-170zM-94 -307q111 0 139 160l195 1093h155l-192 -1089q-27 -160 -106 -225q-79 -64 -198 -64t-186 53l54 123q68 -51 139 -51z" />
    <glyph glyph-name="Kcommaaccent" unicode="&#x136;" horiz-adv-x="1040" 
d="M500 -287q0 -106 -72 -160t-190 -55v70q147 8 147 90q-53 -10 -85 16t-32 74q0 47 30 74q30 26 80 26t86 -34t36 -101zM940 0h-182l-301 543h-117l-94 -543h-164l211 1206h164l-92 -528h96l467 528h194l-534 -585z" />
    <glyph glyph-name="kcommaaccent" unicode="&#x137;" horiz-adv-x="894" 
d="M471 -287q0 -106 -72 -160t-190 -55v70q147 8 147 90q-53 -10 -85 16t-31 74q0 47 29 74q30 26 80 26t86 -34t36 -101zM715 -10q-105 0 -154 100l-186 377h-56l-81 -467h-156l240 1368h157l-139 -788h45l350 366h191l-416 -414l166 -348q28 -57 66 -68t104 7l-23 -117
q-49 -16 -108 -16z" />
    <glyph glyph-name="kgreenlandic" unicode="&#x138;" horiz-adv-x="894" 
d="M715 -10q-103 0 -152 100l-186 377h-58l-81 -467h-156l166 946h158l-66 -366h45l350 366h191l-416 -414l166 -348q28 -57 66 -68t104 7l-23 -117q-49 -16 -108 -16z" />
    <glyph glyph-name="Lacute" unicode="&#x139;" horiz-adv-x="937" 
d="M461 1341h-142l127 238h213zM293 1206h164l-189 -1067h557l-22 -139h-721z" />
    <glyph glyph-name="lacute" unicode="&#x13a;" horiz-adv-x="489" 
d="M471 1427h-141l127 238h213zM317 111q27 0 60 8l-21 -113q-45 -16 -98 -16q-186 0 -149 205l204 1173h156l-205 -1165q-16 -92 53 -92z" />
    <glyph glyph-name="Lcommaaccent" unicode="&#x13b;" horiz-adv-x="937" 
d="M543 -287q0 -106 -72 -160t-190 -55v70q147 8 147 90q-53 -10 -85 16t-32 74q0 47 30 74q30 26 80 26t86 -34t36 -101zM293 1206h164l-189 -1067h557l-22 -139h-721z" />
    <glyph glyph-name="lcommaaccent" unicode="&#x13c;" horiz-adv-x="489" 
d="M279 -287q0 -106 -72 -160t-191 -55v70q147 8 148 90q-53 -10 -85 16t-32 74q0 47 30 74q30 26 80 26t86 -34t36 -101zM317 111q27 0 60 8l-21 -113q-45 -16 -98 -16q-186 0 -149 205l204 1173h156l-205 -1165q-16 -92 53 -92z" />
    <glyph glyph-name="Lcaron" unicode="&#x13d;" horiz-adv-x="937" 
d="M774 1368l-104 -358h-113l33 358h184zM293 1206h164l-189 -1067h557l-22 -139h-721z" />
    <glyph glyph-name="lcaron" unicode="&#x13e;" horiz-adv-x="489" 
d="M317 111q27 0 60 8l-21 -113q-45 -16 -98 -16q-186 0 -149 205l204 1173h156l-205 -1165q-16 -92 53 -92zM768 1368l-104 -358h-113l33 358h184z" />
    <glyph glyph-name="Ldot" unicode="&#x13f;" horiz-adv-x="937" 
d="M657 627q0 53 37 90t90 37t90 -37t37 -90t-37 -90t-90 -37t-90 37t-37 90zM293 1206h164l-189 -1067h557l-22 -139h-721z" />
    <glyph glyph-name="ldot" unicode="&#x140;" horiz-adv-x="641" 
d="M459 643q0 53 37 90t90 37t90 -37t37 -90t-37 -90t-90 -37t-90 37t-37 90zM317 111q27 0 60 8l-21 -113q-45 -16 -98 -16q-186 0 -149 205l204 1173h156l-205 -1165q-16 -92 53 -92z" />
    <glyph glyph-name="Lslash" unicode="&#x141;" horiz-adv-x="948" 
d="M303 1206h164l-90 -516l305 109l-25 -142l-305 -104l-73 -414h557l-23 -139h-721l86 496l-137 -47l25 133l137 47z" />
    <glyph glyph-name="lslash" unicode="&#x142;" horiz-adv-x="501" 
d="M322 111q27 0 59 8l-21 -113q-45 -16 -98 -16q-186 0 -149 205l75 436l-127 -60l25 140l127 61l104 596h156l-90 -512l160 78l-27 -148l-160 -75l-88 -508q-16 -92 54 -92z" />
    <glyph glyph-name="Nacute" unicode="&#x143;" horiz-adv-x="1255" 
d="M817 1341h-141l127 238h213zM463 1206l325 -712q60 -130 91 -236l10 -37h8q16 145 43 297l121 688h164l-211 -1206h-166l-334 709q-48 101 -92 233l-12 39h-9q-8 -141 -34 -293l-121 -688h-164l211 1206h170z" />
    <glyph glyph-name="nacute" unicode="&#x144;" horiz-adv-x="1034" 
d="M659 1085h-133l154 293h215zM883 111q27 0 59 8l-20 -113q-45 -16 -99 -16q-186 0 -149 205l82 458q33 184 -129 185q-95 0 -183 -76t-116 -244l-90 -518h-156l166 946h135l-14 -192q104 215 305 215q114 1 178 -57t63 -167q0 -47 -8 -94l-78 -448q-16 -92 54 -92z" />
    <glyph glyph-name="Ncommaaccent" unicode="&#x145;" horiz-adv-x="1255" 
d="M608 -287q0 -106 -72 -160t-190 -55v70q147 8 148 90q-53 -10 -85 16t-32 74q0 47 30 74q29 26 79 26t86 -34t36 -101zM463 1206l325 -712q60 -130 91 -236l10 -37h8q16 145 43 297l121 688h164l-211 -1206h-166l-334 709q-48 101 -92 233l-12 39h-9q-8 -141 -34 -293
l-121 -688h-164l211 1206h170z" />
    <glyph glyph-name="ncommaaccent" unicode="&#x146;" horiz-adv-x="1034" 
d="M498 -287q0 -106 -72 -160t-190 -55v70q147 8 147 90q-53 -10 -85 16t-32 74q0 47 30 74q30 26 80 26t86 -34t36 -101zM883 111q27 0 59 8l-20 -113q-45 -16 -99 -16q-186 0 -149 205l82 458q33 184 -129 185q-95 0 -183 -76t-116 -244l-90 -518h-156l166 946h135
l-14 -192q104 215 305 215q114 1 178 -57t63 -167q0 -47 -8 -94l-78 -448q-16 -92 54 -92z" />
    <glyph glyph-name="Ncaron" unicode="&#x147;" horiz-adv-x="1255" 
d="M797 1341h-95l-202 254h174l53 -69q28 -36 37 -72h4q14 29 61 72l78 69h183zM463 1206l325 -712q60 -130 91 -236l10 -37h8q16 145 43 297l121 688h164l-211 -1206h-166l-334 709q-48 101 -92 233l-12 39h-9q-8 -141 -34 -293l-121 -688h-164l211 1206h170z" />
    <glyph glyph-name="ncaron" unicode="&#x148;" horiz-adv-x="1034" 
d="M645 1085h-86l-199 293h162l58 -90q27 -45 34 -82h9q16 33 63 82l90 90h170zM883 111q27 0 59 8l-20 -113q-45 -16 -99 -16q-186 0 -149 205l82 458q33 184 -129 185q-95 0 -183 -76t-116 -244l-90 -518h-156l166 946h135l-14 -192q104 215 305 215q114 1 178 -57
t63 -167q0 -47 -8 -94l-78 -448q-16 -92 54 -92z" />
    <glyph glyph-name="Eng" unicode="&#x14a;" horiz-adv-x="1255" 
d="M606 -432q-213 0 -307 156l117 114q72 -137 200 -137q106 0 154 58q47 58 70 192l8 49l-334 709q-48 101 -92 233l-12 39h-9q-8 -141 -34 -293l-121 -688h-164l211 1206h170l325 -712q60 -130 91 -236l10 -37h8q16 145 43 297l121 688h164l-228 -1296q-33 -182 -125 -262
t-266 -80z" />
    <glyph glyph-name="eng" unicode="&#x14b;" horiz-adv-x="1011" 
d="M473 -307q111 0 139 160l144 800q33 184 -129 185q-95 0 -183 -76t-116 -244l-90 -518h-156l166 946h135l-14 -192q104 215 305 215q114 1 178 -57t63 -167q0 -47 -8 -94l-137 -794q-28 -160 -106 -225q-78 -64 -197 -64t-186 53l53 123q68 -51 139 -51z" />
    <glyph glyph-name="Omacron" unicode="&#x14c;" horiz-adv-x="1261" 
d="M1028 1386h-514l21 121h514zM711 1094q-199 0 -316 -180t-116 -437q-1 -170 81 -268t234 -98q198 0 314 180t116 436q0 163 -76 265t-237 102zM575 -25q-217 -1 -339 135t-123 355q0 352 177 559t437 207q217 0 340 -136t123 -356q0 -352 -178 -558t-437 -206z" />
    <glyph glyph-name="omacron" unicode="&#x14d;" horiz-adv-x="1005" 
d="M842 1155h-514l22 125h514zM543 840q-139 0 -225 -131t-85 -294t61 -241t167 -78q139 0 223 136t84 296t-59 236q-60 76 -166 76zM567 969q168 0 262 -109t95 -297q0 -248 -130 -418t-354 -170q-162 -1 -260 105t-98 297q0 248 130 420t355 172z" />
    <glyph glyph-name="Obreve" unicode="&#x14e;" horiz-adv-x="1261" 
d="M755 1335q-124 0 -184 70q-59 70 -36 188h124q-6 -69 21 -105t96 -36q129 0 168 141h125q-23 -119 -107 -189t-207 -69zM711 1094q-199 0 -316 -180t-116 -437q-1 -170 81 -268t234 -98q198 0 314 180t116 436q0 163 -76 265t-237 102zM575 -25q-217 -1 -339 135
t-123 355q0 352 177 559t437 207q217 0 340 -136t123 -356q0 -352 -178 -558t-437 -206z" />
    <glyph glyph-name="obreve" unicode="&#x14f;" horiz-adv-x="1005" 
d="M555 1083q-125 0 -183 75t-36 204h125q-5 -80 17 -120t98 -40t113 40q38 40 59 120h124q-24 -129 -108 -204t-209 -75zM543 840q-139 0 -225 -131t-85 -294t61 -241t167 -78q139 0 223 136t84 296t-59 236q-60 76 -166 76zM567 969q168 0 262 -109t95 -297
q0 -248 -130 -418t-354 -170q-162 -1 -260 105t-98 297q0 248 130 420t355 172z" />
    <glyph glyph-name="Ohungarumlaut" unicode="&#x150;" horiz-adv-x="1261" 
d="M956 1341h-122l153 238h205zM666 1341h-119l133 238h201zM711 1094q-199 0 -316 -180t-116 -437q-1 -170 81 -268t234 -98q198 0 314 180t116 436q0 163 -76 265t-237 102zM575 -25q-217 -1 -339 135t-123 355q0 352 177 559t437 207q217 0 340 -136t123 -356
q0 -352 -178 -558t-437 -206z" />
    <glyph glyph-name="ohungarumlaut" unicode="&#x151;" horiz-adv-x="1005" 
d="M801 1085h-123l153 293h205zM510 1085h-119l133 293h201zM543 840q-139 0 -225 -131t-85 -294t61 -241t167 -78q139 0 223 136t84 296t-59 236q-60 76 -166 76zM567 969q168 0 262 -109t95 -297q0 -248 -130 -418t-354 -170q-162 -1 -260 105t-98 297q0 248 130 420
t355 172z" />
    <glyph glyph-name="OE" unicode="&#x152;" horiz-adv-x="1703" 
d="M711 1094q-199 0 -316 -180t-116 -437q-1 -170 81 -268t234 -98q198 0 314 180t116 436q0 163 -76 265t-237 102zM575 -25q-217 -1 -339 135t-123 355q0 352 177 559t437 207q90 0 164 -25h844l-25 -139h-620q100 -131 100 -328l-2 -67h389l-25 -140h-383
q-45 -244 -196 -393h573l-22 -139h-783q-80 -25 -166 -25z" />
    <glyph glyph-name="oe" unicode="&#x153;" horiz-adv-x="1624" 
d="M1407 635q0 90 -50 150q-51 61 -149 61t-170 -78t-108 -205h467q10 29 10 72zM543 840q-139 0 -225 -131t-85 -294t61 -241t167 -78q139 0 223 136t84 296t-59 236q-60 76 -166 76zM1122 96q112 0 165 40q52 40 81 122l141 -35q-49 -137 -145 -192t-226 -55t-214 54
q-86 56 -119 148q-125 -203 -365 -203q-162 -1 -260 105t-98 297q0 248 130 420t355 172q111 -1 190 -55t115 -148q56 94 150 148t199 55q170 1 253 -97t82 -241q0 -104 -40 -193h-605q-13 -138 43 -240t168 -102z" />
    <glyph glyph-name="Racute" unicode="&#x154;" horiz-adv-x="1095" 
d="M729 1341h-141l127 238h213zM590 643q276 0 276 256q0 90 -47 132t-153 42h-232l-76 -430h232zM506 512h-170l-90 -512h-164l211 1206h399q186 0 264 -72t78 -226q0 -152 -102 -241t-232 -96v-8q84 -10 125 -53t60 -143l43 -242q12 -70 51 -125h-174q-29 35 -41 109
l-37 219q-19 112 -67 148t-154 36z" />
    <glyph glyph-name="racute" unicode="&#x155;" horiz-adv-x="679" 
d="M557 1085h-133l154 293h215zM721 965l-41 -183q-113 23 -218 -42t-128 -193l-96 -547h-156l166 946h135l-18 -215q49 115 148 183t208 51z" />
    <glyph glyph-name="Rcommaaccent" unicode="&#x156;" horiz-adv-x="1095" 
d="M561 -287q0 -106 -72 -160t-190 -55v70q147 8 147 90q-53 -10 -85 16t-31 74q0 47 29 74q30 26 80 26t86 -34t36 -101zM590 643q276 0 276 256q0 90 -47 132t-153 42h-232l-76 -430h232zM506 512h-170l-90 -512h-164l211 1206h399q186 0 264 -72t78 -226
q0 -152 -102 -241t-232 -96v-8q84 -10 125 -53t60 -143l43 -242q12 -70 51 -125h-174q-29 35 -41 109l-37 219q-19 112 -67 148t-154 36z" />
    <glyph glyph-name="rcommaaccent" unicode="&#x157;" horiz-adv-x="679" 
d="M248 -287q0 -106 -72 -160t-190 -55v70q147 8 147 90q-53 -10 -85 16t-32 74q0 47 30 74q30 26 80 26t86 -34t36 -101zM721 965l-41 -183q-113 23 -218 -42t-128 -193l-96 -547h-156l166 946h135l-18 -215q49 115 148 183t208 51z" />
    <glyph glyph-name="Rcaron" unicode="&#x158;" horiz-adv-x="1095" 
d="M709 1341h-95l-202 254h174l53 -69q28 -36 37 -72h4q14 29 61 72l78 69h182zM590 643q276 0 276 256q0 90 -47 132t-153 42h-232l-76 -430h232zM506 512h-170l-90 -512h-164l211 1206h399q186 0 264 -72t78 -226q0 -152 -102 -241t-232 -96v-8q84 -10 125 -53t60 -143
l43 -242q12 -70 51 -125h-174q-29 35 -41 109l-37 219q-19 112 -67 148t-154 36z" />
    <glyph glyph-name="rcaron" unicode="&#x159;" horiz-adv-x="679" 
d="M541 1085h-86l-199 293h162l57 -90q29 -47 35 -82h8q16 33 64 82l90 90h170zM721 965l-41 -183q-113 23 -218 -42t-128 -193l-96 -547h-156l166 946h135l-18 -215q49 115 148 183t208 51z" />
    <glyph glyph-name="Sacute" unicode="&#x15a;" horiz-adv-x="980" 
d="M684 1341h-141l127 238h213zM680 307q0 99 -47 151t-179 103t-201 118t-69 197t68 213q116 142 334 142q182 0 273 -74t91 -244l-153 -24q5 107 -53 163t-168 56t-175 -54t-65 -146t47 -130q47 -39 185 -96t206 -132t68 -214q0 -178 -122 -269t-308 -92q-371 1 -371 320
l147 27q-4 -222 240 -224q120 0 186 54t66 155z" />
    <glyph glyph-name="sacute" unicode="&#x15b;" horiz-adv-x="817" 
d="M563 1085h-133l154 293h215zM369 88q176 0 176 148q0 72 -38 112q-39 40 -143 80q-104 39 -158 102t-54 179t90 188t231 72q283 0 283 -248l-146 -16q0 147 -151 147q-76 0 -121 -37t-45 -98t36 -99q37 -38 151 -86q114 -46 163 -113t49 -187t-88 -188q-88 -69 -242 -69
t-238 74t-83 203l141 29q0 -97 50 -145t137 -48z" />
    <glyph glyph-name="Scircumflex" unicode="&#x15c;" horiz-adv-x="980" 
d="M606 1595h94l203 -254h-174l-53 70q-28 36 -37 72h-4q-14 -29 -62 -72l-77 -70h-183zM680 307q0 99 -47 151t-179 103t-201 118t-69 197t68 213q116 142 334 142q182 0 273 -74t91 -244l-153 -24q5 107 -53 163t-168 56t-175 -54t-65 -146t47 -130q47 -39 185 -96
t206 -132t68 -214q0 -178 -122 -269t-308 -92q-371 1 -371 320l147 27q-4 -222 240 -224q120 0 186 54t66 155z" />
    <glyph glyph-name="scircumflex" unicode="&#x15d;" horiz-adv-x="817" 
d="M502 1378h86l198 -293h-161l-58 91q-26 43 -32 73l-3 8h-8q-16 -33 -63 -81l-90 -91h-170zM369 88q176 0 176 148q0 72 -38 112q-39 40 -143 80q-104 39 -158 102t-54 179t90 188t231 72q283 0 283 -248l-146 -16q0 147 -151 147q-76 0 -121 -37t-45 -98t36 -99
q37 -38 151 -86q114 -46 163 -113t49 -187t-88 -188q-88 -69 -242 -69t-238 74t-83 203l141 29q0 -97 50 -145t137 -48z" />
    <glyph glyph-name="Scedilla" unicode="&#x15e;" horiz-adv-x="980" 
d="M680 307q0 99 -47 151t-179 103t-201 118t-69 197t68 213q116 142 334 142q182 0 273 -74t91 -244l-153 -24q5 107 -53 163t-168 56t-175 -54t-65 -146t47 -130q47 -39 185 -96t206 -132t68 -214q0 -178 -121 -268t-307 -93l-27 -61q82 -18 121 -59t39 -119
q-1 -78 -61 -123t-164 -45t-162 78l47 98q51 -76 131 -76t80 74q0 90 -142 90l56 148q-291 31 -291 315l147 27q-4 -222 240 -224q120 0 186 54t66 155z" />
    <glyph glyph-name="scedilla" unicode="&#x15f;" horiz-adv-x="817" 
d="M471 -264q0 -78 -60 -123t-164 -45t-163 78l47 98q51 -76 131 -76t80 74q0 90 -141 90l57 154q-104 23 -161 92q-56 70 -56 174l141 29q0 -97 50 -145t137 -48q176 0 176 148q0 72 -38 112q-39 40 -143 80q-104 39 -158 102t-54 179t90 188t231 72q283 0 283 -248
l-146 -16q0 147 -151 147q-74 0 -120 -37t-46 -98t36 -99q37 -38 151 -86q114 -46 163 -113t49 -187t-88 -188q-88 -69 -242 -69l-24 2l-27 -63q82 -18 121 -59t39 -119z" />
    <glyph glyph-name="Scaron" unicode="&#x160;" horiz-adv-x="980" 
d="M664 1341h-95l-202 254h174l53 -69q28 -36 37 -72h4q14 29 61 72l78 69h182zM680 307q0 99 -47 151t-179 103t-201 118t-69 197t68 213q116 142 334 142q182 0 273 -74t91 -244l-153 -24q5 107 -53 163t-168 56t-175 -54t-65 -146t47 -130q47 -39 185 -96t206 -132
t68 -214q0 -178 -122 -269t-308 -92q-371 1 -371 320l147 27q-4 -222 240 -224q120 0 186 54t66 155z" />
    <glyph glyph-name="scaron" unicode="&#x161;" horiz-adv-x="817" 
d="M547 1085h-86l-199 293h162l57 -90q29 -47 35 -82h8q16 33 64 82l90 90h170zM369 88q176 0 176 148q0 72 -38 112q-39 40 -143 80q-104 39 -158 102t-54 179t90 188t231 72q283 0 283 -248l-146 -16q0 147 -151 147q-76 0 -121 -37t-45 -98t36 -99q37 -38 151 -86
q114 -46 163 -113t49 -187t-88 -188q-88 -69 -242 -69t-238 74t-83 203l141 29q0 -97 50 -145t137 -48z" />
    <glyph glyph-name="Tcommaaccent" unicode="&#x162;" horiz-adv-x="968" 
d="M483 -287q1 -106 -71 -160t-191 -55v70q147 8 148 90q-53 -10 -85 16t-32 74q0 47 30 74q30 26 80 26t85 -34q36 -34 36 -101zM479 0h-164l187 1067h-359l25 139h883l-25 -139h-360z" />
    <glyph glyph-name="tcommaaccent" unicode="&#x163;" horiz-adv-x="618" 
d="M346 -287q0 -106 -72 -160t-190 -55v70q147 8 147 90q-53 -10 -85 16t-31 74q0 47 29 74q30 26 80 26t86 -34t36 -101zM510 154v-131q-82 -47 -186 -48q-262 0 -209 287l98 559h-131l22 125h134l34 199l158 22l-39 -221h248l-23 -125h-245l-103 -575q-12 -70 12 -105
t68 -35q78 1 162 48z" />
    <glyph glyph-name="Tcaron" unicode="&#x164;" horiz-adv-x="968" 
d="M670 1341h-95l-202 254h174l53 -69q28 -36 37 -72h4q14 29 61 72l78 69h183zM479 0h-164l187 1067h-359l25 139h883l-25 -139h-360z" />
    <glyph glyph-name="tcaron" unicode="&#x165;" horiz-adv-x="618" 
d="M717 1368l-105 -358h-112l32 358h185zM510 154v-131q-82 -47 -186 -48q-262 0 -209 287l98 559h-131l22 125h134l34 199l158 22l-39 -221h248l-23 -125h-245l-103 -575q-12 -70 12 -105t68 -35q78 1 162 48z" />
    <glyph glyph-name="Tbar" unicode="&#x166;" horiz-adv-x="968" 
d="M479 0h-164l95 539h-228l23 133h227l70 395h-359l25 139h883l-25 -139h-360l-70 -395h246l-23 -133h-246z" />
    <glyph glyph-name="tbar" unicode="&#x167;" horiz-adv-x="669" 
d="M396 106q62 0 145 48v-131q-82 -47 -187 -48q-262 0 -209 287l43 244h-127l23 123h125l35 192h-131l22 125h133l35 199l158 22l-39 -221h248l-23 -125h-246l-34 -192h251l-22 -123h-252l-45 -260q-23 -140 97 -140z" />
    <glyph glyph-name="Utilde" unicode="&#x168;" horiz-adv-x="1191" 
d="M862 1341q-64 0 -104 27q-6 4 -23 14t-40 26q-23 15 -30 18q-7 4 -23 12t-42 8q-74 0 -80 -100h-98q-16 94 37 162t145 69q14 0 28 -2t22 -3t26 -8q18 -8 32 -16t16 -9q3 -1 18 -11l18 -12q68 -45 102 -46q63 0 76 107h105q11 -102 -39 -169t-146 -67zM1018 1206h164
l-146 -827q-70 -403 -506 -404q-206 0 -320 116t-71 360l131 755h164l-135 -774q-29 -166 41 -245t208 -79t220 70t111 234z" />
    <glyph glyph-name="utilde" unicode="&#x169;" 
d="M735 1087q-64 0 -104 27q-6 4 -23 14t-40 26q-23 15 -30 18q-7 4 -23 12t-42 8q-74 0 -80 -100h-98q-16 94 37 162t145 69q13 0 27 -2t23 -3t27 -8q18 -8 30 -16q14 -8 17 -9t19 -11t17 -12q68 -45 102 -45q63 0 76 106h105q12 -102 -38 -169t-147 -67zM350 -25
q-146 1 -206 93t-31 264l106 614h156l-113 -643q-16 -99 19 -155t123 -56t167 76q80 76 103 203l100 575h156l-131 -743q-16 -92 53 -92q27 0 59 8l-20 -113q-45 -16 -98 -16q-173 0 -146 188q-80 -203 -297 -203z" />
    <glyph glyph-name="Umacron" unicode="&#x16a;" horiz-adv-x="1191" 
d="M1008 1386h-514l20 121h514zM1018 1206h164l-146 -827q-70 -403 -506 -404q-206 0 -320 116t-71 360l131 755h164l-135 -774q-29 -166 41 -245t208 -79t220 70t111 234z" />
    <glyph glyph-name="umacron" unicode="&#x16b;" 
d="M854 1155h-514l22 125h515zM350 -25q-146 1 -206 93t-31 264l106 614h156l-113 -643q-16 -99 19 -155t123 -56t167 76q80 76 103 203l100 575h156l-131 -743q-16 -92 53 -92q27 0 59 8l-20 -113q-45 -16 -98 -16q-173 0 -146 188q-80 -203 -297 -203z" />
    <glyph glyph-name="Ubreve" unicode="&#x16c;" horiz-adv-x="1191" 
d="M734 1335q-124 0 -183 70t-37 188h125q-5 -69 21 -105t96 -36q129 0 168 141h125q-23 -119 -107 -189t-208 -69zM1018 1206h164l-146 -827q-70 -403 -506 -404q-206 0 -320 116t-71 360l131 755h164l-135 -774q-29 -166 41 -245t208 -79t220 70t111 234z" />
    <glyph glyph-name="ubreve" unicode="&#x16d;" 
d="M567 1083q-125 0 -183 75t-36 204h125q-5 -80 17 -120t98 -40t114 40t58 120h125q-23 -129 -108 -204t-210 -75zM350 -25q-146 1 -206 93t-31 264l106 614h156l-113 -643q-16 -99 19 -155t123 -56t167 76q80 76 103 203l100 575h156l-131 -743q-16 -92 53 -92q27 0 59 8
l-20 -113q-45 -16 -98 -16q-173 0 -146 188q-80 -203 -297 -203z" />
    <glyph glyph-name="Uring" unicode="&#x16e;" horiz-adv-x="1191" 
d="M777 1614q-48 0 -82 -37q-33 -37 -33 -87t28 -79t75 -29q48 0 81 37t33 86t-27 79t-75 30zM573 1487q-1 82 59 142q60 61 147 61t136 -50t49 -132q0 -80 -58 -140t-148 -61q-90 0 -138 49t-47 131zM1018 1206h164l-146 -827q-70 -403 -506 -404q-206 0 -320 116t-71 360
l131 755h164l-135 -774q-29 -166 41 -245t208 -79t220 70t111 234z" />
    <glyph glyph-name="uring" unicode="&#x16f;" 
d="M727 1276q-1 48 -27 78t-74 30t-82 -36t-34 -87q0 -50 28 -79t76 -29t80 37q33 37 33 86zM422 1257q0 83 59 143t147 60t136 -50q49 -50 49 -131t-58 -141q-59 -60 -149 -60t-137 48q-47 49 -47 131zM350 -25q-146 1 -206 93t-31 264l106 614h156l-113 -643
q-16 -99 19 -155t123 -56t167 76q80 76 103 203l100 575h156l-131 -743q-16 -92 53 -92q27 0 59 8l-20 -113q-45 -16 -98 -16q-173 0 -146 188q-80 -203 -297 -203z" />
    <glyph glyph-name="Uhungarumlaut" unicode="&#x170;" horiz-adv-x="1191" 
d="M936 1341h-123l154 238h204zM645 1341h-119l133 238h201zM1018 1206h164l-146 -827q-70 -403 -506 -404q-206 0 -320 116t-71 360l131 755h164l-135 -774q-29 -166 41 -245t208 -79t220 70t111 234z" />
    <glyph glyph-name="uhungarumlaut" unicode="&#x171;" 
d="M813 1085h-123l154 293h205zM522 1085h-119l134 293h200zM350 -25q-146 1 -206 93t-31 264l106 614h156l-113 -643q-16 -99 19 -155t123 -56t167 76q80 76 103 203l100 575h156l-131 -743q-16 -92 53 -92q27 0 59 8l-20 -113q-45 -16 -98 -16q-173 0 -146 188
q-80 -203 -297 -203z" />
    <glyph glyph-name="Uogonek" unicode="&#x172;" horiz-adv-x="1191" 
d="M305 -242q0 131 111 228q-158 30 -236 144t-41 321l131 755h164l-135 -774q-29 -166 41 -245t208 -79t220 70t111 234l139 794h164l-146 -827q-63 -373 -444 -402q-152 -68 -152 -202q0 -45 27 -73t70 -28q88 0 133 88l59 -71q-61 -123 -217 -123q-100 0 -154 51
q-53 51 -53 139z" />
    <glyph glyph-name="uogonek" unicode="&#x173;" 
d="M852 111q27 0 59 8l-20 -113q-305 -43 -305 -231q0 -45 26 -73t70 -28q88 0 133 88l59 -71q-61 -123 -217 -123q-100 0 -153 51t-53 144t67 166q68 73 158 106q-20 16 -29 59q-8 43 0 84q-80 -203 -297 -203q-146 1 -206 93t-31 264l106 614h156l-113 -643
q-16 -99 19 -155t123 -56t167 76q80 76 103 203l100 575h156l-131 -743q-16 -92 53 -92z" />
    <glyph glyph-name="Wcircumflex" unicode="&#x174;" horiz-adv-x="1683" 
d="M958 1595h95l202 -254h-174l-53 70q-28 36 -37 72h-4q-14 -29 -61 -72l-78 -70h-182zM1137 135v-37h8q33 127 110 320l322 788h168l-514 -1206h-225l-68 750q-13 164 -2 278l4 39h-8q-29 -125 -113 -317l-325 -750h-226l-63 1206h160l32 -782l6 -326h9q27 133 112 324
l344 784h181l71 -786q17 -183 17 -285z" />
    <glyph glyph-name="wcircumflex" unicode="&#x175;" horiz-adv-x="1361" 
d="M754 1378h86l198 -293h-161l-58 91q-25 41 -35 81h-8q-16 -33 -63 -81l-90 -91h-170zM836 946l51 -530q17 -181 12 -273l-2 -34h8q23 115 105 307l231 530h162l-426 -946h-186l-56 485q-17 180 -12 265l2 32h-8q-29 -106 -115 -297l-213 -485h-186l-101 946h160l45 -528
q12 -126 12 -275l-2 -34h9q27 121 110 309l240 528h160z" />
    <glyph glyph-name="Ycircumflex" unicode="&#x176;" horiz-adv-x="1011" 
d="M637 1595h94l203 -254h-174l-53 70q-28 36 -37 72h-4q-14 -29 -62 -72l-78 -70h-182zM342 1206l139 -413q40 -127 45 -187l2 -22h9q25 78 106 207l266 415h174l-487 -731l-82 -475h-164l82 475l-258 731h168z" />
    <glyph glyph-name="ycircumflex" unicode="&#x177;" horiz-adv-x="856" 
d="M485 1378h86l199 -293h-162l-57 91q-25 41 -35 81h-8q-16 -33 -64 -81l-90 -91h-170zM342 131v-33h8q29 113 123 297l279 551h166l-560 -1061q-100 -189 -187 -253t-185 -64t-160 35l33 116q146 -79 254 26q59 58 131 200l-152 1001h164l63 -549q23 -157 23 -266z" />
    <glyph glyph-name="Ydieresis" unicode="&#x178;" horiz-adv-x="1011" 
d="M750 1452q0 45 32 78q33 33 78 33t78 -32t33 -78t-33 -79t-78 -33t-78 33q-32 33 -32 78zM362 1454q0 45 33 78t79 33t78 -33t32 -78t-33 -78t-78 -33t-78 33t-33 78zM342 1206l139 -413q40 -127 45 -187l2 -22h9q25 78 106 207l266 415h174l-487 -731l-82 -475h-164
l82 475l-258 731h168z" />
    <glyph glyph-name="Zacute" unicode="&#x179;" horiz-adv-x="1040" 
d="M725 1341h-141l127 238h213zM678 1067h-463l25 139h831l-20 -104l-689 -819q-90 -106 -141 -136l-16 -12v-8q68 12 196 12h486l-23 -139h-864l14 84l703 840q75 89 139 137l18 10v8q-68 -12 -196 -12z" />
    <glyph glyph-name="zacute" unicode="&#x17a;" horiz-adv-x="847" 
d="M561 1085h-133l154 293h215zM471 811h-303l22 135h678l-20 -106l-506 -566q-92 -105 -141 -135l-17 -12v-8q68 12 197 12h326l-21 -131h-706l18 84l512 584q107 121 154 149v8q-63 -14 -193 -14z" />
    <glyph glyph-name="Zdotaccent" unicode="&#x17b;" horiz-adv-x="1040" 
d="M567 1486q0 46 32 79t78 33t79 -34q32 -32 32 -78t-32 -79t-79 -33q-46 0 -78 33t-32 79zM678 1067h-463l25 139h831l-20 -104l-689 -819q-90 -106 -141 -136l-16 -12v-8q68 12 196 12h486l-23 -139h-864l14 84l703 840q75 89 139 137l18 10v8q-68 -12 -196 -12z" />
    <glyph glyph-name="zdotaccent" unicode="&#x17c;" horiz-adv-x="847" 
d="M631 1254q0 -46 -33 -78t-79 -33q-45 1 -77 33t-32 78t31 79q32 33 78 33t79 -33t33 -79zM471 811h-303l22 135h678l-20 -106l-506 -566q-92 -105 -141 -135l-17 -12v-8q68 12 197 12h326l-21 -131h-706l18 84l512 584q107 121 154 149v8q-63 -14 -193 -14z" />
    <glyph glyph-name="Zcaron" unicode="&#x17d;" horiz-adv-x="1040" 
d="M702 1341h-94l-202 254h174l53 -69q28 -36 37 -72h4q14 29 61 72l78 69h182zM678 1067h-463l25 139h831l-20 -104l-689 -819q-90 -106 -141 -136l-16 -12v-8q68 12 196 12h486l-23 -139h-864l14 84l703 840q75 89 139 137l18 10v8q-68 -12 -196 -12z" />
    <glyph glyph-name="zcaron" unicode="&#x17e;" horiz-adv-x="847" 
d="M545 1085h-86l-199 293h162l57 -90q29 -47 35 -82h8q16 33 64 82l90 90h170zM471 811h-303l22 135h678l-20 -106l-506 -566q-92 -105 -141 -135l-17 -12v-8q68 12 197 12h326l-21 -131h-706l18 84l512 584q107 121 154 149v8q-63 -14 -193 -14z" />
    <glyph glyph-name="Schwa" unicode="&#x18f;" horiz-adv-x="1191" 
d="M541 106q137 0 247 113t152 293h-661q-16 -45 -17 -121q0 -121 71 -203t208 -82zM629 1096q-123 0 -198 -52t-122 -161l-131 35q115 313 469 313q225 0 349 -137t124 -371q0 -344 -175 -546t-399 -202t-329 123q-104 123 -104 305q0 127 51 242h799q14 187 -71 319
t-263 132z" />
    <glyph glyph-name="florin" unicode="&#x192;" horiz-adv-x="804" 
d="M639 1010q80 0 140 -29t87 -74l-100 -114q-53 86 -145 86q-125 0 -170 -168l-58 -205h240l-35 -139h-242l-161 -615h-154l162 615h-140l37 139h140l55 201q76 303 344 303z" />
    <glyph glyph-name="Khook" unicode="&#x198;" horiz-adv-x="1040" 
d="M954 1231q127 0 166 -119l-102 -96q-27 66 -82 65q-37 1 -66 -29t-77 -108l-205 -323l352 -621h-182l-301 543h-117l-94 -543h-164l211 1206h164l-92 -528h96l192 315q76 123 142 181t159 57z" />
    <glyph glyph-name="khook" unicode="&#x199;" horiz-adv-x="894" 
d="M715 -10q-102 0 -152 100l-186 377h-58l-81 -467h-156l188 1077q53 305 322 305q115 0 213 -59l-64 -129q-83 57 -151 57t-107 -39t-55 -135l-88 -497h45l350 366h191l-416 -414l166 -348q28 -57 66 -68t104 7l-23 -117q-49 -16 -108 -16z" />
    <glyph glyph-name="Ezh" unicode="&#x1b7;" horiz-adv-x="1015" 
d="M82 41q0 -291 279 -291q137 0 236 104t99 298q0 136 -100 210t-297 72l20 117l328 373q85 97 139 137l19 10v8q-68 -12 -197 -12h-420l25 139h803l-19 -104l-516 -563l-2 -11q179 -2 275 -107t96 -271q0 -242 -150 -381t-347 -139t-301 98t-103 278z" />
    <glyph glyph-name="Acaron" unicode="&#x1cd;" horiz-adv-x="1181" 
d="M770 1341h-94l-203 254h174l53 -69q28 -36 37 -72h2q-2 2 30 40t112 101h182zM705 1110h-9q-45 -121 -143 -307l-168 -316h414q-64 307 -80 465t-14 158zM887 0l-64 356h-506l-186 -356h-172l651 1206h217l226 -1206h-166z" />
    <glyph glyph-name="acaron" unicode="&#x1ce;" horiz-adv-x="1075" 
d="M639 1085h-86l-199 293h162l57 -90q29 -47 35 -82h8q16 33 64 82l90 90h170zM895 111q27 0 59 8l-20 -113q-44 -16 -110 -16t-104 43t-32 125q-82 -182 -289 -183q-141 1 -229 103t-88 284q0 250 131 428t337 179q206 0 243 -183l51 160h129l-131 -743q-16 -92 53 -92z
M561 846q-141 0 -234 -131t-94 -334q1 -125 55 -201t157 -76t178 78q73 78 96 213l29 160q20 115 -29 203t-158 88z" />
    <glyph glyph-name="Icaron" unicode="&#x1cf;" horiz-adv-x="487" 
d="M436 1341h-94l-203 254h174l54 -69q27 -34 36 -72h5q14 29 61 72l78 69h182zM293 1206h164l-211 -1206h-164z" />
    <glyph glyph-name="icaron" unicode="&#x1d0;" horiz-adv-x="497" 
d="M317 111q27 0 60 8l-21 -113q-45 -16 -98 -16q-186 0 -149 205l131 751h155l-131 -743q-16 -92 53 -92zM385 1085h-86l-199 293h162l57 -90q29 -47 35 -82h8q16 33 64 82l90 90h170z" />
    <glyph glyph-name="Ocaron" unicode="&#x1d1;" horiz-adv-x="1261" 
d="M799 1341h-94l-203 254h174l53 -69q28 -36 37 -72h4q14 29 61 72l78 69h183zM711 1094q-199 0 -316 -180t-116 -437q-1 -170 81 -268t234 -98q198 0 314 180t116 436q0 163 -76 265t-237 102zM575 -25q-217 -1 -339 135t-123 355q0 352 177 559t437 207q217 0 340 -136
t123 -356q0 -352 -178 -558t-437 -206z" />
    <glyph glyph-name="ocaron" unicode="&#x1d2;" horiz-adv-x="1005" 
d="M614 1085h-86l-198 293h162l57 -90q29 -47 35 -82h8q16 33 63 82l90 90h170zM543 840q-139 0 -225 -131t-85 -294t61 -241t167 -78q139 0 223 136t84 296t-59 236q-60 76 -166 76zM567 969q168 0 262 -109t95 -297q0 -248 -130 -418t-354 -170q-162 -1 -260 105t-98 297
q0 248 130 420t355 172z" />
    <glyph glyph-name="Ucaron" unicode="&#x1d3;" horiz-adv-x="1191" 
d="M778 1341h-94l-203 254h174l54 -69q27 -34 36 -72h5q14 29 61 72l78 69h182zM1018 1206h164l-146 -827q-70 -403 -506 -404q-206 0 -320 116t-71 360l131 755h164l-135 -774q-29 -166 41 -245t208 -79t220 70t111 234z" />
    <glyph glyph-name="ucaron" unicode="&#x1d4;" 
d="M627 1085h-86l-199 293h162l57 -90q29 -47 35 -82h8q16 33 64 82l90 90h170zM350 -25q-146 1 -206 93t-31 264l106 614h156l-113 -643q-16 -99 19 -155t123 -56t167 76q80 76 103 203l100 575h156l-131 -743q-16 -92 53 -92q27 0 59 8l-20 -113q-45 -16 -98 -16
q-173 0 -146 188q-80 -203 -297 -203z" />
    <glyph glyph-name="uni004100A800AF" unicode="&#x1de;" horiz-adv-x="1181" 
d="M705 1110h-9q-45 -121 -143 -307l-168 -316h414q-64 307 -80 465t-14 158zM817 1391q0 45 33 77t79 33q46 0 78 -32q31 -31 31 -77t-32 -79t-78 -33q-45 0 -78 33t-33 78zM430 1393q0 45 33 77t78 33q45 0 77 -33q32 -34 33 -78q0 -44 -33 -77q-34 -33 -78 -33t-77 33
t-33 78zM1024 1575h-514l20 121h514zM887 0l-64 356h-506l-186 -356h-172l651 1206h217l226 -1206h-166z" />
    <glyph glyph-name="adieresismacron" unicode="&#x1df;" horiz-adv-x="1075" 
d="M696 1155q0 45 33 78t78 33t78 -33t33 -78t-33 -78t-78 -33t-78 33t-33 78zM309 1157q0 45 33 78t79 33t78 -32q31 -32 31 -78t-32 -79t-78 -33q-45 0 -78 34q-33 32 -33 77zM907 1362h-514l23 125h514zM895 111q27 0 59 8l-20 -113q-44 -16 -110 -16t-104 43t-32 125
q-82 -182 -289 -183q-141 1 -229 103t-88 284q0 250 131 428t337 179q206 0 243 -183l51 160h129l-131 -743q-16 -92 53 -92zM561 846q-141 0 -234 -131t-94 -334q1 -125 55 -201t157 -76t178 78q73 78 96 213l29 160q20 115 -29 203t-158 88z" />
    <glyph glyph-name="AEmacron" unicode="&#x1e2;" horiz-adv-x="1712" 
d="M1006 1104l-484 -617h373l70 394q31 181 49 223h-8zM1544 1386h-514l21 121h514zM811 0l61 356h-452l-279 -356h-182l944 1206h840l-25 -139h-557l-69 -395h493l-24 -140h-494l-70 -393h557l-22 -139h-721z" />
    <glyph glyph-name="aemacron" unicode="&#x1e3;" horiz-adv-x="1480" 
d="M623 366q0 52 2 72q-406 -10 -406 -213q0 -133 148 -133q87 0 163 47t105 119q-12 56 -12 108zM1270 654q0 70 -50 131t-150 61t-174 -78q-72 -78 -103 -213h467q10 29 10 99zM1122 1155h-514l23 125h514zM678 139q-92 -164 -342 -164q-121 0 -193 66t-71 180
q0 164 149 247q150 83 420 87q18 78 41 127q4 82 -42 122t-128 40q-170 0 -211 -160l-143 21q35 139 139 201t238 63q195 0 256 -127q127 127 295 127q168 1 250 -97q83 -98 83 -222t-41 -212h-604q-12 -138 43 -240t167 -102t166 40q52 40 81 122l141 -35
q-49 -137 -143 -192t-238 -56q-215 0 -313 164z" />
    <glyph glyph-name="Gstroke" unicode="&#x1e4;" horiz-adv-x="1241" 
d="M113 465q0 352 178 559t438 207q322 0 391 -285l-159 -65q-19 106 -87 160t-161 55q-199 0 -317 -182t-117 -437q-1 -170 79 -268t236 -98q221 0 299 172h-303l20 123h310l18 100h-307l22 133h467l-41 -233h121l-20 -123h-121l-49 -283h-127l-2 154q-83 -178 -303 -178
t-342 134q-122 136 -123 355z" />
    <glyph glyph-name="gstroke" unicode="&#x1e5;" horiz-adv-x="1024" 
d="M565 846q-145 0 -238 -132t-94 -335q1 -125 53 -200t158 -75t180 75q72 75 95 210l31 166q20 115 -28 203t-157 88zM342 -432q-176 0 -262 73t-100 189l139 47q6 -84 68 -139t165 -55q170 0 244 137h-320l13 71h336q2 4 18 72l37 191q-78 -176 -277 -177q-143 1 -232 103
t-89 285q0 248 133 426t337 178t241 -183l51 160h129l-172 -977l-19 -78h146l-13 -71h-155q-102 -252 -418 -252z" />
    <glyph glyph-name="Gcaron" unicode="&#x1e6;" horiz-adv-x="1212" 
d="M784 1341h-94l-203 254h175l53 -69q28 -36 37 -72h4q14 29 61 72l78 69h182zM113 465q0 352 178 559t438 207q322 0 391 -285l-159 -65q-19 106 -87 160t-161 55q-199 0 -317 -182t-117 -437q-1 -170 79 -268t236 -98q274 0 324 282l14 78h-307l24 143h467l-106 -614
h-127l-2 154q-83 -178 -303 -178t-342 134q-122 136 -123 355z" />
    <glyph glyph-name="gcaron" unicode="&#x1e7;" horiz-adv-x="1024" 
d="M633 1085h-86l-199 293h162l57 -90q29 -47 35 -82h8q16 33 64 82l90 90h170zM356 -432q-190 0 -276 73t-100 189l139 47q6 -84 68 -139t177 -55q227 0 279 280l37 191q-78 -176 -277 -177q-143 1 -232 103t-89 285q0 248 133 426t337 178t241 -183l51 160h129l-172 -977
q-37 -207 -146 -304t-299 -97zM565 846q-145 0 -238 -132t-94 -335q1 -125 53 -200t158 -75t180 75q72 75 95 210l31 166q20 115 -28 203t-157 88z" />
    <glyph glyph-name="Kcaron" unicode="&#x1e8;" horiz-adv-x="1040" 
d="M688 1341h-94l-203 254h174l53 -69q28 -36 37 -72h4q14 29 62 72l78 69h182zM940 0h-182l-301 543h-117l-94 -543h-164l211 1206h164l-92 -528h96l467 528h194l-534 -585z" />
    <glyph glyph-name="kcaron" unicode="&#x1e9;" horiz-adv-x="894" 
d="M453 1427h-95l-202 254h174l53 -69q28 -36 37 -72h4q14 29 61 72l78 69h182zM715 -10q-105 0 -154 100l-186 377h-56l-81 -467h-156l240 1368h157l-139 -788h45l350 366h191l-416 -414l166 -348q28 -57 66 -68t104 7l-23 -117q-49 -16 -108 -16z" />
    <glyph glyph-name="Oogonek" unicode="&#x1ea;" horiz-adv-x="1261" 
d="M711 1094q-199 0 -316 -180t-116 -437q-1 -170 81 -268t234 -98q198 0 314 180t116 436q0 163 -76 265t-237 102zM326 -242q0 135 116 234q-158 39 -244 165t-85 308q0 352 177 559t437 207q217 0 340 -136t123 -356q0 -341 -166 -545t-416 -217q-147 -68 -147 -202
q1 -45 27 -73t69 -28q88 0 133 88l60 -71q-61 -123 -218 -123q-100 0 -153 51t-53 139z" />
    <glyph glyph-name="oogonek" unicode="&#x1eb;" horiz-adv-x="1003" 
d="M543 840q-139 0 -225 -131t-85 -294t61 -241t167 -78q139 0 223 136t84 296t-59 236q-60 76 -166 76zM209 -242q0 133 119 234q-115 31 -181 131t-65 254q0 248 130 420t355 172q168 0 262 -109q95 -110 95 -318t-114 -374t-310 -188q-156 -72 -156 -205q0 -45 27 -73
t69 -28q88 0 133 88l60 -71q-61 -123 -217 -123q-100 0 -154 51q-53 51 -53 139z" />
    <glyph glyph-name="uni004F02DB00AF" unicode="&#x1ec;" horiz-adv-x="1261" 
d="M711 1094q-199 0 -316 -180t-116 -437q-1 -170 81 -268t234 -98q198 0 314 180t116 436q0 163 -76 265t-237 102zM326 -242q0 135 116 234q-158 39 -244 165t-85 308q0 352 177 559t437 207q217 0 340 -136t123 -356q0 -341 -166 -545t-416 -217q-147 -68 -147 -202
q1 -45 27 -73t69 -28q88 0 133 88l60 -71q-61 -123 -218 -123q-100 0 -153 51t-53 139zM1028 1386h-514l21 121h514z" />
    <glyph glyph-name="oogonekmacron" unicode="&#x1ed;" horiz-adv-x="1003" 
d="M543 840q-139 0 -225 -131t-85 -294t61 -241t167 -78q139 0 223 136t84 296t-59 236q-60 76 -166 76zM209 -242q0 133 119 234q-115 31 -181 131t-65 254q0 248 130 420t355 172q168 0 262 -109q95 -110 95 -318t-114 -374t-310 -188q-156 -72 -156 -205q0 -45 27 -73
t69 -28q88 0 133 88l60 -71q-61 -123 -217 -123q-100 0 -154 51q-53 51 -53 139zM842 1155h-514l22 125h514z" />
    <glyph glyph-name="Ezhcaron" unicode="&#x1ee;" horiz-adv-x="1015" 
d="M680 1341h-94l-203 254h174l53 -69q28 -36 37 -72h4q14 29 62 72l78 69h182zM82 41q0 -291 279 -291q137 0 236 104t99 298q0 136 -100 210t-297 72l20 117l328 373q85 97 139 137l19 10v8q-68 -12 -197 -12h-420l25 139h803l-19 -104l-516 -563l-2 -11q179 -2 275 -107
t96 -271q0 -242 -150 -381t-347 -139t-301 98t-103 278z" />
    <glyph glyph-name="ezhcaron" unicode="&#x1ef;" horiz-adv-x="849" 
d="M561 1085h-86l-199 293h162l58 -90q27 -45 34 -82h9q16 33 63 82l90 90h170zM416 811h-271l25 135h659l-18 -106l-432 -434v-7q153 -2 231 -94t78 -229q0 -184 -131 -288t-295 -103q-164 -1 -244 77t-79 209l129 31q0 -96 56 -150t160 -54t181 72q76 73 76 194
q0 122 -73 186t-245 76l19 104l215 229l157 150l2 8q-72 -6 -200 -6z" />
    <glyph glyph-name="jcaron" unicode="&#x1f0;" horiz-adv-x="446" 
d="M-94 -307q111 0 139 160l195 1093h155l-192 -1089q-27 -160 -106 -225q-79 -64 -198 -64t-186 53l54 123q68 -51 139 -51zM383 1085h-86l-199 293h162l57 -90q29 -47 35 -82h8q16 33 64 82l90 90h170z" />
    <glyph glyph-name="jcaron" unicode="&#xe10c;" horiz-adv-x="446" 
d="M-94 -307q111 0 139 160l195 1093h155l-192 -1089q-27 -160 -106 -225q-79 -64 -198 -64t-186 53l54 123q68 -51 139 -51zM383 1085h-86l-199 293h162l57 -90q29 -47 35 -82h8q16 33 64 82l90 90h170z" />
    <glyph glyph-name="Gacute" unicode="&#x1f4;" horiz-adv-x="1212" 
d="M805 1341h-141l127 238h213zM113 465q0 352 178 559t438 207q322 0 391 -285l-159 -65q-19 106 -87 160t-161 55q-199 0 -317 -182t-117 -437q-1 -170 79 -268t236 -98q274 0 324 282l14 78h-307l24 143h467l-106 -614h-127l-2 154q-83 -178 -303 -178t-342 134
q-122 136 -123 355z" />
    <glyph glyph-name="gacute" unicode="&#x1f5;" horiz-adv-x="1024" 
d="M649 1085h-133l154 293h215zM356 -432q-190 0 -276 73t-100 189l139 47q6 -84 68 -139t177 -55q227 0 279 280l37 191q-78 -176 -277 -177q-143 1 -232 103t-89 285q0 248 133 426t337 178t241 -183l51 160h129l-172 -977q-37 -207 -146 -304t-299 -97zM565 846
q-145 0 -238 -132t-94 -335q1 -125 53 -200t158 -75t180 75q72 75 95 210l31 166q20 115 -28 203t-157 88z" />
    <glyph glyph-name="Ngrave" unicode="&#x1f8;" horiz-adv-x="1255" 
d="M834 1341h-142l-198 238h213zM463 1206l325 -712q60 -130 91 -236l10 -37h8q16 145 43 297l121 688h164l-211 -1206h-166l-334 709q-48 101 -92 233l-12 39h-9q-8 -141 -34 -293l-121 -688h-164l211 1206h170z" />
    <glyph glyph-name="ngrave" unicode="&#x1f9;" horiz-adv-x="1034" 
d="M694 1085h-133l-235 293h215zM883 111q27 0 59 8l-20 -113q-45 -16 -99 -16q-186 0 -149 205l82 458q33 184 -129 185q-95 0 -183 -76t-116 -244l-90 -518h-156l166 946h135l-14 -192q104 215 305 215q114 1 178 -57t63 -167q0 -47 -8 -94l-78 -448q-16 -92 54 -92z" />
    <glyph glyph-name="uni004102DA00B4" unicode="&#x1fa;" horiz-adv-x="1181" 
d="M767 1544q-48 0 -82 -37t-34 -87t28 -79t76 -29t81 38q33 37 32 86q0 48 -26 78t-75 30zM705 1110h-9q-45 -121 -143 -307l-168 -316h414q-64 307 -80 465t-14 158zM870 1661h-141l127 237h213zM563 1417q-1 83 59 143t147 60t136 -50t49 -131t-58 -141t-148 -61
q-90 0 -138 49q-47 49 -47 131zM887 0l-64 356h-506l-186 -356h-172l651 1206h217l226 -1206h-166z" />
    <glyph glyph-name="aringacute" unicode="&#x1fb;" horiz-adv-x="1075" 
d="M731 1468h-141l127 238h213zM729 1227q-1 49 -27 79t-74 29q-48 0 -82 -37t-34 -87q0 -51 28 -79t76 -28t80 37q33 37 33 86zM424 1208q0 82 59 142t147 61q88 0 136 -50q49 -50 49 -131t-58 -141q-59 -61 -149 -61t-137 49t-47 131zM895 111q27 0 59 8l-20 -113
q-44 -16 -110 -16t-104 43t-32 125q-82 -182 -289 -183q-141 1 -229 103t-88 284q0 250 131 428t337 179q206 0 243 -183l51 160h129l-131 -743q-16 -92 53 -92zM561 846q-141 0 -234 -131t-94 -334q1 -125 55 -201t157 -76t178 78q73 78 96 213l29 160q20 115 -29 203
t-158 88z" />
    <glyph glyph-name="AEacute" unicode="&#x1fc;" horiz-adv-x="1712" 
d="M1006 1104l-484 -617h373l70 394q31 181 49 223h-8zM1337 1341h-141l127 238h213zM811 0l61 356h-452l-279 -356h-182l944 1206h840l-25 -139h-557l-69 -395h493l-24 -140h-494l-70 -393h557l-22 -139h-721z" />
    <glyph glyph-name="aeacute" unicode="&#x1fd;" horiz-adv-x="1480" 
d="M623 366q0 52 2 72q-406 -10 -406 -213q0 -133 148 -133q87 0 163 47t105 119q-12 56 -12 108zM1270 654q0 70 -50 131t-150 61t-174 -78q-72 -78 -103 -213h467q10 29 10 99zM911 1085h-133l154 293h215zM678 139q-92 -164 -342 -164q-121 0 -193 66t-71 180
q0 164 149 247q150 83 420 87q18 78 41 127q4 82 -42 122t-128 40q-170 0 -211 -160l-143 21q35 139 139 201t238 63q195 0 256 -127q127 127 295 127q168 1 250 -97q83 -98 83 -222t-41 -212h-604q-12 -138 43 -240t167 -102t166 40q52 40 81 122l141 -35
q-49 -137 -143 -192t-238 -56q-215 0 -313 164z" />
    <glyph glyph-name="Oslashacute" unicode="&#x1fe;" horiz-adv-x="1261" 
d="M711 1094q-199 0 -316 -180t-116 -437q0 -88 20 -151l647 665q-81 103 -235 103zM842 1341h-142l127 238h213zM1024 727q0 84 -20 147l-648 -663q84 -100 238 -100q198 0 314 180t116 436zM113 465q0 352 177 559t437 207q203 0 328 -125l123 125l92 -84l-140 -143
q59 -115 60 -265q0 -352 -177 -558t-438 -206q-203 0 -329 123l-125 -127l-86 82l139 144q-61 111 -61 268z" />
    <glyph glyph-name="oslashacute" unicode="&#x1ff;" horiz-adv-x="1005" 
d="M461 96q139 0 223 136t84 321q0 23 -4 68l-465 -455q58 -70 162 -70zM533 840q-129 0 -215 -131t-85 -314q0 -66 13 -114l475 467q-59 92 -188 92zM637 1085h-133l153 293h215zM567 969q170 0 264 -113l113 111l84 -88l-135 -131q31 -80 31 -185q0 -248 -130 -418
t-354 -170q-150 0 -243 88l-97 -92l-86 82l111 109q-43 88 -43 215q0 248 130 420t355 172z" />
    <glyph glyph-name="Adoublegrave" unicode="&#x200;" horiz-adv-x="1181" 
d="M705 1110h-9q-45 -121 -143 -307l-168 -316h414q-64 307 -80 465t-14 158zM948 1341h-119l-215 238h201zM662 1341h-123l-236 238h205zM887 0l-64 356h-506l-186 -356h-172l651 1206h217l226 -1206h-166z" />
    <glyph glyph-name="edoublegrave" unicode="&#x201;" horiz-adv-x="940" 
d="M465 1085h-123l-236 293h205zM752 1085h-119l-215 293h200zM729 635q0 90 -50 150q-51 61 -153 61t-176 -80t-104 -203h473q10 29 10 72zM457 96q100 0 152 40t81 122l141 -35q-49 -137 -145 -192t-254 -55t-254 108q-96 109 -96 293q0 272 138 432t316 160
q178 1 260 -97q83 -98 83 -222t-41 -212h-611q-13 -138 45 -240t185 -102z" />
    <glyph glyph-name="edoublegrave" unicode="&#x205;" horiz-adv-x="940" 
d="M465 1085h-123l-236 293h205zM752 1085h-119l-215 293h200zM729 635q0 90 -50 150q-51 61 -153 61t-176 -80t-104 -203h473q10 29 10 72zM457 96q100 0 152 40t81 122l141 -35q-49 -137 -145 -192t-254 -55t-254 108q-96 109 -96 293q0 272 138 432t316 160
q178 1 260 -97q83 -98 83 -222t-41 -212h-611q-13 -138 45 -240t185 -102z" />
    <glyph glyph-name="Ainvertedbreve" unicode="&#x202;" horiz-adv-x="1181" 
d="M705 1110h-9q-45 -121 -143 -307l-168 -316h414q-64 307 -80 465t-14 158zM785 1604q123 0 183 -70t38 -188h-125q6 70 -21 106t-96 35q-129 0 -168 -141h-125q23 118 107 188t207 70zM887 0l-64 356h-506l-186 -356h-172l651 1206h217l226 -1206h-166z" />
    <glyph glyph-name="ainvertedbreve" unicode="&#x203;" horiz-adv-x="1075" 
d="M637 1368q125 0 183 -75t36 -203h-125q5 80 -17 120t-98 39q-76 0 -114 -40t-58 -119h-125q23 130 108 204t210 74zM895 111q27 0 59 8l-20 -113q-44 -16 -110 -16t-104 43t-32 125q-82 -182 -289 -183q-141 1 -229 103t-88 284q0 250 131 428t337 179q206 0 243 -183
l51 160h129l-131 -743q-16 -92 53 -92zM561 846q-141 0 -234 -131t-94 -334q1 -125 55 -201t157 -76t178 78q73 78 96 213l29 160q20 115 -29 203t-158 88z" />
    <glyph glyph-name="Edoublegrave" unicode="&#x204;" horiz-adv-x="983" 
d="M580 1341h-123l-236 238h205zM866 1341h-118l-216 238h201zM825 139l-22 -139h-721l211 1206h721l-25 -139h-557l-70 -395h494l-25 -140h-493l-70 -393h557z" />
    <glyph glyph-name="Einvertedbreve" unicode="&#x206;" horiz-adv-x="983" 
d="M701 1604q123 0 183 -70t38 -188h-125q6 70 -21 106t-96 35q-129 0 -168 -141h-125q23 118 107 188t207 70zM825 139l-22 -139h-721l211 1206h721l-25 -139h-557l-70 -395h494l-25 -140h-493l-70 -393h557z" />
    <glyph glyph-name="einvertedbreve" unicode="&#x207;" horiz-adv-x="940" 
d="M578 1368q125 0 183 -75t36 -203h-125q6 80 -17 120t-99 39q-76 0 -113 -40q-38 -40 -58 -119h-125q23 130 108 204t210 74zM729 635q0 90 -50 150q-51 61 -153 61t-176 -80t-104 -203h473q10 29 10 72zM457 96q100 0 152 40t81 122l141 -35q-49 -137 -145 -192t-254 -55
t-254 108q-96 109 -96 293q0 272 138 432t316 160q178 1 260 -97q83 -98 83 -222t-41 -212h-611q-13 -138 45 -240t185 -102z" />
    <glyph glyph-name="Idoublegrave" unicode="&#x208;" horiz-adv-x="487" 
d="M328 1341h-123l-236 238h205zM614 1341h-118l-215 238h200zM293 1206h164l-211 -1206h-164z" />
    <glyph glyph-name="idoublegrave" unicode="&#x209;" horiz-adv-x="497" 
d="M268 1085h-123l-235 293h205zM555 1085h-119l-215 293h201zM317 111q27 0 60 8l-21 -113q-45 -16 -98 -16q-186 0 -149 205l131 751h155l-131 -743q-16 -92 53 -92z" />
    <glyph glyph-name="Iinvertedbreve" unicode="&#x20a;" horiz-adv-x="487" 
d="M450 1604q124 0 183 -70t37 -188h-125q6 70 -21 106t-96 35q-129 0 -168 -141h-125q23 118 107 188t208 70zM293 1206h164l-211 -1206h-164z" />
    <glyph glyph-name="iinvertedbreve" unicode="&#x20b;" horiz-adv-x="497" 
d="M383 1368q125 0 183 -75t36 -203h-125q5 80 -17 120t-98 39q-76 0 -114 -40t-58 -119h-124q24 130 108 204t209 74zM317 111q27 0 60 8l-21 -113q-45 -16 -98 -16q-186 0 -149 205l131 751h155l-131 -743q-16 -92 53 -92z" />
    <glyph glyph-name="Odoublegrave" unicode="&#x20c;" horiz-adv-x="1261" 
d="M690 1341h-123l-235 238h205zM977 1341h-119l-215 238h201zM711 1094q-199 0 -316 -180t-116 -437q-1 -170 81 -268t234 -98q198 0 314 180t116 436q0 163 -76 265t-237 102zM575 -25q-217 -1 -339 135t-123 355q0 352 177 559t437 207q217 0 340 -136t123 -356
q0 -352 -178 -558t-437 -206z" />
    <glyph glyph-name="odoublegrave" unicode="&#x20d;" horiz-adv-x="1005" 
d="M500 1085h-123l-236 293h205zM786 1085h-118l-215 293h200zM543 840q-139 0 -225 -131t-85 -294t61 -241t167 -78q139 0 223 136t84 296t-59 236q-60 76 -166 76zM567 969q168 0 262 -109t95 -297q0 -248 -130 -418t-354 -170q-162 -1 -260 105t-98 297q0 248 130 420
t355 172z" />
    <glyph glyph-name="Oinvertedbreve" unicode="&#x20e;" horiz-adv-x="1261" 
d="M812 1604q124 0 183 -70t37 -188h-125q5 70 -21 106t-95 35q-129 0 -168 -141h-125q22 118 106 188t208 70zM711 1094q-199 0 -316 -180t-116 -437q-1 -170 81 -268t234 -98q198 0 314 180t116 436q0 163 -76 265t-237 102zM575 -25q-217 -1 -339 135t-123 355
q0 352 177 559t437 207q217 0 340 -136t123 -356q0 -352 -178 -558t-437 -206z" />
    <glyph glyph-name="oinvertedbreve" unicode="&#x20f;" horiz-adv-x="1005" 
d="M612 1368q126 0 184 -75t35 -203h-124q6 80 -17 120q-22 40 -98 39q-76 0 -114 -40t-58 -119h-125q23 130 107 204t210 74zM543 840q-139 0 -225 -131t-85 -294t61 -241t167 -78q139 0 223 136t84 296t-59 236q-60 76 -166 76zM567 969q168 0 262 -109t95 -297
q0 -248 -130 -418t-354 -170q-162 -1 -260 105t-98 297q0 248 130 420t355 172z" />
    <glyph glyph-name="Rinvertedbreve" unicode="&#x212;" horiz-adv-x="1095" 
d="M722 1604q124 0 183 -70t37 -188h-125q5 70 -21 106t-96 35q-129 0 -168 -141h-124q22 118 106 188t208 70zM590 643q276 0 276 256q0 90 -47 132t-153 42h-232l-76 -430h232zM506 512h-170l-90 -512h-164l211 1206h399q186 0 264 -72t78 -226q0 -152 -102 -241t-232 -96
v-8q84 -10 125 -53t60 -143l43 -242q12 -70 51 -125h-174q-29 35 -41 109l-37 219q-19 112 -67 148t-154 36z" />
    <glyph glyph-name="rinvertedbreve" unicode="&#x213;" horiz-adv-x="679" 
d="M539 1368q125 0 183 -75t36 -203h-125q6 80 -17 120q-22 40 -98 39q-76 0 -114 -40t-58 -119h-125q23 130 108 204t210 74zM721 965l-41 -183q-113 23 -218 -42t-128 -193l-96 -547h-156l166 946h135l-18 -215q49 115 148 183t208 51z" />
    <glyph glyph-name="Udoublegrave" unicode="&#x214;" horiz-adv-x="1191" 
d="M670 1341h-123l-236 238h205zM956 1341h-118l-215 238h200zM1018 1206h164l-146 -827q-70 -403 -506 -404q-206 0 -320 116t-71 360l131 755h164l-135 -774q-29 -166 41 -245t208 -79t220 70t111 234z" />
    <glyph glyph-name="udoublegrave" unicode="&#x215;" 
d="M512 1085h-123l-235 293h204zM799 1085h-119l-215 293h201zM350 -25q-146 1 -206 93t-31 264l106 614h156l-113 -643q-16 -99 19 -155t123 -56t167 76q80 76 103 203l100 575h156l-131 -743q-16 -92 53 -92q27 0 59 8l-20 -113q-45 -16 -98 -16q-173 0 -146 188
q-80 -203 -297 -203z" />
    <glyph glyph-name="Uinvertedbreve" unicode="&#x216;" horiz-adv-x="1191" 
d="M792 1604q124 0 183 -70t37 -188h-125q6 70 -21 106t-96 35q-129 0 -168 -141h-125q23 118 107 188t208 70zM1018 1206h164l-146 -827q-70 -403 -506 -404q-206 0 -320 116t-71 360l131 755h164l-135 -774q-29 -166 41 -245t208 -79t220 70t111 234z" />
    <glyph glyph-name="uinvertedbreve" unicode="&#x217;" 
d="M625 1368q125 0 183 -75t36 -203h-125q6 80 -17 120q-22 40 -98 39q-76 0 -114 -40t-58 -119h-125q23 130 108 204t210 74zM350 -25q-146 1 -206 93t-31 264l106 614h156l-113 -643q-16 -99 19 -155t123 -56t167 76q80 76 103 203l100 575h156l-131 -743q-16 -92 53 -92
q27 0 59 8l-20 -113q-45 -16 -98 -16q-173 0 -146 188q-80 -203 -297 -203z" />
    <glyph glyph-name="Scommaaccent" unicode="&#x218;" horiz-adv-x="980" 
d="M475 -287q0 -106 -72 -160t-190 -55v70q147 8 147 90q-53 -10 -85 16t-31 74q0 47 29 74q30 26 80 26t86 -34t36 -101zM680 307q0 99 -47 151t-179 103t-201 118t-69 197t68 213q116 142 334 142q182 0 273 -74t91 -244l-153 -24q5 107 -53 163t-168 56t-175 -54
t-65 -146t47 -130q47 -39 185 -96t206 -132t68 -214q0 -178 -122 -269t-308 -92q-371 1 -371 320l147 27q-4 -222 240 -224q120 0 186 54t66 155z" />
    <glyph glyph-name="scommaaccent" unicode="&#x219;" horiz-adv-x="817" 
d="M401 -287q1 -106 -71 -160t-191 -55v70q147 8 148 90q-53 -10 -85 16t-32 74q0 47 30 74q30 26 80 26t86 -34q35 -35 35 -101zM369 88q176 0 176 148q0 72 -38 112q-39 40 -143 80q-104 39 -158 102t-54 179t90 188t231 72q283 0 283 -248l-146 -16q0 147 -151 147
q-76 0 -121 -37t-45 -98t36 -99q37 -38 151 -86q114 -46 163 -113t49 -187t-88 -188q-88 -69 -242 -69t-238 74t-83 203l141 29q0 -97 50 -145t137 -48z" />
    <glyph glyph-name="Hcaron" unicode="&#x21e;" horiz-adv-x="1257" 
d="M821 1341h-94l-203 254h174l54 -69q27 -34 36 -72h5q14 29 61 72l78 69h182zM246 0h-164l211 1206h164l-92 -524h606l92 524h164l-211 -1206h-164l94 543h-606z" />
    <glyph glyph-name="hcaron" unicode="&#x21f;" horiz-adv-x="1034" 
d="M453 1448h-95l-202 254h174l53 -70q28 -36 37 -71h4q14 29 61 71l78 70h182zM883 111q27 0 59 8l-20 -113q-45 -16 -99 -16q-186 0 -149 205l82 458q33 184 -129 185q-95 0 -183 -76t-116 -244l-90 -518h-156l237 1368h160l-110 -614q104 215 305 215q114 1 178 -57
t63 -167q0 -47 -8 -94l-78 -448q-16 -92 54 -92z" />
    <glyph glyph-name="Adotabove" unicode="&#x226;" horiz-adv-x="1181" 
d="M705 1110h-9q-45 -121 -143 -307l-168 -316h414q-64 307 -80 465t-14 158zM744 1374q-46 0 -78 33t-31 79q0 46 32 79q31 33 77 33t79 -34q33 -32 33 -78t-33 -79t-79 -33zM887 0l-64 356h-506l-186 -356h-172l651 1206h217l226 -1206h-166z" />
    <glyph glyph-name="adotabove" unicode="&#x227;" horiz-adv-x="1075" 
d="M725 1254q0 -46 -33 -78t-79 -33q-45 1 -77 33t-32 78t32 79t78 33t78 -33q33 -33 33 -79zM895 111q27 0 59 8l-20 -113q-44 -16 -110 -16t-104 43t-32 125q-82 -182 -289 -183q-141 1 -229 103t-88 284q0 250 131 428t337 179q206 0 243 -183l51 160h129l-131 -743
q-16 -92 53 -92zM561 846q-141 0 -234 -131t-94 -334q1 -125 55 -201t157 -76t178 78q73 78 96 213l29 160q20 115 -29 203t-158 88z" />
    <glyph glyph-name="Otildemacron" unicode="&#x22c;" horiz-adv-x="1261" 
d="M1044 1542h-514l21 121h514zM870 1255q-64 0 -104 27q-6 4 -23 14t-40 26q-23 15 -30 18q-7 4 -23 12t-42 8q-74 0 -80 -100h-98q-16 94 37 162t145 69q14 0 28 -2t22 -3q10 -1 22 -6t17 -7q5 -3 19 -11t16 -9t18 -11t18 -12q68 -45 102 -46q63 0 76 107h105
q11 -102 -39 -169t-146 -67zM711 1094q-199 0 -316 -180t-116 -437q-1 -170 81 -268t234 -98q198 0 314 180t116 436q0 163 -76 265t-237 102zM575 -25q-217 -1 -339 135t-123 355q0 352 177 559t437 207q217 0 340 -136t123 -356q0 -352 -178 -558t-437 -206z" />
    <glyph glyph-name="otildemacron" unicode="&#x22d;" horiz-adv-x="1005" 
d="M879 1311h-514l22 125h514zM711 1014q-60 0 -105 26l-21 14q-15 9 -23 13t-24 16q-16 11 -24 15l-24 12t-41 8q-74 0 -80 -100h-99q-16 94 37 163t146 68q14 0 27 -2q12 -2 22 -3t22 -6t18 -7t18 -10q13 -8 25 -13t27 -20q68 -45 103 -45q63 0 76 106h104
q12 -103 -38 -169t-146 -66zM543 840q-139 0 -225 -131t-85 -294t61 -241t167 -78q139 0 223 136t84 296t-59 236q-60 76 -166 76zM567 969q168 0 262 -109t95 -297q0 -248 -130 -418t-354 -170q-162 -1 -260 105t-98 297q0 248 130 420t355 172z" />
    <glyph glyph-name="Odotabove" unicode="&#x22e;" horiz-adv-x="1261" 
d="M664 1486q0 46 31 79q32 33 78 33t79 -34q33 -32 33 -78t-33 -79t-79 -33t-78 33q-31 33 -31 79zM711 1094q-199 0 -316 -180t-116 -437q-1 -170 81 -268t234 -98q198 0 314 180t116 436q0 163 -76 265t-237 102zM575 -25q-217 -1 -339 135t-123 355q0 352 177 559
t437 207q217 0 340 -136t123 -356q0 -352 -178 -558t-437 -206z" />
    <glyph glyph-name="odotabove" unicode="&#x22f;" horiz-adv-x="1005" 
d="M669 1143q-46 1 -78 33t-32 78t32 79t78 33t79 -33q32 -33 32 -79t-32 -78t-79 -33zM543 840q-139 0 -225 -131t-85 -294t61 -241t167 -78q139 0 223 136t84 296t-59 236q-60 76 -166 76zM567 969q168 0 262 -109t95 -297q0 -248 -130 -418t-354 -170q-162 -1 -260 105
t-98 297q0 248 130 420t355 172z" />
    <glyph glyph-name="odotabovemacron" unicode="&#x231;" horiz-adv-x="1005" 
d="M727 1127q0 -47 -33 -79t-79 -32q-45 0 -77 32t-32 79q0 46 32 79t78 33t78 -33q33 -33 33 -79zM907 1307h-514l23 125h514zM543 840q-139 0 -225 -131t-85 -294t61 -241t167 -78q139 0 223 136t84 296t-59 236q-60 76 -166 76zM567 969q168 0 262 -109t95 -297
q0 -248 -130 -418t-354 -170q-162 -1 -260 105t-98 297q0 248 130 420t355 172z" />
    <glyph glyph-name="odotabovemacron" unicode="&#xe11e;" horiz-adv-x="1005" 
d="M727 1127q0 -47 -33 -79t-79 -32q-45 0 -77 32t-32 79q0 46 32 79t78 33t78 -33q33 -33 33 -79zM907 1307h-514l23 125h514zM543 840q-139 0 -225 -131t-85 -294t61 -241t167 -78q139 0 223 136t84 296t-59 236q-60 76 -166 76zM567 969q168 0 262 -109t95 -297
q0 -248 -130 -418t-354 -170q-162 -1 -260 105t-98 297q0 248 130 420t355 172z" />
    <glyph glyph-name="Ymacron" unicode="&#x232;" horiz-adv-x="1011" 
d="M924 1386h-514l20 121h514zM342 1206l139 -413q40 -127 45 -187l2 -22h9q25 78 106 207l266 415h174l-487 -731l-82 -475h-164l82 475l-258 731h168z" />
    <glyph glyph-name="ymacron" unicode="&#x233;" horiz-adv-x="856" 
d="M758 1155h-514l22 125h514zM342 131v-33h8q29 113 123 297l279 551h166l-560 -1061q-100 -189 -187 -253t-185 -64t-160 35l33 116q146 -79 254 26q59 58 131 200l-152 1001h164l63 -549q23 -157 23 -266z" />
    <glyph glyph-name="dotlessj" unicode="&#x237;" horiz-adv-x="446" 
d="M-94 -307q111 0 139 160l195 1093h155l-192 -1089q-27 -160 -106 -225q-79 -64 -198 -64t-186 53l54 123q68 -51 139 -51z" />
    <glyph glyph-name="schwa" unicode="&#x259;" horiz-adv-x="960" 
d="M709 381h-467q-10 -29 -11 -72q1 -90 51 -150t144 -61q209 0 283 283zM504 848q-160 0 -242 -166l-133 39q106 248 389 248q168 0 264 -109t97 -293q1 -283 -137 -437t-316 -155t-261 97t-83 222t41 212h604q12 138 -43 240t-180 102z" />
    <glyph glyph-name="ezh" unicode="&#x292;" horiz-adv-x="849" 
d="M416 811h-271l25 135h659l-18 -106l-432 -434v-7q153 -2 231 -94t78 -229q0 -184 -131 -288t-295 -103q-164 -1 -244 77t-79 209l129 31q0 -96 56 -150t160 -54t181 72q76 73 76 194q0 122 -73 186t-245 76l19 104l215 229l157 150l2 8q-72 -6 -200 -6z" />
    <glyph glyph-name="circumflex" unicode="&#x2c6;" horiz-adv-x="913" 
d="M465 1378h86l199 -293h-162l-58 91q-23 38 -34 81h-9q-16 -33 -63 -81l-90 -91h-170z" />
    <glyph glyph-name="caron" unicode="&#x2c7;" horiz-adv-x="913" 
d="M449 1085h-87l-198 293h162l57 -90q29 -47 35 -82h8q16 33 63 82l91 90h170z" />
    <glyph glyph-name="breve" unicode="&#x2d8;" horiz-adv-x="872" 
d="M391 1083q-125 0 -183 75t-36 204h125q-5 -80 17 -120t98 -40t114 40t58 120h125q-23 -129 -108 -204t-210 -75z" />
    <glyph glyph-name="dotaccent" unicode="&#x2d9;" horiz-adv-x="548" 
d="M385 1254q0 -46 -33 -78t-79 -33q-45 1 -77 33t-32 78t32 79t78 33t78 -33q33 -33 33 -79z" />
    <glyph glyph-name="ring" unicode="&#x2da;" horiz-adv-x="718" 
d="M469 1276q-1 48 -27 78t-74 30t-82 -36t-34 -87q0 -50 28 -79t76 -29t80 37q33 37 33 86zM164 1257q0 83 59 143t147 60t136 -50q49 -50 49 -131t-58 -141q-59 -60 -149 -60t-137 48q-47 49 -47 131z" />
    <glyph glyph-name="ogonek" unicode="&#x2db;" horiz-adv-x="751" 
d="M164 -242q0 142 123 236t245 98l64 -92q-119 0 -208 -63t-89 -162q0 -45 27 -73t69 -28q88 0 133 88l60 -71q-61 -123 -217 -123q-100 0 -154 51q-53 51 -53 139z" />
    <glyph glyph-name="tilde" unicode="&#x2dc;" horiz-adv-x="960" 
d="M608 1087q-64 0 -104 27q-6 4 -23 14t-40 26q-23 15 -30 18q-7 4 -23 12t-42 8q-74 0 -80 -100h-98q-16 94 37 162t145 69q14 0 28 -2t22 -3t26 -8q18 -8 32 -16t16 -9t18 -11t18 -12q68 -45 102 -45q63 0 76 106h105q11 -102 -39 -169t-146 -67z" />
    <glyph glyph-name="hungarumlaut" unicode="&#x2dd;" horiz-adv-x="972" 
d="M573 1085h-122l153 293h205zM283 1085h-119l133 293h201z" />
    <glyph glyph-name="uni0312" unicode="&#x312;" horiz-adv-x="622" 
d="M164 1475q0 106 72 160t190 55v-70q-147 -8 -147 -90q53 10 85 -17t32 -73t-30 -74q-30 -27 -80 -27t-86 35t-36 101z" />
    <glyph glyph-name="uni0320" unicode="&#x320;" horiz-adv-x="864" 
d="M678 -369h-514l22 125h514z" />
    <glyph glyph-name="uni0323" unicode="&#x323;" horiz-adv-x="548" 
d="M272 -350q-44 0 -76 32t-32 79q0 46 32 79t78 33t78 -33q33 -33 33 -79q0 -47 -34 -79t-79 -32z" />
    <glyph glyph-name="uni0329" unicode="&#x329;" horiz-adv-x="460" 
d="M164 -117h133v-268l-133 -8v276z" />
    <glyph glyph-name="pi" unicode="&#x3c0;" horiz-adv-x="1241" 
d="M436 985h805l-22 -127h-224l-123 -647q-25 -123 52 -123q44 0 74 44q11 15 32 50l103 -63q-43 -80 -99 -112t-152 -32q-96 -1 -140 63t-23 169l129 651h-275l-245 -858h-154l254 858h-29q-94 0 -151 -53t-64 -152h-133q5 160 109 246t276 86z" />
    <glyph glyph-name="uni0E3F" unicode="&#xe3f;" horiz-adv-x="989" 
d="M772 737q0 115 -158 119l-51 -293q209 0 209 174zM297 434l-53 -305h139l55 305h-141zM319 563h142l51 293h-141zM578 434h-37l-56 -305h21q115 0 178 38t64 134q0 133 -170 133zM901 307q-1 -155 -109 -231t-292 -76h-37l-37 -217h-102l36 217h-299l172 985h302l34 191
h103l-35 -191q141 0 216 -56t75 -165q-1 -223 -226 -256v-6q96 -4 148 -60t51 -135z" />
    <glyph glyph-name="Ddotbelow" unicode="&#x1e0c;" horiz-adv-x="1204" 
d="M256 -290q0 46 32 79t78 33t78 -33t33 -79q0 -46 -33 -79q-32 -33 -78 -33t-78 34q-32 32 -32 78zM471 0h-389l211 1206h328q253 0 377 -119t124 -327q0 -561 -416 -718q-112 -42 -235 -42zM463 133q213 0 350 150t137 454q0 336 -354 336h-162l-166 -940h195z" />
    <glyph glyph-name="ddotbelow" unicode="&#x1e0d;" horiz-adv-x="1067" 
d="M283 -290q0 46 31 79q32 33 78 33t79 -33t33 -79t-33 -79t-79 -33t-78 33q-31 33 -31 79zM895 111q27 0 59 8l-20 -113q-44 -16 -110 -16t-104 43t-32 125q-68 -182 -289 -183q-141 1 -229 103t-88 284q0 250 131 428t336 179q205 0 242 -183l102 582h154l-205 -1165
q-16 -92 53 -92zM561 844q-143 0 -236 -131t-94 -334q1 -123 55 -199t158 -76t179 77q73 77 96 212l31 162q20 115 -30 202t-159 87z" />
    <glyph glyph-name="Dcedilla" unicode="&#x1e10;" horiz-adv-x="1204" 
d="M463 133q213 0 350 150t137 454q0 336 -354 336h-162l-166 -940h195zM575 -264q0 -78 -60 -123t-165 -45t-162 78l48 98q50 -76 130 -76t80 74q0 90 -141 90l64 168h-287l211 1206h328q253 0 377 -119t124 -329t-58 -362t-158 -234q-196 -162 -453 -162l-37 -86
q82 -18 120 -59t39 -119z" />
    <glyph glyph-name="dcedilla" unicode="&#x1e11;" horiz-adv-x="1067" 
d="M561 844q-143 0 -236 -131t-94 -334q1 -123 55 -199t158 -76t179 77q73 77 96 212l31 162q20 115 -30 202t-159 87zM602 -264q0 -78 -60 -123t-164 -45t-163 78l47 98q51 -76 131 -76t80 74q0 90 -141 90l53 143q-161 13 -241 137q-62 97 -62 250q0 222 106 392
q134 216 350 215q216 0 253 -183l102 582h154l-205 -1165q-16 -92 53 -92q27 0 59 8l-20 -113q-44 -16 -110 -16t-104 43t-32 125q-55 -147 -217 -176l-29 -68q82 -18 121 -59t39 -119z" />
    <glyph glyph-name="Hdotbelow" unicode="&#x1e24;" horiz-adv-x="1257" 
d="M385 -290q0 46 32 79t78 33q47 0 79 -33t32 -79t-33 -79t-79 -33t-77 34q-32 32 -32 78zM246 0h-164l211 1206h164l-92 -524h606l92 524h164l-211 -1206h-164l94 543h-606z" />
    <glyph glyph-name="hdotbelow" unicode="&#x1e25;" horiz-adv-x="1034" 
d="M293 -290q0 46 32 79q31 33 77 33t79 -33t33 -79t-33 -79t-79 -33t-78 34q-32 32 -31 78zM883 111q27 0 59 8l-20 -113q-45 -16 -99 -16q-186 0 -149 205l82 458q33 184 -129 185q-95 0 -183 -76t-116 -244l-90 -518h-156l237 1368h160l-110 -614q104 215 305 215
q114 1 178 -57t63 -167q0 -47 -8 -94l-78 -448q-16 -92 54 -92z" />
    <glyph glyph-name="Ldotbelow" unicode="&#x1e36;" horiz-adv-x="937" 
d="M295 -290q0 46 32 79q31 33 77 33t79 -33t33 -79t-33 -79t-79 -33t-78 34q-32 32 -31 78zM293 1206h164l-189 -1067h557l-22 -139h-721z" />
    <glyph glyph-name="ldotbelow" unicode="&#x1e37;" horiz-adv-x="489" 
d="M29 -290q0 46 31 79q32 33 78 33t79 -33t33 -79t-33 -79t-79 -33t-78 33q-31 33 -31 79zM317 111q27 0 60 8l-21 -113q-45 -16 -98 -16q-186 0 -149 205l204 1173h156l-205 -1165q-16 -92 53 -92z" />
    <glyph glyph-name="uni004C032300AF" unicode="&#x1e38;" horiz-adv-x="937" 
d="M680 1386h-514l20 121h514zM295 -290q0 46 32 79q31 33 77 33t79 -33t33 -79t-33 -79t-79 -33t-78 34q-32 32 -31 78zM293 1206h164l-189 -1067h557l-22 -139h-721z" />
    <glyph glyph-name="ldotbelowmacron" unicode="&#x1e39;" horiz-adv-x="489" 
d="M678 1444h-514l20 121h514zM29 -290q0 46 31 79q32 33 78 33t79 -33t33 -79t-33 -79t-79 -33t-78 33q-31 33 -31 79zM317 111q27 0 60 8l-21 -113q-45 -16 -98 -16q-186 0 -149 205l204 1173h156l-205 -1165q-16 -92 53 -92z" />
    <glyph glyph-name="Mdotbelow" unicode="&#x1e42;" horiz-adv-x="1413" 
d="M463 -290q0 46 32 79q31 33 77 33t79 -33t33 -79t-33 -79t-79 -33t-78 34q-32 32 -31 78zM748 301h-123l-158 449q-42 112 -49 202l-2 27h-8q-4 -76 -29 -221l-133 -758h-164l211 1206h192l187 -579q28 -91 37 -170h8q16 63 84 164l389 585h192l-211 -1206h-163l133 758
q22 148 43 198l6 23h-8q-33 -78 -127 -219z" />
    <glyph glyph-name="mdotbelow" unicode="&#x1e43;" horiz-adv-x="1546" 
d="M522 -290q0 46 32 79t78 33t79 -33t33 -79t-34 -79q-32 -33 -78 -33t-78 34q-32 32 -32 78zM1427 745q0 -47 -8 -94l-78 -448q-16 -92 54 -92q27 0 59 8l-20 -113q-45 -16 -99 -16q-186 0 -149 205l82 458q33 184 -129 185q-84 0 -166 -77t-111 -243l-92 -518h-154
l117 653q33 184 -129 185q-84 0 -166 -77t-110 -243l-90 -518h-156l166 946h135l-14 -192q53 110 119 162t172 52t169 -60t64 -169q51 115 124 172t179 57t168 -58t63 -165z" />
    <glyph glyph-name="Ndotaccent" unicode="&#x1e44;" horiz-adv-x="1255" 
d="M662 1486q0 46 31 79q32 33 78 33t79 -34q33 -32 33 -78t-33 -79t-79 -33t-78 33q-31 33 -31 79zM463 1206l325 -712q60 -130 91 -236l10 -37h8q16 145 43 297l121 688h164l-211 -1206h-166l-334 709q-48 101 -92 233l-12 39h-9q-8 -141 -34 -293l-121 -688h-164
l211 1206h170z" />
    <glyph glyph-name="ndotaccent" unicode="&#x1e45;" horiz-adv-x="1034" 
d="M731 1254q0 -46 -33 -78t-79 -33q-45 1 -77 33t-32 78t32 79t78 33t78 -33q33 -33 33 -79zM883 111q27 0 59 8l-20 -113q-45 -16 -99 -16q-186 0 -149 205l82 458q33 184 -129 185q-95 0 -183 -76t-116 -244l-90 -518h-156l166 946h135l-14 -192q104 215 305 215
q114 1 178 -57t63 -167q0 -47 -8 -94l-78 -448q-16 -92 54 -92z" />
    <glyph glyph-name="Ndotbelow" unicode="&#x1e46;" horiz-adv-x="1255" 
d="M360 -290q0 46 32 79t78 33t79 -33t33 -79t-33 -79t-79 -33t-78 34q-32 32 -32 78zM463 1206l325 -712q60 -130 91 -236l10 -37h8q16 145 43 297l121 688h164l-211 -1206h-166l-334 709q-48 101 -92 233l-12 39h-9q-8 -141 -34 -293l-121 -688h-164l211 1206h170z" />
    <glyph glyph-name="ndotbelow" unicode="&#x1e47;" horiz-adv-x="1034" 
d="M250 -290q0 46 32 79t78 33t78 -33q33 -33 33 -79t-33 -79t-79 -33q-45 0 -77 34q-32 32 -32 78zM883 111q27 0 59 8l-20 -113q-45 -16 -99 -16q-186 0 -149 205l82 458q33 184 -129 185q-95 0 -183 -76t-116 -244l-90 -518h-156l166 946h135l-14 -192q104 215 305 215
q114 1 178 -57t63 -167q0 -47 -8 -94l-78 -448q-16 -92 54 -92z" />
    <glyph glyph-name="Rdotbelow" unicode="&#x1e5a;" horiz-adv-x="1095" 
d="M334 -290q0 46 32 79t78 33t78 -33q33 -33 33 -79t-33 -79t-79 -33q-45 0 -77 34q-32 32 -32 78zM590 643q276 0 276 256q0 90 -47 132t-153 42h-232l-76 -430h232zM506 512h-170l-90 -512h-164l211 1206h399q186 0 264 -72t78 -226q0 -152 -102 -241t-232 -96v-8
q84 -10 125 -53t60 -143l43 -242q12 -70 51 -125h-174q-29 35 -41 109l-37 219q-19 112 -67 148t-154 36z" />
    <glyph glyph-name="rdotbelow" unicode="&#x1e5b;" horiz-adv-x="679" 
d="M10 -290q0 46 32 79t78 33t79 -33t33 -79t-34 -79q-32 -33 -78 -33t-78 34q-32 32 -32 78zM721 965l-41 -183q-113 23 -218 -42t-128 -193l-96 -547h-156l166 946h135l-18 -215q49 115 148 183t208 51z" />
    <glyph glyph-name="Rdotbelowmacron" unicode="&#x1e5c;" horiz-adv-x="1095" 
d="M938 1386h-514l20 121h514zM334 -290q0 46 32 79t78 33t78 -33q33 -33 33 -79t-33 -79t-79 -33q-45 0 -77 34q-32 32 -32 78zM590 643q276 0 276 256q0 90 -47 132t-153 42h-232l-76 -430h232zM506 512h-170l-90 -512h-164l211 1206h399q186 0 264 -72t78 -226
q0 -152 -102 -241t-232 -96v-8q84 -10 125 -53t60 -143l43 -242q12 -70 51 -125h-174q-29 35 -41 109l-37 219q-19 112 -67 148t-154 36z" />
    <glyph glyph-name="rdotbelowmacron" unicode="&#x1e5d;" horiz-adv-x="679" 
d="M10 -290q0 46 32 79t78 33t79 -33t33 -79t-34 -79q-32 -33 -78 -33t-78 34q-32 32 -32 78zM768 1155h-514l22 125h515zM721 965l-41 -183q-113 23 -218 -42t-128 -193l-96 -547h-156l166 946h135l-18 -215q49 115 148 183t208 51z" />
    <glyph glyph-name="Sdotbelow" unicode="&#x1e62;" horiz-adv-x="980" 
d="M227 -290q0 46 32 79t78 33t79 -33t33 -79t-33 -79t-79 -33t-78 34q-32 32 -32 78zM680 307q0 99 -47 151t-179 103t-201 118t-69 197t68 213q116 142 334 142q182 0 273 -74t91 -244l-153 -24q5 107 -53 163t-168 56t-175 -54t-65 -146t47 -130q47 -39 185 -96t206 -132
t68 -214q0 -178 -122 -269t-308 -92q-371 1 -371 320l147 27q-4 -222 240 -224q120 0 186 54t66 155z" />
    <glyph glyph-name="sdotbelow" unicode="&#x1e63;" horiz-adv-x="817" 
d="M152 -290q0 46 31 79q32 33 78 33t79 -33t33 -79t-33 -79t-79 -33t-78 33q-31 33 -31 79zM369 88q176 0 176 148q0 72 -38 112q-39 40 -143 80q-104 39 -158 102t-54 179t90 188t231 72q283 0 283 -248l-146 -16q0 147 -151 147q-76 0 -121 -37t-45 -98t36 -99
q37 -38 151 -86q114 -46 163 -113t49 -187t-88 -188q-88 -69 -242 -69t-238 74t-83 203l141 29q0 -97 50 -145t137 -48z" />
    <glyph glyph-name="Tdotbelow" unicode="&#x1e6c;" horiz-adv-x="968" 
d="M236 -290q0 46 31 79q32 33 78 33t79 -33t33 -79t-33 -79t-79 -33t-78 33q-31 33 -31 79zM479 0h-164l187 1067h-359l25 139h883l-25 -139h-360z" />
    <glyph glyph-name="tdotbelow" unicode="&#x1e6d;" horiz-adv-x="618" 
d="M98 -290q0 46 32 79t78 33t79 -33t33 -79t-34 -79q-32 -33 -78 -33t-78 34q-32 32 -32 78zM510 154v-131q-82 -47 -186 -48q-262 0 -209 287l98 559h-131l22 125h134l34 199l158 22l-39 -221h248l-23 -125h-245l-103 -575q-12 -70 12 -105t68 -35q78 1 162 48z" />
    <glyph glyph-name="Wgrave" unicode="&#x1e80;" horiz-adv-x="1683" 
d="M1053 1341h-142l-198 238h213zM1137 135v-37h8q33 127 110 320l322 788h168l-514 -1206h-225l-68 750q-13 164 -2 278l4 39h-8q-29 -125 -113 -317l-325 -750h-226l-63 1206h160l32 -782l6 -326h9q27 133 112 324l344 784h181l71 -786q17 -183 17 -285z" />
    <glyph glyph-name="wgrave" unicode="&#x1e81;" horiz-adv-x="1361" 
d="M848 1085h-133l-236 293h215zM836 946l51 -530q17 -181 12 -273l-2 -34h8q23 115 105 307l231 530h162l-426 -946h-186l-56 485q-17 180 -12 265l2 32h-8q-29 -106 -115 -297l-213 -485h-186l-101 946h160l45 -528q12 -126 12 -275l-2 -34h9q27 121 110 309l240 528h160z
" />
    <glyph glyph-name="Wacute" unicode="&#x1e82;" horiz-adv-x="1683" 
d="M1036 1341h-141l127 238h213zM1137 135v-37h8q33 127 110 320l322 788h168l-514 -1206h-225l-68 750q-13 164 -2 278l4 39h-8q-29 -125 -113 -317l-325 -750h-226l-63 1206h160l32 -782l6 -326h9q27 133 112 324l344 784h181l71 -786q17 -183 17 -285z" />
    <glyph glyph-name="wacute" unicode="&#x1e83;" horiz-adv-x="1361" 
d="M815 1085h-133l154 293h215zM836 946l51 -530q17 -181 12 -273l-2 -34h8q23 115 105 307l231 530h162l-426 -946h-186l-56 485q-17 180 -12 265l2 32h-8q-29 -106 -115 -297l-213 -485h-186l-101 946h160l45 -528q12 -126 12 -275l-2 -34h9q27 121 110 309l240 528h160z
" />
    <glyph glyph-name="Wdieresis" unicode="&#x1e84;" horiz-adv-x="1683" 
d="M1069 1452q0 45 33 78t78 33q46 0 78 -32t32 -78t-33 -79t-77 -33t-78 33q-33 33 -33 78zM682 1454q0 45 33 78t79 33t78 -33t31 -78q0 -45 -33 -78q-34 -33 -78 -33t-77 33t-33 78zM1137 135v-37h8q33 127 110 320l322 788h168l-514 -1206h-225l-68 750q-13 164 -2 278
l4 39h-8q-29 -125 -113 -317l-325 -750h-226l-63 1206h160l32 -782l6 -326h9q27 133 112 324l344 784h181l71 -786q17 -183 17 -285z" />
    <glyph glyph-name="wdieresis" unicode="&#x1e85;" horiz-adv-x="1361" 
d="M864 1217q0 45 33 77t78 33q45 0 78 -33q33 -34 33 -78t-34 -77q-32 -33 -77 -33t-78 33t-33 78zM477 1219q0 45 33 77t79 33q46 0 78 -32q31 -31 31 -77t-32 -79t-78 -33q-45 0 -78 33t-33 78zM836 946l51 -530q17 -181 12 -273l-2 -34h8q23 115 105 307l231 530h162
l-426 -946h-186l-56 485q-17 180 -12 265l2 32h-8q-29 -106 -115 -297l-213 -485h-186l-101 946h160l45 -528q12 -126 12 -275l-2 -34h9q27 121 110 309l240 528h160z" />
    <glyph glyph-name="Idotbelow" unicode="&#x1eca;" horiz-adv-x="487" 
d="M0 -290q0 46 32 79t78 33t78 -33t33 -79q0 -46 -33 -79q-32 -33 -78 -33t-78 34q-32 32 -32 78zM293 1206h164l-211 -1206h-164z" />
    <glyph glyph-name="idotbelow" unicode="&#x1ecb;" horiz-adv-x="497" 
d="M23 -290q0 46 31 79q32 33 78 33t79 -33t33 -79t-33 -79t-79 -33t-78 33q-31 33 -31 79zM366 1366q46 0 78 -33t33 -79q0 -46 -34 -78q-35 -32 -79 -33q-44 1 -76 33t-32 78t32 79t78 33zM317 111q27 0 60 8l-21 -113q-45 -16 -98 -16q-186 0 -149 205l131 751h155
l-131 -743q-16 -92 53 -92z" />
    <glyph glyph-name="Odotbelow" unicode="&#x1ecc;" horiz-adv-x="1261" 
d="M362 -290q0 46 32 79t78 33t79 -33t33 -79t-33 -79t-79 -33t-78 34q-32 32 -32 78zM711 1094q-199 0 -316 -180t-116 -437q-1 -170 81 -268t234 -98q198 0 314 180t116 436q0 163 -76 265t-237 102zM575 -25q-217 -1 -339 135t-123 355q0 352 177 559t437 207
q217 0 340 -136t123 -356q0 -352 -178 -558t-437 -206z" />
    <glyph glyph-name="odotbelow" unicode="&#x1ecd;" horiz-adv-x="1005" 
d="M219 -290q0 46 32 79t78 33t79 -33q32 -33 32 -79t-32 -79t-79 -33q-46 0 -78 34q-32 32 -32 78zM543 840q-139 0 -225 -131t-85 -294t61 -241t167 -78q139 0 223 136t84 296t-59 236q-60 76 -166 76zM567 969q168 0 262 -109t95 -297q0 -248 -130 -418t-354 -170
q-162 -1 -260 105t-98 297q0 248 130 420t355 172z" />
    <glyph glyph-name="Udotbelow" unicode="&#x1ee4;" horiz-adv-x="1191" 
d="M342 -290q0 46 32 79t78 33t78 -33t33 -79q0 -46 -33 -79q-32 -33 -78 -33t-78 34q-32 32 -32 78zM1018 1206h164l-146 -827q-70 -403 -506 -404q-206 0 -320 116t-71 360l131 755h164l-135 -774q-29 -166 41 -245t208 -79t220 70t111 234z" />
    <glyph glyph-name="udotbelow" unicode="&#x1ee5;" 
d="M231 -290q0 46 32 79t78 33t79 -33t33 -79t-33 -79t-79 -33t-78 34q-32 32 -32 78zM350 -25q-146 1 -206 93t-31 264l106 614h156l-113 -643q-16 -99 19 -155t123 -56t167 76q80 76 103 203l100 575h156l-131 -743q-16 -92 53 -92q27 0 59 8l-20 -113q-45 -16 -98 -16
q-173 0 -146 188q-80 -203 -297 -203z" />
    <glyph glyph-name="Ygrave" unicode="&#x1ef2;" horiz-adv-x="1011" 
d="M733 1341h-141l-199 238h213zM342 1206l139 -413q40 -127 45 -187l2 -22h9q25 78 106 207l266 415h174l-487 -731l-82 -475h-164l82 475l-258 731h168z" />
    <glyph glyph-name="ygrave" unicode="&#x1ef3;" horiz-adv-x="856" 
d="M580 1085h-134l-235 293h215zM342 131v-33h8q29 113 123 297l279 551h166l-560 -1061q-100 -189 -187 -253t-185 -64t-160 35l33 116q146 -79 254 26q59 58 131 200l-152 1001h164l63 -549q23 -157 23 -266z" />
    <glyph glyph-name="Ytilde" unicode="&#x1ef8;" horiz-adv-x="1011" 
d="M778 1341q-64 0 -104 27q-6 4 -23 14t-40 26q-23 15 -30 18q-7 4 -23 12t-42 8q-74 0 -80 -100h-98q-16 94 37 162t145 69q14 0 28 -2t22 -3q9 -1 26 -8q17 -8 31 -16t17 -9q2 -1 18 -11t18 -12q68 -45 102 -46q63 0 76 107h105q11 -102 -39 -169t-146 -67zM342 1206
l139 -413q40 -127 45 -187l2 -22h9q25 78 106 207l266 415h174l-487 -731l-82 -475h-164l82 475l-258 731h168z" />
    <glyph glyph-name="ytilde" unicode="&#x1ef9;" horiz-adv-x="856" 
d="M639 1087q-64 0 -104 27q-6 4 -23 14t-40 26q-22 15 -30 18l-24 12t-41 8q-74 0 -80 -100h-98q-16 94 37 162t145 69q13 0 27 -2t23 -3t27 -8q17 -8 30 -16q12 -8 16 -9t19 -11l18 -12q68 -45 102 -45q63 0 76 106h104q12 -102 -38 -169t-146 -67zM342 131v-33h8
q29 113 123 297l279 551h166l-560 -1061q-100 -189 -187 -253t-185 -64t-160 35l33 116q146 -79 254 26q59 58 131 200l-152 1001h164l63 -549q23 -157 23 -266z" />
    <glyph glyph-name="enspace" unicode="&#x2002;" horiz-adv-x="921" 
 />
    <glyph glyph-name="emspace" unicode="&#x2003;" horiz-adv-x="1843" 
 />
    <glyph glyph-name="threeperemspace" unicode="&#x2004;" horiz-adv-x="614" 
 />
    <glyph glyph-name="fourperemspace" unicode="&#x2005;" horiz-adv-x="460" 
 />
    <glyph glyph-name="sixperemspace" unicode="&#x2006;" horiz-adv-x="307" 
 />
    <glyph glyph-name="figurespace" unicode="&#x2007;" horiz-adv-x="1050" 
 />
    <glyph glyph-name="punctuationspace" unicode="&#x2008;" horiz-adv-x="350" 
 />
    <glyph glyph-name="thinspace" unicode="&#x2009;" horiz-adv-x="184" 
 />
    <glyph glyph-name="hairspace" unicode="&#x200a;" horiz-adv-x="92" 
 />
    <glyph glyph-name="zerowidthspace" unicode="&#x200b;" horiz-adv-x="0" 
 />
    <glyph glyph-name="figuredash" unicode="&#x2012;" horiz-adv-x="1167" 
d="M143 459l21 112h860l-20 -112h-861z" />
    <glyph glyph-name="endash" unicode="&#x2013;" horiz-adv-x="1044" 
d="M143 459l21 112h737l-20 -112h-738z" />
    <glyph glyph-name="emdash" unicode="&#x2014;" horiz-adv-x="2068" 
d="M143 459l21 112h1761l-20 -112h-1762z" />
    <glyph glyph-name="uni2015" unicode="&#x2015;" horiz-adv-x="2560" 
d="M143 459l21 112h2253l-21 -112h-2253z" />
    <glyph glyph-name="doublebar" unicode="&#x2016;" horiz-adv-x="763" 
d="M451 -416h-138l314 1786h137zM147 -416h-137l314 1786h137z" />
    <glyph glyph-name="quoteleft" unicode="&#x2018;" horiz-adv-x="450" 
d="M215 1104q0 131 92 202t236 80v-79q-85 -13 -145 -51t-60 -99q59 11 97 -19t38 -84t-34 -85t-91 -31t-95 45t-38 121z" />
    <glyph glyph-name="quoteright" unicode="&#x2019;" horiz-adv-x="450" 
d="M492 1221q0 -131 -92 -202t-236 -81v80q84 12 144 50t61 99q-59 -12 -98 19q-38 31 -38 85t34 85q34 30 91 30q58 0 96 -44t38 -121z" />
    <glyph glyph-name="quotesinglbase" unicode="&#x201a;" horiz-adv-x="450" 
d="M307 45q0 -131 -92 -202t-235 -81v80q84 12 144 50t60 100q-59 -12 -97 18t-38 85q0 54 34 85t91 31t95 -45t38 -121z" />
    <glyph glyph-name="reversequoteleft" unicode="&#x201b;" horiz-adv-x="358" 
d="M186 1219q0 77 38 121t96 44t91 -30t33 -85q0 -54 -38 -85t-97 -19q1 -61 61 -99t144 -50v-80q-144 10 -236 81t-92 202z" />
    <glyph glyph-name="quotedblleft" unicode="&#x201c;" horiz-adv-x="808" 
d="M573 1104q1 131 93 202t235 80v-79q-84 -13 -144 -51t-61 -99q59 12 98 -18q38 -31 38 -85t-34 -85t-91 -31t-96 45q-38 45 -38 121zM215 1104q0 131 92 202t236 80v-79q-85 -13 -145 -51t-60 -99q59 11 97 -19t38 -84t-34 -85t-91 -31t-95 45t-38 121z" />
    <glyph glyph-name="quotedblright" unicode="&#x201d;" horiz-adv-x="808" 
d="M850 1221q0 -131 -92 -202t-236 -81v80q84 12 145 50q60 38 60 99q-59 -12 -97 19t-38 85t34 85q34 30 91 30t95 -44t38 -121zM492 1221q0 -131 -92 -202t-236 -81v80q84 12 144 50t61 99q-59 -12 -98 19q-38 31 -38 85t34 85q34 30 91 30q58 0 96 -44t38 -121z" />
    <glyph glyph-name="quotedblbase" unicode="&#x201e;" horiz-adv-x="808" 
d="M666 55q0 -131 -92 -201t-236 -81v80q84 12 144 50t61 99q-59 -12 -98 18q-37 31 -37 85t33 85q34 31 91 31q58 0 96 -45t38 -121zM307 55q0 -131 -92 -201t-235 -81v80q84 12 144 50t60 99q-59 -12 -97 18t-38 85q0 54 34 85t91 31t95 -45t38 -121z" />
    <glyph glyph-name="reversequotedblleft" unicode="&#x201f;" horiz-adv-x="675" 
d="M504 1221q0 77 38 121t95 44t91 -30t34 -85q0 -54 -38 -85t-97 -19q0 -61 60 -99t144 -50v-80q-143 10 -235 81t-92 202zM186 1221q0 77 38 121t96 44t91 -30t33 -85q0 -54 -38 -85t-97 -19q1 -61 61 -99t144 -50v-80q-144 10 -236 81t-92 202z" />
    <glyph glyph-name="dagger" unicode="&#x2020;" horiz-adv-x="1114" 
d="M600 612l-395 -22l28 160l388 -21l63 477h168l-104 -477l395 21l-29 -160l-385 22l-141 -917h-170z" />
    <glyph glyph-name="daggerdbl" unicode="&#x2021;" horiz-adv-x="1112" 
d="M731 633l-67 -367l395 23l-27 -156l-385 23l-59 -463h-170l102 463l-395 -23l27 156l387 -23l65 367l-395 -23l27 156l389 -23l59 463h170l-104 -463l393 23l-27 -156z" />
    <glyph glyph-name="bullet" unicode="&#x2022;" horiz-adv-x="634" 
d="M154 488q0 62 45 108t107 47q62 0 108 -45q46 -44 47 -108q0 -64 -46 -109q-47 -45 -109 -45t-107 45t-45 107z" />
    <glyph glyph-name="ellipsis" unicode="&#x2026;" horiz-adv-x="1744" 
d="M1266 115q0 53 37 90t90 37t90 -37t37 -90t-37 -90t-90 -37t-90 37t-37 90zM684 115q0 53 37 90t90 37t90 -37t37 -90t-37 -90t-90 -37t-90 37t-37 90zM102 115q0 53 37 90t90 37t90 -37t37 -90t-37 -90t-90 -37t-90 37t-37 90z" />
    <glyph glyph-name="perthousand" unicode="&#x2030;" horiz-adv-x="2476" 
d="M2140 627q-51 0 -91 -37q-63 -58 -90 -209t26 -239q33 -54 97 -54t110 67q76 113 77 279q0 193 -129 193zM2064 -14q-119 0 -181 80t-62 204q0 262 147 398q78 72 188 72t176 -84q64 -82 64 -240t-87 -294t-245 -136zM1403 627q-51 0 -91 -37q-66 -61 -92 -211
q-25 -150 27 -237q33 -54 97 -54t111 67q77 112 77 279q0 193 -129 193zM1327 -14q-119 0 -181 80t-62 204t34 225q35 101 113 173q79 72 189 72t174 -84q64 -82 65 -240q0 -158 -87 -294t-245 -136zM389 0l840 1208h121l-838 -1208h-123zM399 1110q-51 0 -91 -37
q-63 -58 -90 -210q-27 -151 26 -237q34 -54 98 -54t110 66q76 111 76 291q0 181 -129 181zM324 469q-119 0 -182 80q-62 80 -62 204q0 261 147 398q78 72 189 72q112 0 176 -83t64 -241t-88 -294q-86 -136 -244 -136z" />
    <glyph glyph-name="tripleprime" unicode="&#x2034;" horiz-adv-x="921" 
d="M723 844l92 524h178l-172 -524h-98zM438 844l92 524h179l-172 -524h-99zM154 844l92 524h178l-172 -524h-98z" />
    <glyph glyph-name="guilsinglleft" unicode="&#x2039;" horiz-adv-x="647" 
d="M199 477v-8q18 -4 86 -100l174 -248l-103 -80l-295 436l449 436l76 -82l-246 -245q-69 -69 -123 -99z" />
    <glyph glyph-name="guilsinglright" unicode="&#x203a;" horiz-adv-x="647" 
d="M449 477v8q-18 4 -87 101l-174 248l103 79l295 -436l-449 -436l-76 82l246 246q67 67 123 98z" />
    <glyph glyph-name="fraction" unicode="&#x2044;" horiz-adv-x="264" 
d="M-348 0l840 1208h120l-837 -1208h-123z" />
    <glyph glyph-name="uni2070" unicode="&#x2070;" horiz-adv-x="739" 
d="M401 1110q-51 0 -91 -37q-63 -58 -90 -210q-27 -151 26 -237q34 -54 98 -54t110 66q76 111 76 291q0 181 -129 181zM326 469q-119 0 -182 80q-62 80 -62 204q0 261 147 398q78 72 189 72q112 0 176 -83t64 -241t-88 -294q-86 -136 -244 -136z" />
    <glyph glyph-name="uni2074" unicode="&#x2074;" horiz-adv-x="720" 
d="M260 768h152l32 186l35 144h-8q-33 -53 -100 -127l-111 -109q-66 -61 -115 -94l-2 -8q29 8 117 8zM356 483l33 189h-369l19 100l436 434h137l-75 -436h122l-18 -98h-123l-33 -189h-129z" />
    <glyph glyph-name="uni2075" unicode="&#x2075;" horiz-adv-x="669" 
d="M382 944q91 0 143 -56q53 -56 53 -168t-78 -182t-207 -69q-229 0 -252 182l119 37q12 -125 135 -125q74 0 115 43q41 42 41 112t-32 104q-31 34 -87 34t-103 -51h-104l88 401h416l-19 -106h-313l-47 -207q41 51 132 51z" />
    <glyph glyph-name="uni2076" unicode="&#x2076;" horiz-adv-x="710" 
d="M219 690q-1 -128 121 -129q60 0 109 45t49 133q0 49 -31 80t-93 31t-108 -48q-47 -48 -47 -112zM448 1118q-94 0 -164 -90t-87 -231h8q49 152 213 151q96 0 149 -58t54 -138q0 -125 -83 -204t-207 -79q-249 0 -249 272q0 209 113 345t270 137q180 -1 205 -146l-109 -45
q-19 86 -113 86z" />
    <glyph glyph-name="uni2077" unicode="&#x2077;" horiz-adv-x="604" 
d="M461 1096h-287l-20 -109h-113l39 219h555l-10 -61l-412 -662h-141z" />
    <glyph glyph-name="uni2078" unicode="&#x2078;" horiz-adv-x="690" 
d="M346 807q-64 0 -112 -38t-48 -103q0 -111 123 -111q68 0 114 37t46 104q0 111 -123 111zM252 1006q0 -108 116 -107q54 0 99 34t45 87q0 108 -120 108q-58 0 -99 -34t-41 -88zM598 696q0 -108 -86 -168t-209 -59q-123 0 -187 48t-65 129q0 81 52 137t130 73v8
q-106 48 -106 146t84 155t197 57t172 -45q59 -46 59 -124q0 -158 -168 -197v-6q127 -46 127 -154z" />
    <glyph glyph-name="uni2079" unicode="&#x2079;" horiz-adv-x="716" 
d="M492 1000q0 126 -124 124q-60 0 -108 -43q-47 -43 -47 -125q0 -113 115 -112q68 0 116 46t48 110zM260 571q106 0 174 83t82 245h-8q-41 -156 -199 -156q-105 1 -161 59t-56 142q0 123 80 201t204 78t192 -73t67 -210q0 -211 -101 -341t-276 -130q-94 -1 -154 37t-73 108
l108 39q15 -82 121 -82z" />
    <glyph glyph-name="uni207A" unicode="&#x207a;" horiz-adv-x="905" 
d="M96 899h320l55 309h80l-55 -309h327l-14 -80h-328l-59 -336h-80l59 336h-319z" />
    <glyph glyph-name="uni207B" unicode="&#x207b;" horiz-adv-x="907" 
d="M811 817h-729l14 82h729z" />
    <glyph glyph-name="uni207C" unicode="&#x207c;" horiz-adv-x="950" 
d="M854 946h-729l14 82h729zM811 707h-729l14 81h729z" />
    <glyph glyph-name="uni207D" unicode="&#x207d;" horiz-adv-x="462" 
d="M176 719q0 -162 121 -346h-100q-115 166 -115 346q0 340 274 584h107q-287 -266 -287 -584z" />
    <glyph glyph-name="uni207E" unicode="&#x207e;" horiz-adv-x="462" 
d="M287 956q0 162 -121 347h100q115 -166 115 -347q-1 -339 -275 -583h-106q287 266 287 583z" />
    <glyph glyph-name="n.superior" unicode="&#x207f;" horiz-adv-x="780" 
d="M662 680q20 0 57 8l-19 -94q-37 -12 -82 -12q-150 0 -118 145l57 289q20 109 -86 108q-170 0 -209 -198l-65 -338h-136l125 626h117l-10 -114q68 131 215 131q86 0 136 -40t50 -116q0 -34 -6 -63l-55 -283q-12 -49 29 -49z" />
    <glyph glyph-name="uni2080" unicode="&#x2080;" horiz-adv-x="739" 
d="M401 627q-51 0 -91 -37q-63 -58 -90 -209t26 -239q34 -54 98 -54t110 67q76 111 76 279q0 193 -129 193zM326 -14q-119 0 -182 80q-62 80 -62 204q0 261 147 398q78 72 189 72q112 0 176 -84q64 -82 64 -240t-88 -294q-86 -136 -244 -136z" />
    <glyph glyph-name="uni2081" unicode="&#x2081;" horiz-adv-x="587" 
d="M518 0h-518l18 102h205l86 494l-223 -23l18 105l361 47l-111 -623h183z" />
    <glyph glyph-name="uni2082" unicode="&#x2082;" horiz-adv-x="653" 
d="M459 508q0 123 -119 123q-131 0 -156 -150l-98 51q16 94 89 150t183 57q110 0 171 -55q63 -54 63 -144q1 -165 -152 -278q-126 -93 -264 -151v-9h377l-18 -102h-535l18 98q215 121 328 218t113 192z" />
    <glyph glyph-name="uni2083" unicode="&#x2083;" horiz-adv-x="628" 
d="M537 203q0 -105 -82 -161t-202 -56t-178 55t-65 139l115 27q12 -127 129 -127q68 0 111 31t43 91t-43 91t-160 33l16 90q225 10 225 133q0 41 -28 65t-78 23q-102 0 -133 -111l-105 41q59 172 250 172q98 0 162 -44t64 -126t-54 -131t-151 -59v-6q164 -18 164 -170z" />
    <glyph glyph-name="uni2084" unicode="&#x2084;" horiz-adv-x="720" 
d="M412 285l32 186l35 143h-8q-33 -53 -100 -127l-111 -108q-66 -61 -115 -94l-2 -9q29 8 117 9h152zM356 0l33 188h-369l19 101l436 434h137l-75 -436h122l-18 -99h-123l-33 -188h-129z" />
    <glyph glyph-name="uni2085" unicode="&#x2085;" horiz-adv-x="669" 
d="M382 461q91 -1 143 -57q53 -56 53 -168t-78 -181q-78 -70 -207 -69q-229 0 -252 182l119 37q12 -125 135 -125q74 0 115 43t41 113t-32 103q-31 34 -87 34t-103 -51h-104l88 401h416l-19 -107h-313l-47 -206q41 51 132 51z" />
    <glyph glyph-name="uni2086" unicode="&#x2086;" horiz-adv-x="710" 
d="M376 367q-64 0 -112 -48q-49 -49 -49 -113q0 -128 119 -128q68 0 119 46t51 132q0 49 -32 80t-96 31zM197 303q55 162 227 162q90 0 143 -58t54 -139q0 -126 -83 -204t-207 -78q-249 0 -249 266q0 213 113 350t270 137q180 0 205 -145l-109 -45q-19 86 -113 86t-164 -88
t-96 -244h9z" />
    <glyph glyph-name="uni2087" unicode="&#x2087;" horiz-adv-x="604" 
d="M461 612h-287l-20 -108h-113l39 219h555l-10 -61l-412 -662h-141z" />
    <glyph glyph-name="uni2088" unicode="&#x2088;" horiz-adv-x="690" 
d="M346 324q-64 0 -112 -38t-48 -104q0 -111 123 -110q68 0 114 37t46 104q0 111 -123 111zM512 537q0 108 -120 108q-58 0 -99 -34t-41 -88t31 -81q31 -26 85 -26t99 34t45 87zM598 214q0 -108 -86 -168t-209 -60t-187 48t-65 129q0 81 52 137t130 73v8q-106 47 -106 145
t84 156t197 57q113 0 172 -46t59 -124q0 -158 -168 -196v-6q127 -45 127 -153z" />
    <glyph glyph-name="uni2089" unicode="&#x2089;" horiz-adv-x="716" 
d="M498 518q0 128 -128 129q-62 0 -112 -45q-49 -45 -49 -133q0 -49 32 -80q31 -31 95 -31t113 48t49 112zM262 84q106 0 174 83t86 253h-8q-43 -160 -205 -160q-106 0 -162 58q-55 58 -55 143q0 123 80 201t204 78t192 -74q68 -72 67 -209q0 -211 -101 -341t-276 -130
q-94 0 -154 38t-73 107l108 39q17 -86 123 -86z" />
    <glyph glyph-name="uni208A" unicode="&#x208a;" horiz-adv-x="905" 
d="M96 416h320l55 309h80l-55 -309h327l-14 -80h-328l-59 -336h-80l59 336h-319z" />
    <glyph glyph-name="uni208B" unicode="&#x208b;" horiz-adv-x="907" 
d="M811 334h-729l14 82h729z" />
    <glyph glyph-name="uni208C" unicode="&#x208c;" horiz-adv-x="950" 
d="M854 463h-729l14 82h729zM811 223h-729l14 82h729z" />
    <glyph glyph-name="uni208D" unicode="&#x208d;" horiz-adv-x="462" 
d="M176 236q0 -162 121 -347h-100q-115 166 -115 347q0 339 274 583h107q-287 -266 -287 -583z" />
    <glyph glyph-name="uni208E" unicode="&#x208e;" horiz-adv-x="462" 
d="M287 473q0 162 -121 346h100q115 -166 115 -346q-1 -340 -275 -584h-106q287 266 287 584z" />
    <glyph glyph-name="uni20A1" unicode="&#x20a1;" horiz-adv-x="999" 
d="M262 430q0 -164 72 -250l233 697q-135 -19 -220 -151t-85 -296zM422 119q43 -18 98 -19l246 725q-37 37 -92 49zM424 -188l55 163q-49 2 -100 17l-53 -160l-99 33l56 166q-181 109 -181 367t134 424q134 167 376 188l60 176l96 -33l-51 -149q49 -6 98 -27l53 156l97 -33
l-64 -185q53 -53 78 -141l-150 -72l-194 -583q102 37 170 151l115 -84q-115 -180 -332 -204l-66 -201z" />
    <glyph glyph-name="uni20A2" unicode="&#x20a2;" horiz-adv-x="999" 
d="M102 391q0 271 144 445t393 174q274 0 340 -236l-152 -74q-33 180 -215 181q-152 1 -251 -135t-99 -334q0 -238 168 -297l76 428h123l-15 -160q37 86 111 137t156 37l-31 -135q-84 16 -163 -32t-95 -144l-27 -144q141 20 234 179l114 -84q-74 -117 -172 -169
q-97 -52 -259 -52t-271 112q-109 113 -109 303z" />
    <glyph glyph-name="franc" unicode="&#x20a3;" horiz-adv-x="901" 
d="M686 311h-330l-53 -311h-160l54 311h-156l18 103h156l18 102h-155l18 102h154l65 367h648l-23 -133h-487l-41 -234h329l-18 -102h-330l-18 -102h330z" />
    <glyph glyph-name="lira" unicode="&#x20a4;" horiz-adv-x="997" 
d="M254 618v58q0 170 108 252q110 82 254 82t224 -69t80 -204l-150 -24q-4 172 -174 172q-193 0 -193 -207q0 -41 3 -60h376l-18 -102h-342q16 -96 16 -102h307l-18 -103h-295q-14 -69 -53 -115t-90 -63h370q127 0 168 100l109 -61q-72 -172 -283 -172h-633l23 139h100
q53 0 103 52q49 52 53 120h-217l18 103h189q-22 98 -23 102h-147l18 102h117z" />
    <glyph glyph-name="uni20A6" unicode="&#x20a6;" horiz-adv-x="1361" 
d="M1282 516h-190l-15 -82h191l-19 -102h-190l-58 -332h-167l-263 522q-59 116 -100 236l-14 39h-8q-14 -178 -41 -330l-82 -467h-158l57 332h-174l19 102h174l14 82h-174l18 102h172l66 367h174l266 -545q48 -95 84 -209l8 -30h9q27 166 53 317l82 467h158l-66 -367h192z
" />
    <glyph glyph-name="peseta" unicode="&#x20a7;" horiz-adv-x="2168" 
d="M457 432q139 0 211 62t71 200q0 162 -194 162h-174l-74 -424h160zM1708 84q213 0 213 170q0 70 -37 111t-148 81t-166 92q-54 52 -67 130h-235l-117 -668h-160l117 668h-207q-25 -365 -457 -365h-170l-53 -303h-160l172 985h318q289 0 342 -184h618q27 102 120 155
t212 54q326 0 326 -262l-141 -25q2 80 -44 126t-141 46q-94 0 -147 -42q-54 -42 -54 -112q0 -71 39 -105t165 -83t173 -113t47 -168q0 -147 -99 -222t-263 -75t-252 74t-88 201l135 31q-1 -93 59 -145t150 -52z" />
    <glyph glyph-name="uni20A8" unicode="&#x20a8;" horiz-adv-x="1576" 
d="M1442 199q0 -115 -86 -169t-219 -55q-133 0 -218 45t-163 138l-82 96q-23 23 -37 43t-42 44q-27 23 -37 27t-33 15q-24 12 -87 12h-147l-70 -395h-160l172 985h375q301 0 301 -250q0 -137 -84 -208t-209 -74v-7q65 -4 94 -28q30 -24 39 -34t37 -43q28 -34 37 -46l86 -100
q98 -117 230 -117q162 0 161 104q0 51 -26 81t-112 66t-130 86q-43 51 -43 145t83 155t196 61q248 0 248 -192l-144 -23q0 104 -119 105q-61 0 -95 -30t-34 -76t28 -73t121 -67t131 -91q38 -50 38 -130zM506 520q119 0 178 47t59 156q0 133 -157 133h-215l-60 -336h195z" />
    <glyph glyph-name="uni20A9" unicode="&#x20a9;" horiz-adv-x="1671" 
d="M1073 100h6q12 111 80 269l262 616h156l-141 -326h194l-18 -102h-221l-35 -82h241l-16 -102h-270l-160 -373h-190l-60 569q-15 128 -8 242l4 33h-6q-20 -117 -92 -275l-258 -569h-195l-20 373h-265l17 102h241l-4 82h-223l19 102h198l-18 326h155l27 -608q4 -141 -6 -238
l-2 -39h6q29 111 98 267l275 618h162l59 -620q13 -155 8 -234v-31z" />
    <glyph glyph-name="uni20AA" unicode="&#x20aa;" horiz-adv-x="1337" 
d="M827 0h-471l131 748h160l-108 -619h282q156 0 183 152l122 704h160l-119 -674q-27 -159 -99 -235t-241 -76zM698 985q170 0 214 -78t18 -233l-78 -438h-160l82 469q27 152 -129 151h-274l-150 -856h-160l172 985h465z" />
    <glyph glyph-name="Euro" unicode="&#x20ac;" horiz-adv-x="1105" 
d="M369 434h336l-39 -102h-291q16 -109 83 -170t171 -62q172 0 276 181l115 -84q-74 -117 -172 -169t-252 -52t-260 94q-106 96 -125 262h-170l18 102h150q2 59 16 131h-143l18 103h156q59 158 185 250t304 92q274 0 340 -236l-151 -74q-33 180 -215 181q-96 1 -174 -57
t-123 -156h358l-39 -103h-356q-16 -66 -16 -131z" />
    <glyph glyph-name="uni20AE" unicode="&#x20ae;" horiz-adv-x="917" 
d="M770 571l-233 -39l-19 -102l234 39l-19 -102l-233 -39l-58 -328h-159l53 301l-225 -37l18 103l223 36l19 103l-224 -37l19 102l223 37l43 244h-340l23 133h843l-22 -133h-344l-39 -217l235 39z" />
    <glyph glyph-name="uni20B1" unicode="&#x20b1;" horiz-adv-x="1169" 
d="M811 692q0 164 -195 164h-174l-28 -164h397zM528 432q223 0 269 158h-402l-26 -158h159zM623 985q180 0 266 -71t86 -222h184l-18 -102h-180q-63 -287 -445 -287h-170l-53 -303h-160l103 590h-154l18 102h154l51 293h318z" />
    <glyph glyph-name="afii61289" unicode="&#x2113;" horiz-adv-x="649" 
d="M285 979v-436q91 85 155 245t64 340q0 133 -90 134q-59 0 -94 -71t-35 -212zM145 946q0 424 269 424q199 0 198 -260q0 -220 -98 -410t-229 -305v-135q1 -90 33 -124t100 -34t125 23v-129q-57 -20 -161 -20t-171 60q-66 60 -66 200v81l-65 -51l-62 96l127 89v495z" />
    <glyph glyph-name="afii61352" unicode="&#x2116;" horiz-adv-x="2146" 
d="M146 111q50 0 74 20t34 76l174 999h170l326 -712q57 -124 90 -236l10 -37h8q16 145 43 297l86 494q23 127 84 173t167 46t165 -53l-41 -144q-58 51 -108 51q-50 -1 -74 -21t-33 -75l-172 -989h-166l-334 709q-48 101 -92 233l-12 39h-8q-8 -141 -35 -293l-86 -493
q-23 -127 -84 -173t-167 -46t-165 53l39 133q57 -51 107 -51zM1798 854q-78 0 -131 -76t-53 -171q0 -181 139 -181q86 0 139 79t54 185q0 164 -148 164zM1827 973q121 0 189 -74q68 -75 69 -219q0 -144 -93 -256t-253 -111q-119 0 -191 71t-71 198q0 164 94 278t256 113z
M1364 0l25 125h661l-25 -125h-661z" />
    <glyph glyph-name="published" unicode="&#x2117;" horiz-adv-x="1429" 
d="M176 602q0 -246 164 -406t402 -161q238 0 401 161q164 160 164 406t-164 408t-402 162q-237 0 -401 -162t-164 -408zM113 602q0 270 182 450t444 179q261 0 445 -179q184 -180 184 -450t-183 -448t-445 -178t-445 178q-182 178 -182 448zM815 993q274 0 275 -215
q0 -317 -359 -317h-127l-41 -232h-133l133 764h252zM741 565q213 0 213 199q0 123 -147 123h-131l-55 -322h120z" />
    <glyph glyph-name="servicemark" unicode="&#x2120;" horiz-adv-x="1239" 
d="M1143 698h-103l68 353h-10l-154 -256h-96l-62 256h-10l-67 -353h-103l96 508h136l73 -293h9l182 293h137zM300 768q101 0 101 70q0 31 -21 50q-22 19 -88 42q-66 24 -94 54q-30 30 -30 98t59 105q59 38 140 38q180 0 180 -148l-107 -8q0 78 -86 78t-86 -68q0 -27 22 -43
t85 -39q135 -43 135 -143q0 -82 -60 -121t-157 -39q-191 1 -191 144l97 14q0 -84 101 -84z" />
    <glyph glyph-name="trademark" unicode="&#x2122;" horiz-adv-x="1216" 
d="M1120 698h-102l67 353h-10l-153 -256h-97l-61 256h-10l-68 -353h-102l96 508h135l74 -293h8l182 293h138zM317 698h-102l80 418h-152l17 90h407l-16 -90h-154z" />
    <glyph glyph-name="ohm" unicode="&#x2126;" horiz-adv-x="1277" 
d="M1032 750q0 346 -291 346q-143 0 -251 -91t-158 -223t-49 -269q0 -136 48 -230t124 -138l-25 -145h-410l25 145h227q-63 41 -110 145t-47 256q0 150 76 311q77 161 229 267t342 106t317 -121q127 -123 127 -317t-85 -372t-236 -275h213l-25 -145h-409l24 145
q160 80 252 254q92 175 92 351z" />
    <glyph glyph-name="estimated" unicode="&#x212e;" horiz-adv-x="1325" 
d="M662 1122q-193 0 -312 -118v-349h623v349q-118 118 -311 118zM640 1231q318 0 459 -195q134 -180 134 -434v-53h-883v-346q123 -119 312 -119q266 0 376 213h136q-60 -150 -190 -236t-321 -86q-191 1 -323 93q-245 171 -247 534q-1 363 246 537q133 92 301 92z" />
    <glyph glyph-name="uni2153" unicode="&#x2153;" horiz-adv-x="1738" 
d="M1538 203q0 -105 -82 -161t-202 -56t-178 55t-64 139l114 27q12 -127 129 -127q68 0 111 31t43 91t-43 91t-160 33l17 90q225 10 225 133q0 41 -29 65t-78 23q-102 0 -133 -111l-104 41q59 172 250 172q98 0 162 -44t63 -126q1 -82 -53 -131t-152 -59v-6
q164 -18 164 -170zM389 0l840 1208h121l-838 -1208h-123zM578 483h-498l18 103h185l86 493l-224 -22l19 104l360 47l-110 -622h182z" />
    <glyph glyph-name="uni2154" unicode="&#x2154;" horiz-adv-x="1738" 
d="M1538 203q0 -105 -82 -161t-202 -56t-178 55t-64 139l114 27q12 -127 129 -127q68 0 111 31t43 91t-43 91t-160 33l17 90q225 10 225 133q0 41 -29 65t-78 23q-102 0 -133 -111l-104 41q59 172 250 172q98 0 162 -44t63 -126q1 -82 -53 -131t-152 -59v-6
q164 -18 164 -170zM389 0l840 1208h121l-838 -1208h-123zM358 1114q-124 0 -149 -149l-98 51q16 94 89 150q72 56 182 56t172 -54q62 -56 62 -145q0 -167 -151 -278q-126 -93 -264 -151v-8h377l-19 -103h-534l18 99q215 121 328 218t112 191q-1 123 -125 123z" />
    <glyph glyph-name="uni215B" unicode="&#x215b;" horiz-adv-x="1738" 
d="M1348 324q-64 0 -112 -38t-48 -104q0 -111 123 -110q67 0 113 37t46 104q1 111 -122 111zM1253 523q0 -109 116 -107q54 0 99 34t45 87q0 108 -119 108q-58 0 -100 -34t-41 -88zM1304 -14q-124 0 -188 48t-64 129t53 137q52 56 130 73v8q-107 47 -107 145t84 156t197 57
q113 0 172 -46t59 -124q0 -158 -167 -196v-6q127 -45 127 -153t-87 -168q-86 -60 -209 -60zM389 0l840 1208h121l-838 -1208h-123zM578 483h-498l18 103h185l86 493l-224 -22l19 104l360 47l-110 -622h182z" />
    <glyph glyph-name="uni215C" unicode="&#x215c;" horiz-adv-x="1738" 
d="M1348 324q-64 0 -112 -38t-48 -104q0 -111 123 -110q67 0 113 37t46 104q1 111 -122 111zM1253 523q0 -109 116 -107q54 0 99 34t45 87q0 108 -119 108q-58 0 -100 -34t-41 -88zM1304 -14q-124 0 -188 48t-64 129t53 137q52 56 130 73v8q-107 47 -107 145t84 156t197 57
q113 0 172 -46t59 -124q0 -158 -167 -196v-6q127 -45 127 -153t-87 -168q-86 -60 -209 -60zM389 0l840 1208h121l-838 -1208h-123zM590 686q0 -106 -82 -162t-202 -55q-120 0 -178 55t-65 140l115 26q12 -127 129 -127q68 0 111 31t43 91t-43 91t-160 33l16 90
q225 10 226 133q0 41 -29 65t-78 23q-102 0 -133 -110l-104 41q59 172 250 172q98 0 161 -44t63 -126q0 -81 -52 -131q-54 -50 -152 -60v-6q164 -18 164 -170z" />
    <glyph glyph-name="uni215D" unicode="&#x215d;" horiz-adv-x="1738" 
d="M1348 324q-64 0 -112 -38t-48 -104q0 -111 123 -110q67 0 113 37t46 104q1 111 -122 111zM1253 523q0 -109 116 -107q54 0 99 34t45 87q0 108 -119 108q-58 0 -100 -34t-41 -88zM1304 -14q-124 0 -188 48t-64 129t53 137q52 56 130 73v8q-107 47 -107 145t84 156t197 57
q113 0 172 -46t59 -124q0 -158 -167 -196v-6q127 -45 127 -153t-87 -168q-86 -60 -209 -60zM389 0l840 1208h121l-838 -1208h-123zM398 944q92 0 144 -56t52 -168t-78 -182t-207 -69q-229 0 -252 182l119 37q12 -125 135 -125q74 0 115 43q41 42 41 112t-32 104
q-31 34 -87 34t-102 -51h-105l88 401h416l-18 -106h-314l-47 -207q41 51 132 51z" />
    <glyph glyph-name="uni215E" unicode="&#x215e;" horiz-adv-x="1595" 
d="M1204 324q-63 0 -111 -38t-49 -104q0 -111 123 -110q68 0 114 37t46 104q0 111 -123 111zM1110 523q0 -109 116 -107q54 0 99 34t45 87q0 108 -120 108q-58 0 -99 -34t-41 -88zM1456 214q0 -108 -86 -168t-209 -60t-187 48t-65 129q1 81 53 137t130 73v8
q-106 47 -106 145t83 156q84 58 197 57q113 0 172 -46t59 -124q0 -158 -168 -196v-6q127 -45 127 -153zM246 0l839 1208h121l-837 -1208h-123zM508 1096h-287l-20 -109h-113l39 219h555l-10 -61l-412 -662h-141z" />
    <glyph glyph-name="arrowleft" unicode="&#x2190;" horiz-adv-x="1353" 
d="M1262 678v-148h-961l447 -454l-111 -101l-600 625l600 631l113 -98l-445 -455h957z" />
    <glyph glyph-name="arrowup" unicode="&#x2191;" horiz-adv-x="1402" 
d="M776 0h-147v967l-455 -447l-100 111l624 600l631 -600l-100 -113l-453 445v-963z" />
    <glyph glyph-name="arrowright" unicode="&#x2192;" horiz-adv-x="1353" 
d="M37 678h956l-436 455l113 98l592 -631l-590 -625l-111 101l438 454h-962v148z" />
    <glyph glyph-name="arrowdown" unicode="&#x2193;" horiz-adv-x="1402" 
d="M627 1206h147v-966l455 448l100 -110l-624 -603l-631 603l100 112l453 -444v960z" />
    <glyph glyph-name="uni2196" unicode="&#x2196;" horiz-adv-x="1398" 
d="M305 203h-139v1003h956v-137h-716l956 -965l-102 -104l-955 961v-758z" />
    <glyph glyph-name="uni2197" unicode="&#x2197;" horiz-adv-x="1398" 
d="M276 1069v137h957v-1003h-139v758l-955 -961l-102 104l956 965h-717z" />
    <glyph glyph-name="uni2198" unicode="&#x2198;" horiz-adv-x="1398" 
d="M1094 1004h139v-1004h-957v137h717l-956 965l102 104l955 -958v756z" />
    <glyph glyph-name="uni2199" unicode="&#x2199;" horiz-adv-x="1398" 
d="M1122 137v-137h-956v1004h139v-756l955 958l102 -104l-956 -965h716z" />
    <glyph glyph-name="partialdiff" unicode="&#x2202;" horiz-adv-x="1003" 
d="M541 819q-137 0 -223 -128q-86 -129 -85 -287t61 -234t167 -76q137 0 221 133t84 314q0 278 -225 278zM922 567q0 -260 -128 -426t-354 -166q-162 -1 -260 103t-98 291q0 241 125 409t332 168q131 0 204 -90h9q-50 164 -182 279t-341 157l111 84q582 -139 582 -809z" />
    <glyph glyph-name="increment" unicode="&#x2206;" horiz-adv-x="1134" 
d="M1053 0h-1094l651 1206h217zM862 135l-117 666q-31 179 -36 272l-4 37h-9q-45 -121 -143 -307l-350 -668h659z" />
    <glyph glyph-name="product" unicode="&#x220f;" horiz-adv-x="1193" 
d="M137 -414h-157l284 1620h930l-285 -1620h-157l260 1473h-615z" />
    <glyph glyph-name="summation" unicode="&#x2211;" horiz-adv-x="901" 
d="M422 139h334l-25 -139h-813l586 621l-375 585h813l-24 -139h-379l-146 4v-8q51 -47 107 -139l190 -320l-307 -321q-85 -89 -154 -136l-20 -10v-8q84 10 213 10z" />
    <glyph glyph-name="minus" unicode="&#x2212;" horiz-adv-x="1015" 
d="M918 461h-836l16 94h836z" />
    <glyph glyph-name="radical" unicode="&#x221a;" horiz-adv-x="1030" 
d="M641 420l430 985l143 -12l-616 -1393h-166l-164 729l-209 -104l-39 123l369 198l98 -524q33 -171 39 -262l2 -33h9q20 100 104 293z" />
    <glyph glyph-name="infinity" unicode="&#x221e;" horiz-adv-x="1767" 
d="M1284 274q106 0 177 85t71 187t-51 153q-51 50 -129 51q-141 0 -250 -107l-133 -131l69 -96q62 -82 116 -112t130 -30zM102 446q0 172 115 299t293 127q102 0 178 -43t146 -137l67 -92l119 117q156 156 346 155q141 0 225 -80t84 -233q1 -155 -115 -281t-294 -126
q-102 0 -178 42t-144 134l-70 94l-116 -115q-160 -156 -348 -155q-139 0 -224 79q-84 80 -84 215zM492 750q-109 0 -178 -86q-68 -86 -68 -188t50 -152q50 -49 128 -50q145 0 252 107l131 129l-76 100q-59 80 -111 110t-128 30z" />
    <glyph glyph-name="integral" unicode="&#x222b;" horiz-adv-x="532" 
d="M-20 -432q-104 0 -164 53l37 123q57 -51 107 -51t74 20t34 76l239 1362q23 127 82 173t164 46t164 -53l-37 -123q-58 51 -108 51q-50 -1 -74 -21t-33 -75l-240 -1362q-23 -127 -82 -173t-163 -46z" />
    <glyph glyph-name="approxequal" unicode="&#x2248;" horiz-adv-x="1075" 
d="M750 289q-100 0 -242 52q-141 52 -215 52q-106 0 -211 -104l18 104q80 92 203 92q76 0 224 -52t209 -52q118 0 216 100l-20 -121q-82 -71 -182 -71zM772 522q-82 0 -223 51t-215 52q-109 0 -211 -103l18 103q78 92 203 92q76 0 224 -51q148 -52 238 -52t187 99l-20 -119
q-78 -72 -201 -72z" />
    <glyph glyph-name="notequal" unicode="&#x2260;" horiz-adv-x="1060" 
d="M963 586h-263l-170 -164h404l-16 -94h-486l-268 -258l-60 63l203 195h-225l16 94h305l170 164h-446l16 94h527l241 233l64 -63l-178 -170h182z" />
    <glyph glyph-name="lessequal" unicode="&#x2264;" horiz-adv-x="917" 
d="M688 43h-627l17 94h627zM836 907l-490 -323l363 -318l-82 -80l-461 406l602 403z" />
    <glyph glyph-name="greaterequal" unicode="&#x2265;" horiz-adv-x="917" 
d="M166 274l489 324l-362 317l82 80l461 -405l-603 -404zM688 43h-627l17 94h627z" />
    <glyph glyph-name="blacksquare" unicode="&#x25a0;" horiz-adv-x="1554" 
d="M174 0v1206h1206v-1206h-1206z" />
    <glyph glyph-name="whitesquare" unicode="&#x25a1;" horiz-adv-x="1554" 
d="M262 1118v-1030h1030v1030h-1030zM174 0v1206h1206v-1206h-1206z" />
    <glyph glyph-name="blacksmallsquare" unicode="&#x25aa;" horiz-adv-x="1015" 
d="M174 285v665h668v-665h-668z" />
    <glyph glyph-name="whitesmallsquare" unicode="&#x25ab;" horiz-adv-x="1015" 
d="M262 862v-489h492v489h-492zM174 285v665h668v-665h-668z" />
    <glyph glyph-name="triagup" unicode="&#x25b2;" horiz-adv-x="1169" 
d="M41 0l502 1231l504 -1231h-1006z" />
    <glyph glyph-name="triagrt" unicode="&#x25ba;" horiz-adv-x="1404" 
d="M154 1098l1230 -502l-1230 -504v1006z" />
    <glyph glyph-name="triagdn" unicode="&#x25bc;" horiz-adv-x="1169" 
d="M676 -25l-502 1231h1006z" />
    <glyph glyph-name="triaglf" unicode="&#x25c4;" horiz-adv-x="1404" 
d="M0 596l1231 502v-1006z" />
    <glyph glyph-name="lozenge" unicode="&#x25ca;" horiz-adv-x="1036" 
d="M809 629l-174 512l-367 -529l172 -532zM954 623l-481 -691h-113l-237 691l477 669h113z" />
    <glyph glyph-name="circle" unicode="&#x25cb;" horiz-adv-x="1071" 
d="M184 604q0 -148 104 -254q104 -104 248 -104q146 0 250 104t104 253t-104 254t-249 105t-249 -104q-104 -106 -104 -254zM92 604q0 184 129 314t313 131q184 0 315 -130q130 -131 130 -315t-130 -313t-314 -129t-314 129q-129 129 -129 313z" />
    <glyph glyph-name="blackcircle" unicode="&#x25cf;" horiz-adv-x="1439" 
d="M92 602q0 260 183 444t443 185q260 0 445 -184q185 -185 185 -445t-184 -443t-445 -183q-259 0 -443 182q-184 184 -184 444z" />
    <glyph glyph-name="whitecircle" unicode="&#x25ef;" horiz-adv-x="1439" 
d="M182 600q0 -225 157 -384t379 -159t380 160t158 384t-158 385t-380 161t-379 -161t-157 -386zM92 602q0 260 183 444t443 185q260 0 445 -184q185 -185 185 -445t-184 -443t-445 -183q-259 0 -443 182q-184 184 -184 444z" />
    <glyph glyph-name="anglebracketleft" unicode="&#x3008;" horiz-adv-x="696" 
d="M438 -416h-139l-156 903l465 881h150l-463 -885z" />
    <glyph glyph-name="anglebracketright" unicode="&#x3009;" horiz-adv-x="696" 
d="M268 1368h140l155 -903l-465 -881h-149l463 885z" />
    <glyph glyph-name="lcedilla" unicode="&#xe100;" horiz-adv-x="489" 
d="M348 -264q0 -78 -60 -123t-164 -45t-163 78l47 98q51 -76 131 -76t80 74q0 90 -141 90l67 178h19q-82 45 -55 185l204 1173h156l-205 -1165q-16 -92 53 -92q27 0 60 8l-21 -113q-45 -16 -85 -16t-50 2l-33 -78q82 -18 121 -59t39 -119z" />
    <glyph glyph-name="uni004500600323" unicode="&#xe101;" horiz-adv-x="983" 
d="M709 1341h-142l127 238h213zM252 -290q0 46 32 79t78 33t78 -33q33 -33 33 -79t-33 -79t-79 -33q-45 0 -77 34q-32 32 -32 78zM825 139l-22 -139h-721l211 1206h721l-25 -139h-557l-70 -395h494l-25 -140h-493l-70 -393h557z" />
    <glyph glyph-name="uni006500600323" unicode="&#xe102;" horiz-adv-x="940" 
d="M184 -290q0 46 32 79t78 33t79 -33t33 -79t-33 -79t-79 -33t-78 34q-32 32 -32 78zM596 1085h-133l153 293h215zM729 635q0 90 -50 150q-51 61 -153 61t-176 -80t-104 -203h473q10 29 10 72zM457 96q100 0 152 40t81 122l141 -35q-49 -137 -145 -192t-254 -55t-254 108
q-96 109 -96 293q0 272 138 432t316 160q178 1 260 -97q83 -98 83 -222t-41 -212h-611q-13 -138 45 -240t185 -102z" />
    <glyph glyph-name="uni004500B40323" unicode="&#xe103;" horiz-adv-x="983" 
d="M725 1341h-141l-199 238h213zM252 -290q0 46 32 79t78 33t78 -33q33 -33 33 -79t-33 -79t-79 -33q-45 0 -77 34q-32 32 -32 78zM825 139l-22 -139h-721l211 1206h721l-25 -139h-557l-70 -395h494l-25 -140h-493l-70 -393h557z" />
    <glyph glyph-name="uni006500B40323" unicode="&#xe104;" horiz-adv-x="940" 
d="M184 -290q0 46 32 79t78 33t79 -33t33 -79t-33 -79t-79 -33t-78 34q-32 32 -32 78zM629 1085h-133l-236 293h215zM729 635q0 90 -50 150q-51 61 -153 61t-176 -80t-104 -203h473q10 29 10 72zM457 96q100 0 152 40t81 122l141 -35q-49 -137 -145 -192t-254 -55t-254 108
q-96 109 -96 293q0 272 138 432t316 160q178 1 260 -97q83 -98 83 -222t-41 -212h-611q-13 -138 45 -240t185 -102z" />
    <glyph glyph-name="Gtilde" unicode="&#xe105;" horiz-adv-x="1212" 
d="M868 1341q-64 0 -104 27q-6 4 -23 14t-40 26q-23 15 -30 18q-7 4 -23 12t-42 8q-74 0 -80 -100h-98q-16 94 37 162t145 69q14 0 28 -2t22 -3q9 -1 26 -8q17 -8 31 -16t17 -9q2 -1 18 -11t18 -12q68 -45 102 -46q63 0 76 107h105q11 -102 -39 -169t-146 -67zM113 465
q0 352 178 559t438 207q322 0 391 -285l-159 -65q-19 106 -87 160t-161 55q-199 0 -317 -182t-117 -437q-1 -170 79 -268t236 -98q274 0 324 282l14 78h-307l24 143h467l-106 -614h-127l-2 154q-83 -178 -303 -178t-342 134q-122 136 -123 355z" />
    <glyph glyph-name="gtilde" unicode="&#xe106;" horiz-adv-x="1024" 
d="M741 1087q-64 0 -104 27q-6 4 -23 14t-40 26q-23 15 -30 18q-7 4 -23 12t-42 8q-74 0 -80 -100h-98q-16 94 37 162t145 69q13 0 27 -2t24 -3t21 -6q12 -5 17 -7q4 -3 18 -11t17 -9t19 -11t17 -12q68 -45 102 -45q63 0 76 106h105q12 -102 -38 -169t-147 -67zM356 -432
q-190 0 -276 73t-100 189l139 47q6 -84 68 -139t177 -55q227 0 279 280l37 191q-78 -176 -277 -177q-143 1 -232 103t-89 285q0 248 133 426t337 178t241 -183l51 160h129l-172 -977q-37 -207 -146 -304t-299 -97zM565 846q-145 0 -238 -132t-94 -335q1 -125 53 -200
t158 -75t180 75q72 75 95 210l31 166q20 115 -28 203t-157 88z" />
    <glyph glyph-name="Gcommaturnedabove" unicode="&#xe107;" horiz-adv-x="1212" 
d="M647 1475q0 106 72 160t190 55v-70q-147 -8 -147 -90q53 10 85 -17t32 -73t-30 -74q-30 -27 -80 -27t-86 35t-36 101zM113 465q0 352 178 559t438 207q322 0 391 -285l-159 -65q-19 106 -87 160t-161 55q-199 0 -317 -182t-117 -437q-1 -170 79 -268t236 -98
q274 0 324 282l14 78h-307l24 143h467l-106 -614h-127l-2 154q-83 -178 -303 -178t-342 134q-122 136 -123 355z" />
    <glyph glyph-name="gcommaturnedabove" unicode="&#xe108;" horiz-adv-x="1024" 
d="M518 1231q0 107 72 161t190 54v-70q-147 -8 -147 -90q53 10 85 -16t32 -74q0 -47 -30 -74q-30 -26 -80 -26t-86 34t-36 101zM356 -432q-190 0 -276 73t-100 189l139 47q6 -84 68 -139t177 -55q227 0 279 280l37 191q-78 -176 -277 -177q-143 1 -232 103t-89 285
q0 248 133 426t337 178t241 -183l51 160h129l-172 -977q-37 -207 -146 -304t-299 -97zM565 846q-145 0 -238 -132t-94 -335q1 -125 53 -200t158 -75t180 75q72 75 95 210l31 166q20 115 -28 203t-157 88z" />
    <glyph glyph-name="Hmacronbelow" unicode="&#xe109;" horiz-adv-x="1257" 
d="M752 -369h-514l22 125h514zM246 0h-164l211 1206h164l-92 -524h606l92 524h164l-211 -1206h-164l94 543h-606z" />
    <glyph glyph-name="hmacronbelow" unicode="&#xe10a;" horiz-adv-x="1034" 
d="M659 -369h-514l23 125h514zM883 111q27 0 59 8l-20 -113q-45 -16 -99 -16q-186 0 -149 205l82 458q33 184 -129 185q-95 0 -183 -76t-116 -244l-90 -518h-156l237 1368h160l-110 -614q104 215 305 215q114 1 178 -57t63 -167q0 -47 -8 -94l-78 -448q-16 -92 54 -92z" />
    <glyph glyph-name="Jcaron" unicode="&#xe10b;" horiz-adv-x="858" 
d="M817 1341h-94l-203 254h174l54 -69q27 -34 36 -72h4q14 29 62 72l78 69h182zM314 -25q-154 0 -237 68t-108 180l131 84q45 -203 205 -203q105 0 149 54t66 188l154 860h164l-158 -889q-33 -184 -122 -263q-90 -79 -244 -79z" />
    <glyph glyph-name="Kcedilla" unicode="&#xe10d;" horiz-adv-x="1040" 
d="M571 -264q0 -78 -60 -123t-165 -45t-162 78l47 98q51 -76 131 -76t80 74q0 90 -141 90l68 178h84l-41 -96q82 -18 120 -59t39 -119zM940 0h-182l-301 543h-117l-94 -543h-164l211 1206h164l-92 -528h96l467 528h194l-534 -585z" />
    <glyph glyph-name="kcedilla" unicode="&#xe10e;" horiz-adv-x="894" 
d="M541 -264q-1 -78 -61 -123t-164 -45t-162 78l47 98q51 -76 131 -76t80 74q0 90 -142 90l68 178h84l-41 -96q82 -18 121 -59t39 -119zM715 -10q-105 0 -154 100l-186 377h-56l-81 -467h-156l240 1368h157l-139 -788h45l350 366h191l-416 -414l166 -348q28 -57 66 -68
t104 7l-23 -117q-49 -16 -108 -16z" />
    <glyph glyph-name="Lcedilla" unicode="&#xe10f;" horiz-adv-x="937" 
d="M614 -264q0 -78 -60 -123t-164 -45t-163 78l47 98q51 -76 131 -76t80 74q0 90 -141 90l64 168h-326l211 1206h164l-189 -1067h557l-22 -139h-311l-37 -86q83 -18 121 -59t38 -119z" />
    <glyph glyph-name="ocedilla" unicode="&#xe110;" horiz-adv-x="1005" 
d="M543 840q-139 0 -225 -131t-85 -294t61 -241t167 -78q139 0 223 136t84 296t-59 236q-60 76 -166 76zM539 -264q-1 -78 -61 -123t-164 -45t-162 78l47 98q51 -76 131 -76t80 74q0 90 -142 90l60 160q-115 31 -181 130t-65 255q0 248 130 420t355 172q168 0 262 -109
t95 -297q0 -248 -130 -418t-354 -170q-25 0 -34 2l-27 -63q82 -18 121 -59t39 -119z" />
    <glyph glyph-name="Mmacron" unicode="&#xe111;" horiz-adv-x="1413" 
d="M1128 1386h-514l21 121h514zM748 301h-123l-158 449q-42 112 -49 202l-2 27h-8q-4 -76 -29 -221l-133 -758h-164l211 1206h192l187 -579q28 -91 37 -170h8q16 63 84 164l389 585h192l-211 -1206h-163l133 758q22 148 43 198l6 23h-8q-33 -78 -127 -219z" />
    <glyph glyph-name="mmacron" unicode="&#xe112;" horiz-adv-x="1546" 
d="M1143 1155h-514l22 125h514zM1427 745q0 -47 -8 -94l-78 -448q-16 -92 54 -92q27 0 59 8l-20 -113q-45 -16 -99 -16q-186 0 -149 205l82 458q33 184 -129 185q-84 0 -166 -77t-111 -243l-92 -518h-154l117 653q33 184 -129 185q-84 0 -166 -77t-110 -243l-90 -518h-156
l166 946h135l-14 -192q53 110 119 162t172 52t169 -60t64 -169q51 115 124 172t179 57t168 -58t63 -165z" />
    <glyph glyph-name="Mcedilla" unicode="&#xe113;" horiz-adv-x="1413" 
d="M782 -264q0 -78 -60 -123t-164 -45t-163 78l47 98q51 -76 131 -76t80 74q0 90 -141 90l68 178h84l-41 -96q83 -18 121 -59t38 -119zM748 301h-123l-158 449q-42 112 -49 202l-2 27h-8q-4 -76 -29 -221l-133 -758h-164l211 1206h192l187 -579q28 -91 37 -170h8
q16 63 84 164l389 585h192l-211 -1206h-163l133 758q22 148 43 198l6 23h-8q-33 -78 -127 -219z" />
    <glyph glyph-name="mcedilla" unicode="&#xe114;" horiz-adv-x="1546" 
d="M842 -264q0 -78 -60 -123t-166 -45q-104 0 -161 78l47 98q51 -76 131 -76t80 74q0 90 -142 90l64 168h-19l117 653q33 184 -129 185q-84 0 -166 -77t-110 -243l-90 -518h-156l166 946h135l-14 -192q53 110 119 162t172 52t169 -60t64 -169q51 115 124 172t179 57t168 -58
t63 -165q0 -47 -8 -94l-78 -448q-16 -92 54 -92q27 0 59 8l-20 -113q-45 -16 -99 -16q-186 0 -149 205l82 458q33 184 -129 185q-84 0 -166 -77t-111 -243l-92 -518h-51l-37 -86q82 -18 121 -59t39 -119z" />
    <glyph glyph-name="Ndieresis" unicode="&#xe115;" horiz-adv-x="1255" 
d="M850 1452q0 45 33 78t79 33t78 -32t31 -78q0 -46 -33 -79q-34 -33 -78 -33t-77 33t-33 78zM463 1454q0 45 33 78q34 33 78 33t77 -33t33 -78t-33 -78t-78 -33t-77 33t-33 78zM463 1206l325 -712q60 -130 91 -236l10 -37h8q16 145 43 297l121 688h164l-211 -1206h-166
l-334 709q-48 101 -92 233l-12 39h-9q-8 -141 -34 -293l-121 -688h-164l211 1206h170z" />
    <glyph glyph-name="ndieresis" unicode="&#xe116;" horiz-adv-x="1034" 
d="M709 1217q1 45 33 77t77 33q45 0 78 -33q33 -34 33 -78t-33 -77t-78 -33t-78 33q-32 33 -32 78zM322 1219q0 45 32 77t79 33q46 0 78 -32q32 -31 32 -77t-33 -79t-78 -33t-78 33q-32 33 -32 78zM883 111q27 0 59 8l-20 -113q-45 -16 -99 -16q-186 0 -149 205l82 458
q33 184 -129 185q-95 0 -183 -76t-116 -244l-90 -518h-156l166 946h135l-14 -192q104 215 305 215q114 1 178 -57t63 -167q0 -47 -8 -94l-78 -448q-16 -92 54 -92z" />
    <glyph glyph-name="Nmacron" unicode="&#xe117;" horiz-adv-x="1255" 
d="M1026 1386h-514l20 121h515zM463 1206l325 -712q60 -130 91 -236l10 -37h8q16 145 43 297l121 688h164l-211 -1206h-166l-334 709q-48 101 -92 233l-12 39h-9q-8 -141 -34 -293l-121 -688h-164l211 1206h170z" />
    <glyph glyph-name="nmacron" unicode="&#xe118;" horiz-adv-x="1034" 
d="M870 1155h-514l23 125h514zM883 111q27 0 59 8l-20 -113q-45 -16 -99 -16q-186 0 -149 205l82 458q33 184 -129 185q-95 0 -183 -76t-116 -244l-90 -518h-156l166 946h135l-14 -192q104 215 305 215q114 1 178 -57t63 -167q0 -47 -8 -94l-78 -448q-16 -92 54 -92z" />
    <glyph glyph-name="Ncedilla" unicode="&#xe119;" horiz-adv-x="1255" 
d="M680 -264q0 -78 -60 -123t-164 -45t-163 78l47 98q51 -76 131 -76t80 74q0 90 -141 90l67 178h84l-41 -96q82 -18 121 -59t39 -119zM463 1206l325 -712q60 -130 91 -236l10 -37h8q16 145 43 297l121 688h164l-211 -1206h-166l-334 709q-48 101 -92 233l-12 39h-9
q-8 -141 -34 -293l-121 -688h-164l211 1206h170z" />
    <glyph glyph-name="ncedilla" unicode="&#xe11a;" horiz-adv-x="1034" 
d="M569 -264q0 -78 -60 -123t-164 -45t-163 78l47 98q51 -76 131 -76t80 74q0 90 -141 90l68 178h84l-41 -96q82 -18 120 -59t39 -119zM883 111q27 0 59 8l-20 -113q-45 -16 -99 -16q-186 0 -149 205l82 458q33 184 -129 185q-95 0 -183 -76t-116 -244l-90 -518h-156
l166 946h135l-14 -192q104 215 305 215q114 1 178 -57t63 -167q0 -47 -8 -94l-78 -448q-16 -92 54 -92z" />
    <glyph glyph-name="Ocommaturnedabove" unicode="&#xe11b;" horiz-adv-x="1261" 
d="M662 1475q0 106 71 160q72 54 191 55v-70q-147 -8 -148 -90q53 10 85 -17t32 -73t-30 -74q-30 -27 -80 -27t-86 35q-35 35 -35 101zM711 1094q-199 0 -316 -180t-116 -437q-1 -170 81 -268t234 -98q198 0 314 180t116 436q0 163 -76 265t-237 102zM575 -25
q-217 -1 -339 135t-123 355q0 352 177 559t437 207q217 0 340 -136t123 -356q0 -352 -178 -558t-437 -206z" />
    <glyph glyph-name="ocommaturnedabove" unicode="&#xe11c;" horiz-adv-x="1005" 
d="M500 1229q0 106 71 161q72 54 191 54v-70q-147 -8 -148 -90q53 10 85 -16t32 -74q0 -47 -30 -74q-29 -26 -79 -26t-86 34t-36 101zM543 840q-139 0 -225 -131t-85 -294t61 -241t167 -78q139 0 223 136t84 296t-59 236q-60 76 -166 76zM567 969q168 0 262 -109t95 -297
q0 -248 -130 -418t-354 -170q-162 -1 -260 105t-98 297q0 248 130 420t355 172z" />
    <glyph glyph-name="uni004F02D900AF" unicode="&#xe11d;" horiz-adv-x="1261" 
d="M655 1379q0 46 32 79t78 33t79 -33t33 -79t-33 -79q-33 -32 -79 -32t-78 32t-32 79zM1073 1563h-514l21 120h514zM711 1094q-199 0 -316 -180t-116 -437q-1 -170 81 -268t234 -98q198 0 314 180t116 436q0 163 -76 265t-237 102zM575 -25q-217 -1 -339 135t-123 355
q0 352 177 559t437 207q217 0 340 -136t123 -356q0 -352 -178 -558t-437 -206z" />
    <glyph glyph-name="Ocedilla" unicode="&#xe11f;" horiz-adv-x="1261" 
d="M711 1094q-199 0 -316 -180t-116 -437q-1 -170 81 -268t234 -98q198 0 314 180t116 436q0 163 -76 265t-237 102zM682 -264q0 -78 -60 -123t-165 -45t-162 78l47 98q51 -76 131 -76t80 74q0 90 -141 90l57 154q-170 30 -263 158t-93 321q0 352 177 559t437 207
q217 0 340 -136t123 -356q0 -352 -177 -558t-438 -206h-26l-27 -61q82 -18 121 -59t39 -119z" />
    <glyph glyph-name="Ounderlineaccent" unicode="&#xe121;" horiz-adv-x="1261" 
d="M578 -416h-123l39 307h122zM711 1094q-199 0 -316 -180t-116 -437q-1 -170 81 -268t234 -98q198 0 314 180t116 436q0 163 -76 265t-237 102zM575 -25q-217 -1 -339 135t-123 355q0 352 177 559t437 207q217 0 340 -136t123 -356q0 -352 -178 -558t-437 -206z" />
    <glyph glyph-name="ounderlineaccent" unicode="&#xe122;" horiz-adv-x="1005" 
d="M442 -416h-123l39 307h123zM543 840q-139 0 -225 -131t-85 -294t61 -241t167 -78q139 0 223 136t84 296t-59 236q-60 76 -166 76zM567 969q168 0 262 -109t95 -297q0 -248 -130 -418t-354 -170q-162 -1 -260 105t-98 297q0 248 130 420t355 172z" />
    <glyph glyph-name="Pmacron" unicode="&#xe123;" horiz-adv-x="983" 
d="M905 1386h-514l21 121h514zM629 1206q188 0 276 -74t88 -227q0 -213 -131 -329t-342 -115h-194l-80 -461h-164l211 1206h336zM528 592q141 0 220 79q78 79 77 222q0 92 -51 136t-164 44h-176l-86 -481h180z" />
    <glyph glyph-name="pmacron" unicode="&#xe124;" horiz-adv-x="1071" 
d="M911 1155h-514l23 125h514zM680 969q150 -1 230 -101t79 -288q0 -260 -128 -432t-341 -173q-102 -1 -171 51t-85 130l-100 -572h-154l240 1362h135l-16 -182q98 205 311 205zM508 104q145 0 232 136t87 340q0 122 -51 192t-152 70t-185 -82t-107 -213l-33 -185
q-20 -94 38 -176t171 -82z" />
    <glyph glyph-name="Rdoublegrave" unicode="&#xe125;" horiz-adv-x="1095" 
d="M600 1341h-123l-235 238h204zM887 1341h-119l-215 238h201zM590 643q276 0 276 256q0 90 -47 132t-153 42h-232l-76 -430h232zM506 512h-170l-90 -512h-164l211 1206h399q186 0 264 -72t78 -226q0 -152 -102 -241t-232 -96v-8q84 -10 125 -53t60 -143l43 -242
q12 -70 51 -125h-174q-29 35 -41 109l-37 219q-19 112 -67 148t-154 36z" />
    <glyph glyph-name="rdoublegrave" unicode="&#xe126;" horiz-adv-x="679" 
d="M426 1085h-123l-235 293h204zM713 1085h-119l-215 293h201zM721 965l-41 -183q-113 23 -218 -42t-128 -193l-96 -547h-156l166 946h135l-18 -215q49 115 148 183t208 51z" />
    <glyph glyph-name="Rcedilla" unicode="&#xe127;" horiz-adv-x="1095" 
d="M653 -264q0 -78 -60 -123t-165 -45t-162 78l47 98q51 -76 131 -76t80 74q0 90 -141 90l68 178h84l-41 -96q82 -18 120 -59t39 -119zM590 643q276 0 276 256q0 90 -47 132t-153 42h-232l-76 -430h232zM506 512h-170l-90 -512h-164l211 1206h399q186 0 264 -72t78 -226
q0 -152 -102 -241t-232 -96v-8q84 -10 125 -53t60 -143l43 -242q12 -70 51 -125h-174q-29 35 -41 109l-37 219q-19 112 -67 148t-154 36z" />
    <glyph glyph-name="rcedilla" unicode="&#xe128;" horiz-adv-x="679" 
d="M330 -264q0 -78 -60 -123t-164 -45t-163 78l47 98q51 -76 131 -76t80 74q0 90 -142 90l64 168h-41l166 946h135l-18 -215q49 115 148 183t208 51l-41 -183q-113 23 -218 -42t-128 -193l-96 -547h-31l-37 -86q82 -18 121 -59t39 -119z" />
    <glyph glyph-name="Tcedilla" unicode="&#xe129;" horiz-adv-x="968" 
d="M555 -264q0 -78 -60 -123t-165 -45t-162 78l47 98q51 -76 131 -76t80 74q0 90 -141 90l63 168h-33l187 1067h-359l25 139h883l-25 -139h-360l-187 -1067h-47l-37 -86q82 -18 121 -59t39 -119z" />
    <glyph glyph-name="tcedilla" unicode="&#xe12a;" horiz-adv-x="618" 
d="M418 -258q0 -135 -148 -168q-31 -6 -65 -6q-115 0 -174 78l47 98q51 -76 131 -76t80 74q0 90 -142 90l62 164q-133 55 -94 266l98 559h-131l22 125h134l34 199l158 22l-39 -221h248l-23 -125h-245l-103 -575q-12 -70 12 -105t68 -35q78 0 162 48v-131q-82 -47 -186 -48
l-39 2l-27 -63q82 -18 121 -59t39 -113z" />
    <glyph glyph-name="Umacronbelow" unicode="&#xe12b;" horiz-adv-x="1191" 
d="M709 -369h-514l22 125h514zM1018 1206h164l-146 -827q-70 -403 -506 -404q-206 0 -320 116t-71 360l131 755h164l-135 -774q-29 -166 41 -245t208 -79t220 70t111 234z" />
    <glyph glyph-name="umacronbelow" unicode="&#xe12c;" 
d="M598 -369h-514l22 125h515zM350 -25q-146 1 -206 93t-31 264l106 614h156l-113 -643q-16 -99 19 -155t123 -56t167 76q80 76 103 203l100 575h156l-131 -743q-16 -92 53 -92q27 0 59 8l-20 -113q-45 -16 -98 -16q-173 0 -146 188q-80 -203 -297 -203z" />
    <glyph glyph-name="R.alt" unicode="&#xe141;" horiz-adv-x="1044" 
d="M522 610q303 0 303 275q0 188 -196 188h-199l-82 -463h174zM639 1206q354 0 354 -299q0 -168 -95 -273t-236 -130l274 -504h-182l-254 485h-174l-84 -485h-160l211 1206h346z" />
    <glyph glyph-name="Racute.alt" unicode="&#xe142;" horiz-adv-x="1044" 
d="M522 610q303 0 303 275q0 188 -196 188h-199l-82 -463h174zM639 1206q354 0 354 -299q0 -168 -95 -273t-236 -130l274 -504h-182l-254 485h-174l-84 -485h-160l211 1206h346zM729 1341h-141l127 238h213z" />
    <glyph glyph-name="Rcaron.alt" unicode="&#xe143;" horiz-adv-x="1044" 
d="M522 610q303 0 303 275q0 188 -196 188h-199l-82 -463h174zM639 1206q354 0 354 -299q0 -168 -95 -273t-236 -130l274 -504h-182l-254 485h-174l-84 -485h-160l211 1206h346zM709 1341h-95l-202 254h174l53 -69q28 -36 37 -72h4q14 29 61 72l78 69h182z" />
    <glyph glyph-name="Rinvertedbreve.alt" unicode="&#xe144;" horiz-adv-x="1044" 
d="M522 610q303 0 303 275q0 188 -196 188h-199l-82 -463h174zM639 1206q354 0 354 -299q0 -168 -95 -273t-236 -130l274 -504h-182l-254 485h-174l-84 -485h-160l211 1206h346zM722 1604q124 0 183 -70t37 -188h-125q5 70 -21 106t-96 35q-129 0 -168 -141h-124
q22 118 106 188t208 70z" />
    <glyph glyph-name="Rdoublegrave.alt" unicode="&#xe145;" horiz-adv-x="1044" 
d="M522 610q303 0 303 275q0 188 -196 188h-199l-82 -463h174zM639 1206q354 0 354 -299q0 -168 -95 -273t-236 -130l274 -504h-182l-254 485h-174l-84 -485h-160l211 1206h346zM600 1341h-123l-235 238h204zM887 1341h-119l-215 238h201z" />
    <glyph glyph-name="Rcommaaccent.alt" unicode="&#xe146;" horiz-adv-x="1044" 
d="M522 610q303 0 303 275q0 188 -196 188h-199l-82 -463h174zM639 1206q354 0 354 -299q0 -168 -95 -273t-236 -130l274 -504h-182l-254 485h-174l-84 -485h-160l211 1206h346zM561 -287q0 -106 -72 -160t-190 -55v70q147 8 147 90q-53 -10 -85 16t-31 74q0 47 29 74
q30 26 80 26t86 -34t36 -101z" />
    <glyph glyph-name="Rcedilla.alt" unicode="&#xe147;" horiz-adv-x="1044" 
d="M522 610q303 0 303 275q0 188 -196 188h-199l-82 -463h174zM639 1206q354 0 354 -299q0 -168 -95 -273t-236 -130l274 -504h-182l-254 485h-174l-84 -485h-160l211 1206h346zM629 -264q-1 -78 -61 -123t-164 -45t-162 78l47 98q51 -76 131 -76t80 74q0 90 -142 90l68 178
h84l-41 -96q82 -18 121 -59t39 -119z" />
    <glyph glyph-name="Rdotbelow.alt" unicode="&#xe148;" horiz-adv-x="1044" 
d="M522 610q303 0 303 275q0 188 -196 188h-199l-82 -463h174zM639 1206q354 0 354 -299q0 -168 -95 -273t-236 -130l274 -504h-182l-254 485h-174l-84 -485h-160l211 1206h346zM313 -290q0 46 32 79t78 33t79 -33t33 -79t-33 -79t-79 -33t-78 34q-32 32 -32 78z" />
    <glyph glyph-name="Rdotbelowmacron.alt" unicode="&#xe149;" horiz-adv-x="1044" 
d="M522 610q303 0 303 275q0 188 -196 188h-199l-82 -463h174zM639 1206q354 0 354 -299q0 -168 -95 -273t-236 -130l274 -504h-182l-254 485h-174l-84 -485h-160l211 1206h346zM938 1386h-514l20 121h514zM313 -290q0 46 32 79t78 33t79 -33t33 -79t-33 -79t-79 -33t-78 34
q-32 32 -32 78z" />
    <glyph glyph-name="aogonek.school" unicode="&#xe150;" horiz-adv-x="985" 
d="M530 844q-174 0 -215 -160l-143 21q35 139 141 201t240 63q352 0 295 -318l-78 -448q-16 -92 53 -92q27 0 60 8l-21 -113q-305 -43 -305 -231q0 -45 27 -73t69 -28q88 0 133 88l60 -71q-61 -123 -217 -123q-100 0 -154 51q-53 51 -53 144t67 166q68 73 158 106
q-37 60 -31 117q-74 -176 -290 -177q-121 0 -188 65t-66 175q0 172 154 257q155 85 448 71l18 106q18 98 -26 147q-45 48 -136 48zM225 227q0 -135 152 -135q96 0 169 56t87 145l24 147q-197 14 -315 -43t-117 -170z" />
    <glyph glyph-name="a.school" unicode="&#xe151;" horiz-adv-x="985" 
d="M823 111q27 0 60 8l-21 -113q-45 -16 -98 -16q-160 0 -148 162q-74 -176 -290 -177q-121 0 -188 65t-66 175q0 172 154 257q155 85 448 71l18 106q18 98 -26 147q-45 48 -136 48q-174 0 -215 -160l-143 21q35 139 141 201t240 63q352 -1 295 -318l-78 -448
q-16 -92 53 -92zM225 227q0 -135 152 -135q96 0 169 56t87 145l24 147q-197 14 -315 -43t-117 -170z" />
    <glyph glyph-name="agrave.school" unicode="&#xe152;" horiz-adv-x="985" 
d="M668 1085h-133l-236 293h215zM823 111q27 0 60 8l-21 -113q-45 -16 -98 -16q-160 0 -148 162q-74 -176 -290 -177q-121 0 -188 65t-66 175q0 172 154 257q155 85 448 71l18 106q18 98 -26 147q-45 48 -136 48q-174 0 -215 -160l-143 21q35 139 141 201t240 63
q352 -1 295 -318l-78 -448q-16 -92 53 -92zM225 227q0 -135 152 -135q96 0 169 56t87 145l24 147q-197 14 -315 -43t-117 -170z" />
    <glyph glyph-name="aacute.school" unicode="&#xe153;" horiz-adv-x="985" 
d="M621 1085h-134l154 293h215zM823 111q27 0 60 8l-21 -113q-45 -16 -98 -16q-160 0 -148 162q-74 -176 -290 -177q-121 0 -188 65t-66 175q0 172 154 257q155 85 448 71l18 106q18 98 -26 147q-45 48 -136 48q-174 0 -215 -160l-143 21q35 139 141 201t240 63
q352 -1 295 -318l-78 -448q-16 -92 53 -92zM225 227q0 -135 152 -135q96 0 169 56t87 145l24 147q-197 14 -315 -43t-117 -170z" />
    <glyph glyph-name="acircumflex.school" unicode="&#xe154;" horiz-adv-x="985" 
d="M569 1378h86l199 -293h-162l-57 91q-25 41 -35 81h-8q-16 -33 -64 -81l-90 -91h-170zM823 111q27 0 60 8l-21 -113q-45 -16 -98 -16q-160 0 -148 162q-74 -176 -290 -177q-121 0 -188 65t-66 175q0 172 154 257q155 85 448 71l18 106q18 98 -26 147q-45 48 -136 48
q-174 0 -215 -160l-143 21q35 139 141 201t240 63q352 -1 295 -318l-78 -448q-16 -92 53 -92zM225 227q0 -135 152 -135q96 0 169 56t87 145l24 147q-197 14 -315 -43t-117 -170z" />
    <glyph glyph-name="adieresis.school" unicode="&#xe155;" horiz-adv-x="985" 
d="M653 1217q0 45 33 77t79 33q46 0 78 -33q31 -34 31 -78t-32 -77t-78 -33q-45 0 -78 33t-33 78zM266 1219q0 45 33 77t78 33q45 0 78 -32q33 -31 33 -77t-34 -79q-32 -33 -77 -33t-78 33t-33 78zM823 111q27 0 60 8l-21 -113q-45 -16 -98 -16q-160 0 -148 162
q-74 -176 -290 -177q-121 0 -188 65t-66 175q0 172 154 257q155 85 448 71l18 106q18 98 -26 147q-45 48 -136 48q-174 0 -215 -160l-143 21q35 139 141 201t240 63q352 -1 295 -318l-78 -448q-16 -92 53 -92zM225 227q0 -135 152 -135q96 0 169 56t87 145l24 147
q-197 14 -315 -43t-117 -170z" />
    <glyph glyph-name="atilde.school" unicode="&#xe156;" horiz-adv-x="985" 
d="M680 1087q-58 0 -105 27q-6 4 -21 13l-22 13q-8 4 -25 17q-17 12 -25 15q-8 4 -23 12q-16 8 -41 8q-74 0 -80 -100h-98q-16 94 36 162t146 69q14 0 28 -2t22 -3q9 -1 26 -8q17 -8 31 -16q13 -8 17 -9t18 -11l18 -12q68 -45 102 -45q63 0 76 106h104q12 -102 -38 -169
t-146 -67zM823 111q27 0 60 8l-21 -113q-45 -16 -98 -16q-160 0 -148 162q-74 -176 -290 -177q-121 0 -188 65t-66 175q0 172 154 257q155 85 448 71l18 106q18 98 -26 147q-45 48 -136 48q-174 0 -215 -160l-143 21q35 139 141 201t240 63q352 -1 295 -318l-78 -448
q-16 -92 53 -92zM225 227q0 -135 152 -135q96 0 169 56t87 145l24 147q-197 14 -315 -43t-117 -170z" />
    </font>
</defs>
</svg>
